<?xml version="1.0" encoding="utf-8"?>
<!-- Generator: Adobe Illustrator 19.0.0, SVG Export Plug-In . SVG Version: 6.00 Build 0)  -->
<svg version="1.1" id="Camada_1" xmlns="http://www.w3.org/2000/svg" xmlns:xlink="http://www.w3.org/1999/xlink" x="0px" y="0px"
	 viewBox="0 0 121.5 168.1" enable-background="new 0 0 121.5 168.1" xml:space="preserve">
<g id="XMLID_2972_">
	<g id="XMLID_2973_">
		<path id="XMLID_136_" fill="#FFFFFF" d="M47.8,164.4c-8.4,0-15.5-1.4-21.2-4.3c-5.8-2.9-10.4-6.9-13.8-11.9
			c-3.3-4.9-5.7-10.7-7.1-17.2c-1.3-6.3-2-13.2-2-20.3c0-9.3,0.8-18.6,2.2-27.4c1.5-8.9,3.7-17.3,6.6-25.2
			c2.9-7.9,6.4-15.2,10.6-21.7c4.2-6.6,9-12.4,14.2-17.1c5.3-4.8,11.3-8.6,17.6-11.3c6.4-2.7,13.4-4.1,20.6-4.1
			C82.7,3.7,89,5,94.3,7.6c5.4,2.6,9.9,6.2,13.4,10.9c3.4,4.6,6,10.1,7.7,16.5c1.6,6.2,2.4,13.2,2.4,20.7c0,5-0.3,10.4-0.8,16
			c-0.6,5.7-1.5,11.5-2.6,17.5c-1.2,5.9-2.8,12-4.6,17.9c-1.9,6-4.2,11.8-6.9,17.3c-2.7,5.5-5.8,10.7-9.3,15.5
			c-3.6,4.9-7.7,9.2-12.2,12.7c-4.5,3.6-9.7,6.5-15.2,8.6C60.5,163.3,54.4,164.4,47.8,164.4z M75.3,23.1c-2.3,0-4.6,1-7,3.1
			c-2.8,2.4-5.5,5.8-8.1,10.1c-2.7,4.5-5.2,9.8-7.5,15.8c-2.3,6.1-4.4,12.7-6.1,19.6c-1.7,7-3,14.3-4,21.7c-1,7.4-1.5,14.8-1.5,22.1
			c0,3.6,0.2,7.2,0.5,10.7c0.3,3.3,0.9,6.2,1.8,8.7c0.8,2.2,1.8,4,3.1,5.3c0.6,0.6,1.7,1.4,4,1.4c2.4,0,4.7-1,7.1-3.1
			c2.8-2.4,5.4-5.7,7.9-9.9c2.6-4.4,5-9.6,7.1-15.6c2.2-6,4.1-12.6,5.6-19.7c1.6-7,2.8-14.5,3.6-22.1c0.9-7.6,1.3-15.3,1.3-22.9
			c0-3.7-0.2-7.3-0.7-10.7c-0.4-3.2-1.1-6.1-1.9-8.6c-0.8-2.2-1.7-3.9-2.8-5.1C77,23.5,76.2,23.1,75.3,23.1z"/>
		<path id="XMLID_131_" fill="#8D563E" d="M75.6,7.5c6.6,0,12.3,1.2,17.1,3.5c4.8,2.3,8.9,5.6,12,9.8c3.2,4.2,5.5,9.3,7,15.2
			c1.5,5.9,2.3,12.5,2.3,19.7c0,4.9-0.3,10.1-0.8,15.7c-0.6,5.6-1.4,11.3-2.6,17.1c-1.2,5.8-2.7,11.7-4.5,17.5s-4.1,11.5-6.7,16.8
			c-2.6,5.3-5.6,10.3-9,14.9c-3.4,4.6-7.2,8.6-11.5,12c-4.3,3.4-9,6.1-14.2,8c-5.2,2-10.8,2.9-16.9,2.9c-7.8,0-14.3-1.3-19.5-3.9
			c-5.2-2.6-9.3-6.2-12.4-10.6c-3.1-4.5-5.2-9.8-6.5-15.9c-1.3-6.1-1.9-12.6-1.9-19.6c0-9.2,0.7-18.1,2.2-26.8s3.6-16.9,6.4-24.5
			c2.8-7.6,6.2-14.6,10.2-21c4-6.3,8.5-11.8,13.6-16.4c5-4.6,10.6-8.1,16.6-10.6C62.4,8.8,68.8,7.5,75.6,7.5 M50.5,145.5
			c3.3,0,6.4-1.3,9.5-4c3.1-2.6,6-6.3,8.7-10.8c2.7-4.6,5.2-10,7.4-16.2c2.2-6.2,4.2-12.9,5.8-20.1c1.6-7.2,2.8-14.7,3.7-22.5
			c0.9-7.8,1.3-15.5,1.3-23.3c0-3.9-0.2-7.6-0.7-11.1c-0.5-3.5-1.2-6.6-2.1-9.3c-0.9-2.7-2.1-4.8-3.6-6.4c-1.5-1.6-3.2-2.3-5.2-2.3
			c-3.2,0-6.3,1.4-9.4,4.1c-3.1,2.7-6,6.4-8.8,11c-2.8,4.7-5.4,10.1-7.8,16.4c-2.4,6.3-4.5,12.9-6.2,20.1C41.3,78,39.9,85.4,38.9,93
			c-1,7.6-1.5,15.1-1.5,22.6c0,3.8,0.2,7.5,0.5,11c0.4,3.6,1,6.8,2,9.6c0.9,2.8,2.3,5,4,6.7C45.5,144.6,47.7,145.5,50.5,145.5
			 M75.6,0c-7.7,0-15.2,1.5-22.1,4.4c-6.7,2.9-13,6.9-18.6,12c-5.5,5-10.5,11-14.9,17.9C15.7,41.1,12,48.6,9,56.7
			c-2.9,8-5.2,16.7-6.7,25.8C0.8,91.6,0,101.1,0,110.6c0,7.4,0.7,14.5,2.1,21.1c1.5,7,4,13.3,7.6,18.6c3.8,5.5,8.9,10,15.2,13.1
			c6.2,3.1,13.9,4.7,22.9,4.7c7,0,13.6-1.1,19.6-3.4c5.9-2.2,11.3-5.3,16.2-9.1c4.8-3.8,9.1-8.3,12.9-13.5c3.6-5,6.9-10.4,9.7-16.1
			c2.8-5.6,5.1-11.6,7.1-17.8c1.9-6.1,3.5-12.3,4.7-18.3c1.2-6,2.1-12,2.7-17.8c0.6-5.8,0.9-11.3,0.9-16.4c0-7.8-0.9-15.1-2.5-21.6
			c-1.8-6.9-4.6-12.8-8.3-17.8c-3.9-5.2-8.8-9.2-14.8-12C90.1,1.4,83.2,0,75.6,0L75.6,0z M50.5,138c-1,0-1.2-0.2-1.3-0.3
			c-0.9-0.9-1.6-2.2-2.2-3.8c-0.8-2.3-1.3-4.9-1.6-7.9c-0.3-3.3-0.5-6.8-0.5-10.3c0-7.1,0.5-14.3,1.4-21.6c1-7.3,2.3-14.5,4-21.3
			c1.6-6.8,3.6-13.2,5.9-19.1c2.2-5.8,4.7-10.9,7.2-15.2c2.4-4,4.9-7.1,7.3-9.3c1.6-1.4,3-2.1,4.3-2.2c0.5,0.6,1.3,1.6,2,3.7
			c0.8,2.2,1.4,4.8,1.7,7.8c0.4,3.2,0.6,6.6,0.6,10.2c0,7.4-0.4,15-1.3,22.5c-0.8,7.5-2,14.8-3.6,21.7C73,99.6,71.2,106,69,111.9
			c-2.1,5.8-4.4,10.8-6.8,15c-2.3,3.8-4.7,6.9-7.1,8.9C52.6,138,51,138,50.5,138L50.5,138z"/>
	</g>
</g>
</svg>
