<?xml version="1.0" encoding="utf-8"?>
<!-- Generator: Adobe Illustrator 19.0.0, SVG Export Plug-In . SVG Version: 6.00 Build 0)  -->
<svg version="1.1" id="Camada_1" xmlns="http://www.w3.org/2000/svg" xmlns:xlink="http://www.w3.org/1999/xlink" x="0px" y="0px"
	 viewBox="0 0 80.8 172.4" enable-background="new 0 0 80.8 172.4" xml:space="preserve">
<g id="XMLID_537_">
	<g id="XMLID_4756_">
		<path id="XMLID_99_" fill="#FFFFFF" d="M4.6,168.7L31,43.9H11.8l4.3-16.7H19c2.6,0,5.6-0.1,8.9-0.4c3.1-0.2,6.7-0.9,10.7-1.9
			c4-1,8.5-2.6,13.3-4.5c4.8-2,10.2-4.8,16.1-8.3l7.4-4.5l-34.3,161H4.6z"/>
		<path id="XMLID_96_" fill="#8D563E" d="M69.9,15.3L38,164.9H9.2L35.6,40.1H16.7l2.3-9.2c2.7,0,5.8-0.1,9.2-0.4
			c3.4-0.3,7.2-0.9,11.3-2c4.2-1.1,8.8-2.6,13.8-4.7C58.3,21.8,63.8,19,69.9,15.3 M80.8,0L66,8.9c-5.7,3.4-10.9,6.1-15.6,8
			c-4.7,1.9-9,3.4-12.8,4.4c-3.7,1-7.1,1.6-10,1.8c-3.2,0.2-6.1,0.4-8.6,0.4h-5.8l-1.4,5.6l-2.3,9.2L7,47.6h9.6h9.7L1.9,163.4
			l-1.9,9h9.2H38h6.1l1.3-5.9L77.2,16.9L80.8,0L80.8,0z"/>
	</g>
</g>
</svg>
