<?xml version="1.0" encoding="utf-8"?>
<!-- Generator: Adobe Illustrator 19.0.0, SVG Export Plug-In . SVG Version: 6.00 Build 0)  -->
<svg version="1.1" id="Camada_1" xmlns="http://www.w3.org/2000/svg" xmlns:xlink="http://www.w3.org/1999/xlink" x="0px" y="0px"
	 viewBox="0 0 111.9 167.5" enable-background="new 0 0 111.9 167.5" xml:space="preserve">
<g id="XMLID_2971_">
	<g id="XMLID_4387_">
		<path id="XMLID_73_" fill="#FFFFFF" d="M72.5,163.8c-3.5,0-7.1-0.5-10.6-1.4c-3.3-0.9-6.7-1.8-10.1-2.8c-3.3-1-6.8-1.9-10.2-2.7
			c-3.3-0.8-6.6-1.2-10-1.2c-3.1,0-6.4,0.4-9.7,1.2c-3.3,0.8-6.9,2.2-10.7,4.2l-0.8,0.4H5.7L5,158.7c-0.8-3.5-1.3-6.9-1.3-10.3
			c0.1-5.2,1.2-10.3,3.3-15.1c2-4.6,4.8-9.2,8.1-13.5c3.2-4.2,7-8.4,11.1-12.5c4-4,8.1-8.1,12.2-12.1c4.1-4,8.2-8.1,12.1-12.2
			c3.8-4,7.3-8.2,10.3-12.5c2.9-4.2,5.3-8.6,7.1-13.1c1.7-4.4,2.6-9.1,2.6-14c0-3.3-0.3-6.4-0.8-9.2c-0.5-2.6-1.2-4.8-2.3-6.6
			c-0.9-1.7-2.1-2.9-3.5-3.8c-1.3-0.8-2.8-1.2-4.7-1.2c-1.8,0-3.5,0.3-5,1c-1.5,0.6-2.7,1.5-3.7,2.6c-1,1.1-1.9,2.5-2.5,4
			c-0.6,1.6-0.9,3.2-0.9,4.9c0,4.2,0.8,7.8,2.4,10.6c1.6,2.8,3.4,4.9,5.4,6.1l1.8,1.1v4.6l-1.2,1.1c-2.6,2.3-5.4,4.2-8.4,5.6
			c-3.1,1.4-6.3,2.1-9.3,2.1c-2.6,0-5-0.6-7.3-1.8c-2.3-1.2-4.2-2.9-5.9-5.1c-1.6-2.1-2.8-4.7-3.7-7.6c-0.9-2.9-1.3-6.3-1.3-9.9
			c0-4.5,1-9.1,3.1-13.6c2-4.5,5-8.6,8.9-12.2c3.9-3.6,8.7-6.5,14.3-8.8c5.7-2.2,12.2-3.3,19.5-3.3c6.1,0,11.7,0.9,16.9,2.7
			c5.2,1.8,9.8,4.5,13.6,7.9c3.8,3.5,6.9,7.8,9,12.8c2.1,5,3.2,10.6,3.2,16.8c0,5.3-0.9,10.3-2.8,14.9c-1.8,4.5-4.2,8.8-7.2,12.8
			c-3,3.9-6.4,7.7-10.3,11.3c-3.8,3.5-7.8,6.9-11.9,10.2c-4.1,3.3-8.3,6.5-12.5,9.7c-4.1,3.1-8.1,6.3-11.8,9.5
			c-3.7,3.2-7.1,6.4-10.1,9.7c-0.9,1-1.8,2-2.6,3c1.4-0.1,2.9-0.1,4.3-0.1c3.5,0,6.9,0.2,10.1,0.7c3.1,0.5,6.1,1,8.9,1.6
			c2.8,0.6,5.4,1.1,7.9,1.5c2.3,0.4,4.5,0.6,6.5,0.6c2.9,0,5.5-0.6,8.1-1.8c2.6-1.2,5.5-3.6,8.6-7.1l2.2-2.4l4.3,2.9l0.4,1.2
			c1.8,5.1,2.8,9.7,2.8,13.7c0,4.2-0.9,8.1-2.6,11.6c-1.7,3.4-4,6.4-6.8,8.8c-2.8,2.4-6.1,4.3-9.7,5.6
			C80.3,163.1,76.5,163.8,72.5,163.8z"/>
		<path id="XMLID_70_" fill="#8D563E" d="M65.5,7.5c5.7,0,10.9,0.8,15.6,2.5c4.8,1.7,8.9,4.1,12.3,7.2c3.5,3.1,6.1,7,8.1,11.5
			c1.9,4.5,2.9,9.7,2.9,15.4c0,4.8-0.8,9.3-2.5,13.5c-1.7,4.2-3.9,8.1-6.7,11.9c-2.8,3.8-6.1,7.4-9.8,10.8
			c-3.7,3.5-7.6,6.8-11.7,10.1c-4.1,3.3-8.2,6.5-12.4,9.6c-4.2,3.2-8.2,6.4-12,9.6c-3.8,3.3-7.3,6.6-10.4,10
			c-3.2,3.4-5.7,6.9-7.8,10.6c2.2-0.6,4.3-1,6.3-1.2s3.9-0.3,6-0.3c3.3,0,6.5,0.2,9.5,0.7c3,0.5,5.9,1,8.7,1.6
			c2.8,0.6,5.5,1.1,8,1.6c2.5,0.5,4.9,0.7,7.2,0.7c3.4,0,6.6-0.7,9.7-2.2c3.1-1.5,6.4-4.1,9.8-8l0.6,0.4c1.7,4.7,2.5,8.8,2.5,12.4
			c0,3.6-0.7,7-2.2,9.9c-1.5,3-3.4,5.5-5.9,7.6c-2.5,2.1-5.3,3.8-8.5,4.9c-3.2,1.2-6.6,1.8-10.1,1.8c-3.2,0-6.4-0.4-9.7-1.3
			c-3.3-0.8-6.6-1.8-10-2.7c-3.4-1-6.9-1.9-10.4-2.7c-3.5-0.8-7.2-1.3-10.9-1.3c-3.5,0-7,0.4-10.6,1.3c-3.6,0.8-7.5,2.3-11.6,4.5
			H8.7c-0.8-3.2-1.2-6.3-1.2-9.4c0.1-4.7,1.1-9.2,3-13.6c1.9-4.4,4.5-8.6,7.6-12.7c3.2-4.1,6.7-8.2,10.7-12.2c4-4,8.1-8,12.2-12.1
			c4.1-4,8.2-8.1,12.2-12.3c4-4.2,7.6-8.5,10.7-12.9c3.1-4.5,5.6-9.1,7.5-13.9c1.9-4.8,2.8-9.9,2.8-15.3c0-3.6-0.3-6.9-0.8-9.9
			c-0.6-3-1.4-5.6-2.7-7.8c-1.2-2.2-2.8-3.9-4.7-5.1c-1.9-1.2-4.1-1.9-6.7-1.9c-2.3,0-4.5,0.4-6.4,1.3c-2,0.8-3.6,2-5,3.5
			c-1.4,1.5-2.4,3.2-3.2,5.2c-0.8,2-1.2,4.1-1.2,6.3c0,4.9,0.9,9,2.8,12.5c1.9,3.4,4.1,5.9,6.7,7.5v0.8c-2.3,2.1-4.8,3.7-7.4,4.9
			c-2.7,1.2-5.2,1.8-7.7,1.8c-2,0-3.8-0.5-5.6-1.4c-1.8-0.9-3.3-2.2-4.6-4c-1.3-1.8-2.3-3.9-3.1-6.5c-0.8-2.6-1.2-5.5-1.2-8.8
			c0-4,0.9-8,2.7-12.1c1.8-4.1,4.5-7.7,8-11c3.5-3.3,7.9-6,13.1-8C52.6,8.5,58.7,7.5,65.5,7.5 M65.5,0c-7.7,0-14.8,1.2-20.8,3.6
			C38.6,6,33.3,9.2,29.1,13.1c-4.2,4-7.5,8.5-9.7,13.4c-2.2,5-3.4,10.1-3.4,15.1c0,4,0.5,7.7,1.5,11c1,3.4,2.5,6.3,4.3,8.8
			c2,2.7,4.4,4.8,7.2,6.2c2.8,1.5,5.9,2.2,9,2.2c3.5,0,7.2-0.8,10.8-2.5c3.4-1.5,6.5-3.6,9.4-6.2l2.4-2.2v-3.3v-0.8v-4.2l-3.6-2.2
			c-1.4-0.9-2.8-2.4-4-4.7c-1.3-2.3-1.9-5.3-1.9-8.8c0-1.3,0.2-2.4,0.7-3.6c0.4-1.1,1-2,1.7-2.8c0.7-0.7,1.5-1.3,2.5-1.7
			c1-0.4,2.1-0.7,3.5-0.7c1.1,0,2,0.2,2.6,0.6c0.9,0.6,1.6,1.4,2.3,2.6c0.8,1.4,1.4,3.3,1.8,5.5c0.5,2.6,0.7,5.5,0.7,8.6
			c0,4.4-0.8,8.7-2.3,12.6c-1.7,4.2-3.9,8.4-6.7,12.4c-2.9,4.1-6.2,8.2-10,12c-3.9,4.1-8,8.2-12,12.1c-4.2,4.1-8.3,8.1-12.3,12.1
			c-4.2,4.2-8,8.5-11.4,12.9c-3.5,4.6-6.4,9.4-8.5,14.2c-2.3,5.3-3.5,10.8-3.6,16.5l0,0.1v0.1c0,3.6,0.5,7.4,1.4,11.2l1.4,5.7h5.9
			h0.8h1.8l1.6-0.9c3.5-1.8,6.8-3.1,9.8-3.8c3-0.7,6-1.1,8.9-1.1c3.1,0,6.2,0.4,9.2,1.1c3.4,0.8,6.8,1.7,10.1,2.6
			c3.4,1,6.8,1.9,10.2,2.8c3.9,1,7.7,1.5,11.6,1.5c4.4,0,8.6-0.7,12.7-2.2c4.1-1.5,7.7-3.6,10.9-6.3c3.2-2.8,5.8-6.1,7.8-10
			c2-4,3-8.4,3-13.2c0-4.5-1-9.4-3-14.9l-0.8-2.3l-2.1-1.4l-0.6-0.4l-5.4-3.6l-4.3,4.8c-3.4,3.8-6,5.5-7.4,6.2
			c-2.1,1-4.2,1.5-6.5,1.5c-1.8,0-3.8-0.2-5.8-0.6c-2.4-0.4-5-0.9-7.8-1.5c-2.9-0.6-6-1.2-9.2-1.6c-2.1-0.3-4.2-0.5-6.4-0.6
			c2.1-2.1,4.3-4.1,6.6-6.1c3.7-3.1,7.6-6.3,11.6-9.3c4.2-3.2,8.5-6.5,12.6-9.8c4.2-3.4,8.3-6.9,12.1-10.4c4-3.7,7.6-7.7,10.7-11.8
			c3.2-4.3,5.8-8.9,7.7-13.6c2-5,3-10.5,3-16.2c0-6.7-1.2-12.9-3.5-18.3c-2.3-5.5-5.7-10.3-9.9-14.1c-4.2-3.8-9.2-6.7-14.9-8.7
			C78.1,1,72,0,65.5,0L65.5,0z"/>
	</g>
</g>
</svg>
