<?xml version="1.0" encoding="utf-8"?>
<!-- Generator: Adobe Illustrator 19.0.0, SVG Export Plug-In . SVG Version: 6.00 Build 0)  -->
<svg version="1.1" id="Camada_1" xmlns="http://www.w3.org/2000/svg" xmlns:xlink="http://www.w3.org/1999/xlink" x="0px" y="0px"
	 viewBox="0 0 113.4 165.8" enable-background="new 0 0 113.4 165.8" xml:space="preserve">
<g id="XMLID_752_">
	<g id="XMLID_753_">
		<path id="XMLID_49_" fill="#FFFFFF" d="M47.3,162c-2.1,0-4.5-0.1-7.3-0.4c-2.9-0.3-6-0.9-9.1-1.7c-3.2-0.9-6.4-2.1-9.5-3.8
			c-3.3-1.7-6.2-4-8.8-6.8c-2.6-2.8-4.8-6.4-6.4-10.5c-1.6-4.1-2.4-9-2.4-14.6c0-4.5,0.6-8.7,1.7-12.6c1.1-4,2.9-7.5,5.3-10.4
			c2.4-3,5.4-5.3,8.9-6.9c3.5-1.6,7.6-2.5,12.1-2.5c2,0,4.1,0.2,6,0.6c2.2,0.4,4.1,1.1,5.9,2.2c1.8,1.1,3.3,2.4,4.6,4.1
			c1.4,1.8,2.3,3.9,2.8,6.4l0.8,4.2l-4.3,0.3c-3.2,0.2-5.7,0.9-7.4,2.1c-1.8,1.2-3.2,2.6-4.2,4.2c-1,1.7-1.7,3.6-2,5.5
			c-0.4,2.2-0.5,4.2-0.5,6c0,2.5,0.4,4.6,1.1,6.4c0.7,1.8,1.7,3.3,2.9,4.4c1.2,1.2,2.6,2,4.1,2.6c1.6,0.6,3.4,0.9,5.2,0.9
			c2.5,0,5-0.6,7.6-1.7c2.6-1.1,4.9-2.9,7.1-5.4c2.2-2.5,4-5.6,5.4-9.5c1.4-3.8,2.1-8.5,2.1-13.9c0-3.4-0.5-6.9-1.4-10.4
			c-0.9-3.4-2.4-6.7-4.3-9.8c-1.9-3-4.4-5.8-7.5-8.3c-3-2.4-6.6-4.4-10.8-5.8l-11.3-3.8l11.4-3.3c5.2-1.5,9.8-3.6,13.7-6.3
			c3.9-2.7,7.3-5.8,9.9-9.1c2.6-3.3,4.6-6.7,5.9-10.2c1.3-3.4,2-6.7,2-9.8c0-2-0.3-3.8-0.8-5.4c-0.5-1.5-1.1-2.8-2.1-3.9
			c-0.9-1-2-1.8-3.4-2.4c-1.4-0.6-3.2-0.9-5.2-0.9c-1.9,0-3.7,0.3-5.2,0.9c-1.5,0.6-2.7,1.3-3.7,2.3c-1,1-1.7,2.1-2.3,3.6
			c-0.6,1.5-0.9,3.2-0.9,5c0,1.1,0.1,2.4,0.3,3.7c0.2,1.2,0.5,2.3,1,3.3c0.4,1,1,1.8,1.7,2.6c0.5,0.6,1.1,0.9,1.8,1.1l6.4,1.8
			l-4.9,4.5c-2.8,2.6-5.7,4.5-8.7,5.8c-3.1,1.3-6.1,2-9.1,2c-2.5,0-4.8-0.5-7-1.4c-2.2-1-4.2-2.4-5.9-4.2c-1.6-1.8-2.9-4-3.8-6.6
			c-0.9-2.5-1.3-5.4-1.3-8.5c0-5.2,1.3-10,3.7-14.3c2.4-4.2,5.7-7.8,9.8-10.7c4-2.9,8.8-5.2,14.3-6.8c5.4-1.6,11.2-2.3,17.3-2.3
			c6.5,0,12.3,0.9,17.4,2.6c5.1,1.7,9.4,4.2,12.9,7.2c3.5,3.1,6.2,6.6,8,10.6c1.8,4,2.7,8.2,2.7,12.6c0,3.7-0.6,7.5-1.9,11.3
			c-1.3,3.8-3.1,7.4-5.6,10.9c-2.4,3.5-5.5,6.8-9.2,9.9c-1.8,1.6-3.9,3.1-6,4.5c1.8,0.9,3.5,2,5.1,3.1c3.5,2.5,6.4,5.4,8.7,8.6
			c2.3,3.2,4,6.7,5.1,10.5c1.1,3.7,1.6,7.5,1.6,11.4c0,4.4-0.7,8.8-2,13.3c-1.3,4.4-3.2,8.7-5.6,12.7c-2.4,4-5.4,7.9-8.9,11.4
			c-3.5,3.5-7.5,6.7-11.9,9.3c-4.4,2.6-9.4,4.7-14.7,6.2C59,161.3,53.3,162,47.3,162z"/>
		<path id="XMLID_45_" fill="#8D563E" d="M68.7,7.5c6.1,0,11.5,0.8,16.2,2.4c4.7,1.6,8.5,3.7,11.7,6.4c3.1,2.7,5.5,5.8,7,9.3
			c1.6,3.5,2.3,7.2,2.3,11c0,3.3-0.6,6.7-1.7,10.1c-1.1,3.4-2.8,6.7-5.1,10C96.8,60,94,63.1,90.5,66s-7.4,5.6-12.1,7.9
			c4.4,1.4,8.2,3.3,11.4,5.6c3.2,2.3,5.8,4.9,7.8,7.7c2.1,2.9,3.6,6,4.5,9.3c1,3.4,1.5,6.8,1.5,10.4c0,4-0.6,8.1-1.8,12.2
			c-1.2,4.1-2.9,8.1-5.2,11.9c-2.3,3.8-5.1,7.4-8.3,10.7c-3.3,3.3-7,6.2-11.2,8.7c-4.2,2.5-8.8,4.4-13.8,5.8c-5,1.4-10.4,2.1-16,2.1
			c-2,0-4.3-0.1-7-0.4c-2.7-0.3-5.5-0.8-8.5-1.6c-3-0.8-5.9-2-8.8-3.5c-2.9-1.5-5.5-3.5-7.8-6c-2.3-2.5-4.2-5.6-5.6-9.3
			c-1.4-3.7-2.1-8.1-2.1-13.2c0-4.2,0.5-8,1.5-11.5c1-3.5,2.5-6.5,4.6-9.1c2.1-2.5,4.6-4.5,7.6-5.9c3-1.4,6.5-2.1,10.5-2.1
			c1.8,0,3.6,0.2,5.3,0.5c1.7,0.3,3.3,0.9,4.6,1.7c1.4,0.8,2.6,1.9,3.6,3.2c1,1.3,1.7,2.9,2.1,4.9c-3.8,0.3-6.9,1.2-9.2,2.7
			c-2.3,1.5-4.1,3.4-5.3,5.5c-1.2,2.1-2.1,4.4-2.4,6.8c-0.4,2.4-0.6,4.6-0.6,6.6c0,3,0.5,5.6,1.4,7.9c0.9,2.2,2.2,4.1,3.8,5.7
			c1.6,1.5,3.4,2.7,5.4,3.5c2.1,0.8,4.2,1.2,6.5,1.2c3,0,6-0.7,9.1-2.1c3.1-1.4,5.8-3.5,8.3-6.3c2.5-2.8,4.5-6.4,6.1-10.6
			c1.6-4.3,2.3-9.3,2.3-15.2c0-3.8-0.5-7.6-1.6-11.4c-1-3.8-2.6-7.4-4.8-10.8c-2.1-3.4-4.9-6.4-8.3-9.2c-3.4-2.7-7.3-4.9-12-6.4
			c5.6-1.6,10.5-3.9,14.8-6.8c4.3-2.9,7.8-6.2,10.7-9.8c2.9-3.6,5-7.4,6.5-11.2c1.5-3.9,2.2-7.6,2.2-11.1c0-2.3-0.3-4.5-0.9-6.5
			c-0.6-2-1.6-3.8-2.8-5.2c-1.3-1.5-2.9-2.6-4.8-3.4c-1.9-0.8-4.2-1.2-6.7-1.2c-2.4,0-4.6,0.4-6.5,1.1c-2,0.7-3.6,1.8-5,3.1
			c-1.4,1.3-2.4,3-3.2,4.9c-0.7,1.9-1.1,4.1-1.1,6.4c0,1.4,0.1,2.8,0.4,4.3c0.3,1.5,0.7,2.9,1.3,4.2c0.6,1.3,1.4,2.5,2.4,3.6
			c1,1,2.1,1.8,3.5,2.1c-2.5,2.3-5,4-7.6,5.1c-2.6,1.1-5.1,1.7-7.6,1.7c-2,0-3.8-0.4-5.6-1.1c-1.8-0.7-3.3-1.8-4.6-3.3
			c-1.3-1.4-2.3-3.2-3.1-5.3c-0.7-2.1-1.1-4.5-1.1-7.3c0-4.6,1.1-8.7,3.2-12.4c2.1-3.7,5.1-6.9,8.8-9.6c3.7-2.7,8.1-4.7,13.1-6.2
			C57.5,8.2,62.9,7.5,68.7,7.5 M68.7,0c-6.5,0-12.6,0.8-18.3,2.5c-5.8,1.7-11,4.2-15.4,7.3c-4.6,3.3-8.2,7.3-10.9,11.9
			c-2.8,4.8-4.2,10.3-4.2,16.2c0,3.6,0.5,6.9,1.6,9.8c1.1,3,2.6,5.7,4.6,7.9c2,2.2,4.4,4,7.2,5.1c2.7,1.1,5.5,1.7,8.5,1.7
			c3.5,0,7-0.8,10.5-2.3c3.4-1.4,6.7-3.6,9.8-6.5l7.6-7c-1,2-2.3,3.9-3.8,5.8c-2.4,3-5.4,5.8-9.1,8.3c-3.6,2.5-7.8,4.4-12.6,5.8
			l-22.9,6.7l22.6,7.6c3.7,1.3,7,3,9.6,5.2c2.7,2.2,5,4.7,6.7,7.4c1.7,2.7,3,5.7,3.9,8.8c0.9,3.1,1.3,6.3,1.3,9.4
			c0,5-0.6,9.2-1.9,12.6c-1.2,3.4-2.8,6.1-4.7,8.3c-1.8,2-3.7,3.5-5.8,4.4c-2.1,0.9-4.1,1.4-6,1.4c-1.4,0-2.6-0.2-3.8-0.7
			c-1.1-0.4-2-1-2.8-1.8c-0.9-0.8-1.5-1.9-2.1-3.2c-0.6-1.3-0.8-3-0.8-5c0-1.6,0.2-3.4,0.5-5.4c0.2-1.5,0.7-2.9,1.5-4.2
			c0.7-1.1,1.6-2.1,3-3c0.8-0.5,2.5-1.2,5.6-1.5l8.5-0.6l-1.7-8.4c-0.6-3.1-1.8-5.8-3.5-8c-1.6-2-3.5-3.7-5.7-5
			c-2.1-1.3-4.5-2.1-7.1-2.6c-2.2-0.4-4.4-0.6-6.7-0.6c-5.1,0-9.7,0.9-13.7,2.8c-4,1.9-7.5,4.6-10.2,8c-2.7,3.3-4.7,7.3-6,11.7
			c-1.2,4.2-1.8,8.7-1.8,13.6c0,6.1,0.9,11.4,2.7,16c1.8,4.5,4.2,8.5,7.1,11.6c2.9,3.1,6.2,5.7,9.9,7.6c3.3,1.7,6.8,3.1,10.2,4
			c3.3,0.9,6.6,1.5,9.8,1.8c3,0.3,5.5,0.4,7.7,0.4c6.3,0,12.4-0.8,18-2.4c5.6-1.6,10.9-3.8,15.6-6.6c4.7-2.8,9-6.1,12.7-9.9
			c3.7-3.7,6.9-7.8,9.5-12.1c2.6-4.3,4.6-8.9,6-13.6c1.4-4.8,2.1-9.6,2.1-14.3c0-4.3-0.6-8.5-1.8-12.5c-1.2-4.1-3.1-8-5.6-11.6
			c-2.5-3.5-5.7-6.7-9.5-9.4c-0.2-0.1-0.3-0.2-0.5-0.3c0.6-0.5,1.1-0.9,1.7-1.4c3.9-3.3,7.2-6.9,9.8-10.6c2.7-3.8,4.8-7.8,6.1-11.9
			c1.4-4.2,2.1-8.4,2.1-12.5c0-4.9-1-9.6-3-14.1c-2-4.5-5-8.5-9-11.9c-3.8-3.3-8.6-6-14.1-7.9C81.9,0.9,75.6,0,68.7,0L68.7,0z
			 M70.7,44.3L59,40.9c0,0-0.1,0-0.1,0c0,0,0,0-0.1,0c-0.4-0.5-0.8-1-1.1-1.6c-0.3-0.7-0.6-1.5-0.7-2.4c-0.2-1.1-0.3-2.1-0.3-3
			c0-1.4,0.2-2.6,0.6-3.7c0.4-0.9,0.8-1.7,1.4-2.2c0.6-0.6,1.4-1.1,2.4-1.5c1.1-0.4,2.4-0.6,3.9-0.6c1.5,0,2.8,0.2,3.8,0.6
			c0.9,0.4,1.5,0.8,2,1.4c0.6,0.7,1,1.5,1.3,2.5c0.4,1.3,0.6,2.8,0.6,4.3c0,2.6-0.6,5.4-1.7,8.4C71,43.5,70.9,43.9,70.7,44.3
			L70.7,44.3z"/>
	</g>
</g>
</svg>
