<?xml version="1.0" encoding="utf-8"?>
<!-- Generator: Adobe Illustrator 19.0.0, SVG Export Plug-In . SVG Version: 6.00 Build 0)  -->
<svg version="1.1" id="Camada_1" xmlns="http://www.w3.org/2000/svg" xmlns:xlink="http://www.w3.org/1999/xlink" x="0px" y="0px"
	 viewBox="-387.2 145.8 249.4 269.5" enable-background="new -387.2 145.8 249.4 269.5" xml:space="preserve">
<g>
	<g id="XMLID_1_">
		<g id="XMLID_3_">
			<g>
				<g id="XMLID_13_">
					<g>
						<g>
						</g>
					</g>
				</g>
				<g id="XMLID_12_">
					<g>
						<g>
						</g>
					</g>
				</g>
			</g>
			<g>
				<g id="XMLID_11_" display="none">
					<g display="inline">
						<g enable-background="new    ">
							<g>
								<path d="M-217.6,157l15.3,8.3c-17.1-9.3-37.3-13.2-59-10.1l-15.3-8.3C-254.9,143.8-234.6,147.7-217.6,157z"/>
							</g>
							<g>
								<path d="M-320.7,383.5l-15.3-8.3c-30.9-16.8-51.3-51.2-51.2-93.6c0.1-65.9,49.7-126.2,110.7-134.8l15.3,8.3
									c-61,8.6-110.6,68.9-110.7,134.8C-372,332.4-351.6,366.6-320.7,383.5z"/>
							</g>
							<g>
								<path d="M-261.2,155.2c61-8.6,110.4,37.9,110.3,103.7c-0.1,65.9-49.7,126.2-110.7,134.8c-61,8.6-110.4-37.9-110.3-103.7
									S-322.2,163.8-261.2,155.2z"/>
							</g>
						</g>
					</g>
				</g>
				<g id="XMLID_10_">
					<g>
						<g enable-background="new    ">
							<g>
								<path id="dropsback1_1_" fill="#F191E2" d="M-218.6,159.2l15,8.2c-16.7-9.1-36.6-12.9-57.9-9.9l-15-8.2
									C-255.1,146.3-235.3,150.1-218.6,159.2z"/>
							</g>
							<g>
								<path id="dropsback2_1_" fill="#F191E2" d="M-319.7,381.3l-15-8.2c-30.3-16.5-50.3-50.1-50.2-91.7
									c0.1-64.6,48.7-123.7,108.5-132.1l15,8.2c-59.8,8.4-108.4,67.6-108.5,132.1C-370,331.1-349.9,364.8-319.7,381.3z"/>
							</g>
							<g>
								<path id="dropsback3_1_" fill="#F191E2" d="M-261.4,157.4c59.8-8.4,108.2,37.1,108.1,101.7
									c-0.1,64.6-48.7,123.7-108.5,132.1S-370,354.1-369.9,289.5C-369.8,225-321.2,165.8-261.4,157.4z"/>
							</g>
						</g>
					</g>
				</g>
				<g id="XMLID_9_">
					<g>
						<g enable-background="new    ">
							<g>
								<path id="dropsback4_1_" fill="#F191E2" d="M-218.6,159.2l15,8.2c-16.7-9.1-36.6-12.9-57.9-9.9l-15-8.2
									C-255.1,146.3-235.3,150.1-218.6,159.2z"/>
							</g>
							<g>
								<path id="dropsback5_1_" fill="#F191E2" d="M-319.7,381.3l-15-8.2c-30.3-16.5-50.3-50.1-50.2-91.7
									c0.1-64.6,48.7-123.7,108.5-132.1l15,8.2c-59.8,8.4-108.4,67.6-108.5,132.1C-370,331.1-349.9,364.8-319.7,381.3z"/>
							</g>
							<g>
								<path id="dropsback6_1_" fill="#F191E2" d="M-261.4,157.4c59.8-8.4,108.2,37.1,108.1,101.7
									c-0.1,64.6-48.7,123.7-108.5,132.1S-370,354.1-369.9,289.5C-369.8,225-321.2,165.8-261.4,157.4z"/>
							</g>
						</g>
					</g>
				</g>
				<g id="XMLID_8_" display="none">
					<g display="inline">
						<g enable-background="new    ">
							<g>
								<defs>
									<polygon id="SVGID_1_" points="-359.2,415.3 -358.7,176.8 -137.8,145.8 -138.2,384.3 									"/>
								</defs>
								<clipPath id="SVGID_2_">
									<use xlink:href="#SVGID_1_"  overflow="visible"/>
								</clipPath>
								<g clip-path="url(#SVGID_2_)">
									<g>
										<g>
											<g>
												<path d="M-248.3,161.3c-61,8.6-110.6,68.9-110.7,134.8s49.2,112.3,110.3,103.7c61-8.6,110.6-68.9,110.7-134.8
													S-187.2,152.7-248.3,161.3"/>
											</g>
										</g>
									</g>
								</g>
							</g>
						</g>
					</g>
				</g>
				<g id="XMLID_7_">
					<g>
						<g enable-background="new    ">
							<g>
								<path id="dropsback7_1_" fill="#F191E2" d="M-218.6,159.2l15,8.2c-16.7-9.1-36.6-12.9-57.9-9.9l-15-8.2
									C-255.1,146.3-235.3,150.1-218.6,159.2z"/>
							</g>
							<g>
								<path id="dropsback8_1_" fill="#F191E2" d="M-319.7,381.3l-15-8.2c-30.3-16.5-50.3-50.1-50.2-91.7
									c0.1-64.6,48.7-123.7,108.5-132.1l15,8.2c-59.8,8.4-108.4,67.6-108.5,132.1C-370,331.1-349.9,364.8-319.7,381.3z"/>
							</g>
							<g>
								<path id="dropsback9_1_" fill="#F191E2" d="M-261.4,157.4c59.8-8.4,108.2,37.1,108.1,101.7
									c-0.1,64.6-48.7,123.7-108.5,132.1S-370,354.1-369.9,289.5C-369.8,225-321.2,165.8-261.4,157.4z"/>
							</g>
						</g>
					</g>
				</g>
				<g id="XMLID_6_">
					<g>
						<g enable-background="new    ">
							<g>
								<defs>
									<polygon id="SVGID_3_" points="-357,412.6 -356.6,178.9 -140,148.4 -140.4,382.1 									"/>
								</defs>
								<clipPath id="SVGID_4_">
									<use xlink:href="#SVGID_3_"  overflow="visible"/>
								</clipPath>
								<g clip-path="url(#SVGID_4_)">
									<g>
										<g>
											<g>
												<path id="dropsface_1_" fill="#FFA0F8" d="M-248.3,163.7c-59.8,8.4-108.4,67.6-108.5,132.1
													c-0.1,64.6,48.3,110.1,108.1,101.7s108.4-67.6,108.5-132.2C-140.1,200.8-188.5,155.3-248.3,163.7"/>
											</g>
										</g>
									</g>
								</g>
							</g>
						</g>
					</g>
				</g>
			</g>
			<g>
				<g id="XMLID_5_">
					<g>
						<g>
						</g>
					</g>
				</g>
				<g id="XMLID_4_">
					<g>
						<g>
						</g>
					</g>
				</g>
			</g>
		</g>
		<g id="XMLID_2_">
			<g>
				<g enable-background="new    ">
					<g>
						<defs>
							<polygon id="SVGID_5_" points="-310.1,312.8 -310.1,280.8 -186.8,263.5 -186.9,295.4 							"/>
						</defs>
						<clipPath id="SVGID_6_">
							<use xlink:href="#SVGID_5_"  overflow="visible"/>
						</clipPath>
						<g clip-path="url(#SVGID_6_)">
							<g>
								<g>
									<g>
										<path fill="#FF9596" d="M-292.5,302.6l-14.1,2c-1.9,0.3-3.5,2.2-3.5,4.3c0,2.1,1.6,3.6,3.5,3.3l14.1-2
											c1.9-0.3,3.5-2.2,3.5-4.3C-288.9,303.9-290.5,302.4-292.5,302.6"/>
										<path fill="#FF9596" d="M-190.4,288.3l-14.1,2c-1.9,0.3-3.5,2.2-3.5,4.3c0,2.1,1.6,3.6,3.5,3.3l14.1-2
											c1.9-0.3,3.5-2.2,3.5-4.3C-186.9,289.6-188.5,288.1-190.4,288.3"/>
										<path d="M-299.5,279.3c-3.7,0.5-6.6,4.1-6.6,8.1c0,3.9,3,6.7,6.6,6.2s6.6-4.1,6.6-8.1
											C-292.9,281.6-295.8,278.8-299.5,279.3"/>
										<path d="M-231.9,280.3c-1.9,0.3-3.5,2.2-3.5,4.3c0,2.8-2.1,5.4-4.8,5.8c-2.6,0.4-4.8-1.6-4.8-4.5c0-2.1-1.6-3.6-3.5-3.3
											c-1.9,0.3-3.5,2.2-3.5,4.3c0,2.8-2.1,5.4-4.8,5.8c-2.6,0.4-4.8-1.6-4.8-4.5c0-2.1-1.6-3.6-3.5-3.3
											c-1.9,0.3-3.5,2.2-3.5,4.3c0,7,5.3,12,11.8,11.1c3.2-0.5,6.1-2.3,8.3-4.8c2.1,2,5.1,3,8.3,2.5c6.5-0.9,11.8-7.4,11.8-14.4
											C-228.4,281.5-230,280-231.9,280.3"/>
										<path d="M-197.4,265c-3.7,0.5-6.6,4.1-6.6,8.1s2.9,6.7,6.6,6.2c3.7-0.5,6.6-4.1,6.6-8.1
											C-190.8,267.3-193.8,264.5-197.4,265"/>
									</g>
								</g>
							</g>
						</g>
					</g>
				</g>
			</g>
		</g>
	</g>
</g>
</svg>
