<?xml version="1.0" encoding="utf-8"?>
<!-- Generator: Adobe Illustrator 19.0.0, SVG Export Plug-In . SVG Version: 6.00 Build 0)  -->
<svg version="1.1" id="Camada_1" xmlns="http://www.w3.org/2000/svg" xmlns:xlink="http://www.w3.org/1999/xlink" x="0px" y="0px"
	 viewBox="-382.9 145.8 249.4 269.5" enable-background="new -382.9 145.8 249.4 269.5" xml:space="preserve">
<g>
	<g id="XMLID_1_">
		<g id="XMLID_3_">
			<g>
				<g id="XMLID_13_">
					<g>
						<g>
						</g>
					</g>
				</g>
				<g id="XMLID_12_">
					<g>
						<g>
						</g>
					</g>
				</g>
			</g>
			<g>
				<g id="XMLID_11_" display="none">
					<g display="inline">
						<g enable-background="new    ">
							<g>
								<path d="M-244.1,146.9l-15.3,8.3c-21.7-3.1-41.9,0.8-59,10.1l15.3-8.3C-286.1,147.7-265.8,143.8-244.1,146.9z"/>
							</g>
							<g>
								<path d="M-148.8,289.9c-0.1-65.9-49.7-126.2-110.7-134.8l15.3-8.3c61,8.6,110.6,68.9,110.7,134.8
									c0.1,42.4-20.3,76.8-51.2,93.6l-15.3,8.3C-169.1,366.6-148.7,332.4-148.8,289.9z"/>
							</g>
							<g>
								<path d="M-148.8,289.9c0.1,65.8-49.3,112.3-110.3,103.7c-61-8.6-110.6-68.9-110.7-134.8c-0.1-65.8,49.3-112.3,110.3-103.7
									C-198.5,163.8-148.9,224.1-148.8,289.9z"/>
							</g>
						</g>
					</g>
				</g>
				<g id="XMLID_10_">
					<g>
						<g enable-background="new    ">
							<g>
								<path id="dropsback1_1_" fill="#FBC02D" d="M-244.2,149.3l-15,8.2c-21.3-3-41.2,0.8-57.9,9.9l15-8.2
									C-285.4,150.1-265.6,146.3-244.2,149.3z"/>
							</g>
							<g>
								<path id="dropsback2_1_" fill="#FBC02D" d="M-150.8,289.6c-0.1-64.5-48.7-123.7-108.5-132.1l15-8.2
									c59.8,8.4,108.4,67.5,108.5,132.1c0.1,41.6-19.9,75.2-50.2,91.7l-15,8.2C-170.8,364.8-150.7,331.1-150.8,289.6z"/>
							</g>
							<g>
								<path id="dropsback3_1_" fill="#FBC02D" d="M-150.8,289.5c0.1,64.6-48.3,110.1-108.1,101.7s-108.4-67.5-108.5-132.1
									s48.3-110.1,108.1-101.7S-150.9,225-150.8,289.5z"/>
							</g>
						</g>
					</g>
				</g>
				<g id="XMLID_9_">
					<g>
						<g enable-background="new    ">
							<g>
								<path id="dropsback4_1_" fill="#FBC02D" d="M-244.2,149.3l-15,8.2c-21.3-3-41.2,0.8-57.9,9.9l15-8.2
									C-285.4,150.1-265.6,146.3-244.2,149.3z"/>
							</g>
							<g>
								<path id="dropsback5_1_" fill="#FBC02D" d="M-150.8,289.6c-0.1-64.5-48.7-123.7-108.5-132.1l15-8.2
									c59.8,8.4,108.4,67.5,108.5,132.1c0.1,41.6-19.9,75.2-50.2,91.7l-15,8.2C-170.8,364.8-150.7,331.1-150.8,289.6z"/>
							</g>
							<g>
								<path id="dropsback6_1_" fill="#FBC02D" d="M-150.8,289.5c0.1,64.6-48.3,110.1-108.1,101.7s-108.4-67.5-108.5-132.1
									s48.3-110.1,108.1-101.7S-150.9,225-150.8,289.5z"/>
							</g>
						</g>
					</g>
				</g>
				<g id="XMLID_8_" display="none">
					<g display="inline">
						<g enable-background="new    ">
							<g>
								<defs>
									<polygon id="SVGID_1_" points="-382.5,384.3 -382.9,145.8 -162,176.8 -161.5,415.3 									"/>
								</defs>
								<clipPath id="SVGID_2_">
									<use xlink:href="#SVGID_1_"  overflow="visible"/>
								</clipPath>
								<g clip-path="url(#SVGID_2_)">
									<g>
										<g>
											<g>
												<path d="M-272.4,161.3c-61.1-8.6-110.4,37.8-110.3,103.7S-333,391.2-272,399.8c61.1,8.6,110.4-37.8,110.3-103.7
													S-211.4,169.9-272.4,161.3"/>
											</g>
										</g>
									</g>
								</g>
							</g>
						</g>
					</g>
				</g>
				<g id="XMLID_7_">
					<g>
						<g enable-background="new    ">
							<g>
								<path id="dropsback7_1_" fill="#FBC02D" d="M-244.2,149.3l-15,8.2c-21.3-3-41.2,0.8-57.9,9.9l15-8.2
									C-285.4,150.1-265.6,146.3-244.2,149.3z"/>
							</g>
							<g>
								<path id="dropsback8_1_" fill="#FBC02D" d="M-150.8,289.6c-0.1-64.5-48.7-123.7-108.5-132.1l15-8.2
									c59.8,8.4,108.4,67.5,108.5,132.1c0.1,41.6-19.9,75.2-50.2,91.7l-15,8.2C-170.8,364.8-150.7,331.1-150.8,289.6z"/>
							</g>
							<g>
								<path id="dropsback9_1_" fill="#FBC02D" d="M-150.8,289.5c0.1,64.6-48.3,110.1-108.1,101.7s-108.4-67.5-108.5-132.1
									s48.3-110.1,108.1-101.7S-150.9,225-150.8,289.5z"/>
							</g>
						</g>
					</g>
				</g>
				<g id="XMLID_6_">
					<g>
						<g enable-background="new    ">
							<g>
								<defs>
									<polygon id="SVGID_3_" points="-380.3,382.1 -380.7,148.4 -164.1,178.9 -163.7,412.6 									"/>
								</defs>
								<clipPath id="SVGID_4_">
									<use xlink:href="#SVGID_3_"  overflow="visible"/>
								</clipPath>
								<g clip-path="url(#SVGID_4_)">
									<g>
										<g>
											<g>
												<path id="dropsface_1_" fill="#FDD835" stroke="#FFF176" stroke-width="5.0231" stroke-miterlimit="10" d="
													M-272.4,163.7c-59.8-8.4-108.2,37.1-108.1,101.6c0.1,64.6,48.7,123.8,108.5,132.2s108.2-37.1,108.1-101.7
													C-164,231.3-212.6,172.1-272.4,163.7"/>
											</g>
										</g>
									</g>
								</g>
							</g>
						</g>
					</g>
				</g>
			</g>
			<g>
				<g id="XMLID_5_">
					<g>
						<g>
						</g>
					</g>
				</g>
				<g id="XMLID_4_">
					<g>
						<g>
						</g>
					</g>
				</g>
			</g>
		</g>
		<g id="XMLID_2_">
			<g>
				<g enable-background="new    ">
					<g>
						<defs>
							<polygon id="SVGID_5_" points="-333.8,295.4 -333.9,263.5 -210.6,280.8 -210.6,312.8 							"/>
						</defs>
						<clipPath id="SVGID_6_">
							<use xlink:href="#SVGID_5_"  overflow="visible"/>
						</clipPath>
						<g clip-path="url(#SVGID_6_)">
							<g>
								<g>
									<g>
										<path fill="#FF9596" d="M-228.2,302.6c-2-0.3-3.6,1.2-3.5,3.3c0,2.1,1.6,4,3.5,4.3l14.1,2c1.9,0.3,3.5-1.2,3.5-3.3
											c0-2.1-1.6-4-3.5-4.3L-228.2,302.6"/>
										<path fill="#FF9596" d="M-330.3,288.3c-1.9-0.2-3.5,1.3-3.5,3.3c0,2.1,1.6,4,3.5,4.3l14.1,2c1.9,0.3,3.5-1.2,3.5-3.3
											c0-2.1-1.6-4-3.5-4.3L-330.3,288.3"/>
										<path d="M-221.2,279.3c-3.7-0.5-6.6,2.3-6.6,6.2c0,4,3,7.6,6.6,8.1s6.6-2.3,6.6-6.2C-214.6,283.4-217.5,279.8-221.2,279.3
											"/>
										<path d="M-288.8,280.3c-1.9-0.3-3.5,1.2-3.5,3.3c0,7,5.3,13.5,11.8,14.4c3.2,0.5,6.2-0.5,8.3-2.5c2.2,2.5,5.1,4.3,8.3,4.8
											c6.5,0.9,11.8-4.1,11.8-11.1c0-2.1-1.6-4-3.5-4.3c-1.9-0.3-3.5,1.2-3.5,3.3c0,2.9-2.2,4.9-4.8,4.5c-2.7-0.4-4.8-3-4.8-5.8
											c0-2.1-1.6-4-3.5-4.3c-1.9-0.3-3.5,1.2-3.5,3.3c0,2.9-2.2,4.9-4.8,4.5c-2.7-0.4-4.8-3-4.8-5.8
											C-285.3,282.5-286.9,280.5-288.8,280.3"/>
										<path d="M-323.3,265c-3.6-0.5-6.6,2.3-6.6,6.2c0,4,2.9,7.6,6.6,8.1s6.6-2.2,6.6-6.2S-319.6,265.5-323.3,265"/>
									</g>
								</g>
							</g>
						</g>
					</g>
				</g>
			</g>
		</g>
	</g>
</g>
</svg>
