<?xml version="1.0" encoding="utf-8"?>
<!-- Generator: Adobe Illustrator 19.0.0, SVG Export Plug-In . SVG Version: 6.00 Build 0)  -->
<svg version="1.1" id="Camada_1" xmlns="http://www.w3.org/2000/svg" xmlns:xlink="http://www.w3.org/1999/xlink" x="0px" y="0px"
	 viewBox="0 0 1732 408.6" enable-background="new 0 0 1732 408.6" xml:space="preserve">
<g id="XMLID_64_">
	<g id="XMLID_78_">
		<path id="XMLID_69_" fill="#FFFFFF" d="M96.5,402.8c-10.3,0-19.9-1.4-28.4-4.2c-8.6-2.8-16.1-6.9-22.3-12.2
			c-6.3-5.3-11.2-11.8-14.7-19.2c-3.5-7.4-5.2-15.7-5.2-24.6c0-8.5,1.6-16.6,4.6-24c3.1-7.3,7.3-13.8,12.6-19.3
			c5.3-5.5,11.7-9.9,18.9-13.1c7.3-3.2,15.2-4.8,23.5-4.8c11.6,0,21.1,2.9,28.3,8.7c7.6,6.1,11.4,14.4,11.4,24.6
			c0,7.5-1.8,13.7-5.4,18.6l-4.6,6.2l-4.7-6.1c-1.9-2.5-4.4-4.4-7.6-5.8c-3.4-1.5-6.9-2.2-10.6-2.2c-3.3,0-6.2,0.5-8.8,1.6
			c-2.6,1.1-4.7,2.5-6.6,4.5c-1.9,2-3.3,4.3-4.3,7.1c-1.1,2.9-1.6,6.1-1.6,9.7c0,3.5,0.5,6.7,1.6,9.7c1,2.9,2.5,5.3,4.2,7.3
			c1.7,2,3.8,3.4,6.3,4.6c2.5,1.1,5.1,1.6,8.1,1.6c7.5,0,13.8-3.4,19.3-10.3c6.1-7.5,10.9-19.1,14.3-34.5l15.7-69.5
			c-4.7,4.1-9.8,7.6-15.3,10.5c-11,5.8-23.3,8.8-36.4,8.8c-12.7,0-24.3-2.6-34.6-7.7c-10.3-5.1-19.1-12.5-26.3-22
			c-7.1-9.3-12.7-20.7-16.5-33.8c-3.8-13-5.7-27.6-5.7-43.4c0-15.3,1.8-30.1,5.2-44.1c3.5-14,8.5-27.2,15-39.3
			c6.5-12.1,14.3-23.2,23.4-33c9.1-9.8,19.4-18.4,30.7-25.4c11.3-7,23.5-12.5,36.5-16.3c13-3.8,26.8-5.7,41.1-5.7
			c11.8,0,22.6,1.4,32.2,4c9.8,2.7,18.2,6.7,25.1,11.9c7.1,5.3,12.6,11.8,16.4,19.4c3.8,7.6,5.7,16.2,5.7,25.5
			c0,6.3-0.8,12.1-2.5,17.4c-1.7,5.3-4.1,10-7.2,13.9c-3.2,4-7.1,7.1-11.7,9.3c-4.5,2.2-9.5,3.3-14.8,3.3c-5.8,0-11.4-1.3-16.6-3.8
			c-5.3-2.5-9.7-6.3-13.2-11l-3.6-4.9l5-3.4c1.8-1.2,3.6-2.9,5.3-5.1c1.8-2.3,3.4-5,4.8-7.9c1.4-3,2.5-6.1,3.3-9.4
			c0.8-3.2,1.2-6.4,1.2-9.5c0-6.5-1.7-11.2-5.1-14.5c-3.5-3.3-8.8-5-15.9-5c-7,0-14.1,1.7-20.9,5c-7.1,3.4-13.9,8.2-20.3,14.3
			c-6.5,6.2-12.6,13.7-18.2,22.3C101,86.3,96,95.9,92,106.1c-4.1,10.2-7.3,21.3-9.6,32.8c-2.3,11.5-3.4,23.4-3.4,35.3
			c0,19,2.9,33.5,8.6,43c5.2,8.7,12.7,12.9,22.7,12.9c12.7,0,23.7-6.6,33.5-20.2c10.4-14.3,19-36.1,25.7-64.6l1.1-4.5l59,0.5
			l-30.8,141.3c-4.3,20.1-9.6,37.8-15.7,52.6c-6.2,15-13.5,27.6-21.7,37.5c-8.4,10.1-18.1,17.8-28.9,22.7
			C121.7,400.4,109.6,402.8,96.5,402.8z"/>
		<path id="XMLID_54_" fill="#8D563E" d="M157.6,11.5c11.3,0,21.5,1.3,30.7,3.8c9.1,2.5,16.9,6.2,23.2,10.9
			c6.4,4.8,11.3,10.5,14.6,17.4c3.4,6.8,5.1,14.5,5.1,22.9c0,5.7-0.8,10.9-2.2,15.6c-1.5,4.7-3.6,8.7-6.3,12
			c-2.7,3.3-5.9,5.9-9.7,7.7c-3.8,1.8-7.9,2.7-12.3,2.7c-5,0-9.6-1.1-14.1-3.2c-4.4-2.1-8.1-5.2-11.1-9.3c2.3-1.6,4.6-3.7,6.6-6.3
			c2.1-2.7,3.9-5.7,5.5-9c1.6-3.3,2.8-6.8,3.7-10.4c0.9-3.6,1.4-7.3,1.4-10.9c0-8.1-2.3-14.3-6.9-18.7c-4.6-4.4-11.2-6.5-19.8-6.5
			c-7.9,0-15.8,1.9-23.4,5.6c-7.7,3.7-14.9,8.8-21.8,15.3c-6.8,6.5-13.2,14.3-19,23.3c-5.9,9.1-10.9,18.9-15.1,29.5
			c-4.2,10.6-7.5,21.9-9.9,33.8c-2.3,11.9-3.5,24.1-3.5,36.4c0,20.2,3.2,35.5,9.5,46c6.3,10.5,15.5,15.7,27.6,15.7
			c14.6,0,27.3-7.5,38.2-22.6c10.9-15,19.8-37.3,26.7-66.7l47.3,0.4l-29.3,134.4c-4.3,19.9-9.4,37.1-15.4,51.7
			c-6,14.5-12.9,26.5-20.8,36c-7.9,9.5-16.8,16.5-26.9,21.1c-10,4.6-21.2,6.8-33.6,6.8c-9.8,0-18.6-1.3-26.6-3.9
			c-7.9-2.6-14.7-6.3-20.4-11.1c-5.7-4.8-10.1-10.6-13.2-17.3c-3.1-6.7-4.7-14.1-4.7-22.2c0-7.8,1.4-15.1,4.2-21.8
			c2.8-6.7,6.6-12.6,11.4-17.6c4.8-5,10.5-9,17.1-11.8c6.6-2.9,13.6-4.3,21.2-4.3c10.3,0,18.5,2.5,24.7,7.4c6.2,5,9.3,11.7,9.3,20.1
			c0,6.3-1.4,11.3-4.3,15.2c-2.5-3.3-5.8-5.8-9.9-7.6c-4.1-1.8-8.4-2.7-13-2.7c-4,0-7.7,0.7-11,2.1c-3.3,1.4-6.2,3.3-8.6,5.9
			c-2.4,2.5-4.3,5.6-5.6,9.1c-1.3,3.5-2,7.4-2,11.7c0,4.2,0.7,8,2,11.6c1.3,3.6,3.1,6.6,5.4,9.2c2.3,2.5,5,4.5,8.2,6
			c3.2,1.4,6.7,2.1,10.4,2.1c9.2,0,17.2-4.1,23.8-12.4c6.6-8.3,11.8-20.5,15.4-36.8l19.9-88.5h-1.6c-7.3,10-16,17.7-26.3,23.1
			c-10.2,5.4-21.5,8.1-33.7,8.1c-11.8,0-22.5-2.4-32-7.1c-9.5-4.8-17.6-11.5-24.3-20.3c-6.7-8.8-11.9-19.4-15.5-31.9
			c-3.6-12.5-5.5-26.4-5.5-41.8c0-14.8,1.7-29.1,5.1-42.7c3.4-13.6,8.2-26.3,14.5-38C37.3,77.1,44.8,66.5,53.6,57
			c8.8-9.5,18.6-17.6,29.5-24.4c10.9-6.8,22.6-12,35.1-15.6C130.7,13.3,143.8,11.5,157.6,11.5 M157.6,0c-14.8,0-29.2,2-42.7,5.9
			C101.5,9.9,88.7,15.5,77,22.8C65.3,30.1,54.6,39,45.2,49.2c-9.4,10.2-17.6,21.7-24.3,34.2C14.2,95.9,9,109.6,5.4,124.1
			C1.8,138.5,0,153.8,0,169.5c0,16.4,2,31.5,5.9,45c4,13.8,9.9,25.8,17.4,35.7c7.7,10.2,17.3,18.1,28.3,23.6c4.1,2.1,8.5,3.8,13,5.1
			c-1.7,0.6-3.3,1.2-4.9,1.9c-7.9,3.5-14.9,8.3-20.8,14.4c-5.8,6-10.4,13.1-13.8,21.1c-3.4,8.1-5.1,16.9-5.1,26.2
			c0,9.7,1.9,18.8,5.8,27c3.8,8.2,9.3,15.3,16.2,21.2c6.8,5.8,15,10.2,24.3,13.3c9.1,3,19.2,4.5,30.2,4.5c14,0,26.9-2.6,38.4-7.9
			c11.6-5.3,22-13.4,31-24.2c8.6-10.4,16.2-23.5,22.6-39c6.2-15.1,11.6-33.1,16-53.6l29.3-134.3l3-13.9l-14.2-0.1l-47.3-0.4
			l-9.2-0.1l-2.1,9c-6.5,27.8-14.9,48.9-24.8,62.6c-8.7,12-18.1,17.8-28.8,17.8c-8.1,0-13.5-3.1-17.8-10.1
			c-5.2-8.6-7.8-22.1-7.8-40.1c0-11.6,1.1-23.1,3.3-34.2c2.2-11.2,5.3-21.8,9.3-31.7c3.9-9.9,8.7-19.1,14.1-27.5
			c5.3-8.2,11.2-15.4,17.3-21.3c5.9-5.7,12.3-10.1,18.8-13.3c6.2-3,12.2-4.4,18.4-4.4c5.5,0,9.5,1.1,11.9,3.4
			c0.8,0.8,3.3,3.1,3.3,10.3c0,2.7-0.3,5.4-1,8.1c-0.7,2.9-1.7,5.7-3,8.3c-1.2,2.5-2.6,4.8-4.1,6.8c-1.3,1.7-2.6,3-3.9,3.8
			l-10.1,6.7l7.2,9.7c4.1,5.5,9.3,9.8,15.4,12.8c6,2.9,12.4,4.4,19.1,4.4c6.2,0,12-1.3,17.3-3.9c5.3-2.6,9.9-6.2,13.6-10.9
			c3.6-4.4,6.3-9.7,8.2-15.7c1.9-5.8,2.8-12.2,2.8-19.1c0-10.2-2.1-19.7-6.3-28.1c-4.2-8.4-10.3-15.7-18.1-21.5
			c-7.5-5.6-16.6-9.9-27-12.8C181.3,1.4,169.9,0,157.6,0L157.6,0z M108.4,280c6.8-1.6,13.3-4,19.5-7.3c1.2-0.6,2.4-1.3,3.6-2
			l-5.5,24.5c-2.2-3.7-5-6.9-8.6-9.8C114.7,283.3,111.7,281.5,108.4,280L108.4,280z M91.2,365.6c-2.2,0-4-0.4-5.7-1.1
			c-1.7-0.8-3.1-1.8-4.3-3.1c-1.3-1.5-2.3-3.2-3.1-5.4c-0.8-2.3-1.3-4.8-1.3-7.7c0-2.9,0.4-5.5,1.2-7.7c0.8-2.1,1.8-3.7,3.1-5.2
			c1.3-1.4,2.8-2.4,4.6-3.1c1.9-0.8,4.1-1.2,6.6-1.2c3,0,5.7,0.6,8.3,1.7c2.3,1,4.1,2.4,5.4,4.1l6.8,9c-2,4.7-4.3,8.6-6.8,11.7
			C100.2,364.8,94.8,365.6,91.2,365.6L91.2,365.6z"/>
	</g>
	<g id="XMLID_89_">
		<path id="XMLID_75_" fill="#FFFFFF" d="M382.2,322.4c-12.8,0-23.2-3.6-31-10.8c-5.1-4.7-8.9-10.9-11.3-18.4
			c-1.1,1.3-2.3,2.6-3.4,3.9c-4.2,4.7-8.9,8.9-14,12.6c-5.2,3.7-11.1,6.8-17.5,9.1c-6.5,2.4-13.8,3.6-21.6,3.6
			c-7.5,0-14.9-1.2-21.8-3.6c-7.2-2.5-13.7-6.7-19.2-12.4c-5.5-5.6-9.9-13-13.2-22c-3.2-8.8-4.8-19.6-4.8-32.1
			c0-9.4,0.9-19.6,2.8-30.3c1.9-10.7,4.8-21.6,8.7-32.2c3.9-10.7,8.8-21.1,14.6-31c5.9-10,12.9-18.9,20.9-26.6
			c8.1-7.8,17.3-14.1,27.5-18.7c10.3-4.7,21.9-7.1,34.2-7.1c12.7,0,22,2.3,28.2,7c0.8,0.6,1.6,1.3,2.4,2l1.4-7.1h69.4l-30.2,143.1
			l-0.1,0.2c-0.6,1.9-1,3.8-1.2,5.6c-0.2,1.9-0.3,3.8-0.3,5.7c0,9.5,4.1,11.4,10.6,11.4c2.9,0,5.4-0.7,7.8-2.2
			c2.7-1.7,5.3-4,7.6-6.8c2.4-3,4.6-6.6,6.5-10.8c2-4.3,3.6-9,5-13.7l1.2-4.2h29.3l-2.7,7.7c-3.9,11.1-8.1,20.8-12.7,29
			c-4.6,8.3-9.5,15.3-14.5,21.1c-5.1,5.8-10.3,10.6-15.6,14.3c-5.3,3.6-10.5,6.5-15.6,8.4c-5,2-10,3.3-14.7,4
			C390.2,322,386,322.4,382.2,322.4z M345.3,142.9c-4.4,0-8.5,1.4-12.5,4.4c-4.5,3.2-8.6,7.7-12.4,13.2c-3.9,5.7-7.5,12.3-10.6,19.6
			c-3.2,7.4-5.9,15.2-8.1,23c-2.2,7.9-3.9,15.7-5,23.3c-1.1,7.6-1.7,14.4-1.7,20.3c0,7,0.6,12.4,1.8,15.9c1.4,4.1,2.8,6.1,3.8,7.1
			c1.2,1.2,2.3,1.8,3.4,2c2,0.3,3.8,0.5,5.3,0.5c2.2,0,4.5-0.6,7.1-1.7c2.7-1.2,5.4-3.1,8-5.6c2.6-2.5,5.1-5.8,7.4-9.7
			c2.2-3.9,4-8.5,5.1-13.8l19-89.4c-0.1-0.4-0.2-1.2-0.5-2.3c-0.3-1.1-0.9-2.1-1.7-3.2c-0.7-0.9-1.8-1.8-3.1-2.5
			C349.4,143.2,347.6,142.9,345.3,142.9z"/>
		<path id="XMLID_70_" fill="#8D563E" d="M333,112.3c11.3,0,19.6,2,24.7,5.9c5.1,3.9,7.7,8.7,7.7,14.5v2.9l4.3-21.3h57.6
			l-28.7,135.9c-0.7,2.2-1.1,4.4-1.4,6.5c-0.3,2.1-0.4,4.3-0.4,6.3c0,11.5,5.5,17.2,16.4,17.2c3.9,0,7.5-1,10.8-3
			c3.3-2,6.3-4.7,9.1-8.1c2.7-3.4,5.1-7.4,7.2-12c2.1-4.6,3.8-9.5,5.3-14.6h16.8c-3.8,10.8-7.9,20.2-12.3,28.1
			c-4.4,7.9-9,14.6-13.8,20.1c-4.8,5.5-9.6,9.9-14.6,13.3c-5,3.4-9.8,6-14.5,7.8c-4.7,1.8-9.2,3.1-13.5,3.7c-4.3,0.6-8.2,1-11.7,1
			c-11.3,0-20.3-3.1-27.1-9.3c-6.7-6.2-10.8-15.3-12.2-27.4c-3.3,4.6-6.8,9-10.7,13.4c-3.9,4.4-8.3,8.3-13.1,11.7
			c-4.8,3.5-10.2,6.3-16.1,8.4c-5.9,2.1-12.5,3.2-19.6,3.2c-6.9,0-13.5-1.1-19.9-3.3c-6.4-2.2-12-5.9-17-10.9
			c-5-5.1-8.9-11.7-11.9-19.9c-3-8.2-4.5-18.2-4.5-30.1c0-9.1,0.9-18.9,2.7-29.3c1.8-10.4,4.6-20.8,8.4-31.3
			c3.8-10.4,8.5-20.4,14.2-30c5.7-9.6,12.3-18,19.9-25.4c7.6-7.4,16.2-13.2,25.9-17.6C310.8,114.5,321.4,112.3,333,112.3
			 M309.4,277.9c3,0,6.2-0.7,9.5-2.2c3.3-1.5,6.5-3.7,9.6-6.6c3.1-2.9,5.9-6.6,8.4-11c2.5-4.4,4.5-9.6,5.8-15.4l19.1-90.2
			c0-1.2-0.3-2.6-0.8-4.4c-0.5-1.8-1.4-3.4-2.6-5.1c-1.2-1.6-2.9-3-5-4.1c-2.1-1.1-4.8-1.7-8-1.7c-5.6,0-10.9,1.8-15.9,5.5
			c-5,3.6-9.6,8.5-13.8,14.6c-4.2,6.1-7.9,12.9-11.1,20.6c-3.3,7.7-6,15.6-8.3,23.7c-2.3,8.1-4,16.1-5.2,24
			c-1.2,7.9-1.8,14.9-1.8,21.2c0,7.7,0.7,13.6,2.1,17.8c1.4,4.2,3.2,7.3,5.2,9.3c2,2,4.2,3.2,6.5,3.6
			C305.5,277.7,307.5,277.9,309.4,277.9 M333,100.8c-13.2,0-25.5,2.5-36.6,7.6c-10.8,4.9-20.6,11.5-29.1,19.8
			c-8.3,8-15.7,17.4-21.8,27.8c-6,10.1-11.1,20.9-15.1,31.9c-4,11-7,22.1-8.9,33.2c-1.9,11-2.9,21.6-2.9,31.3
			c0,13.1,1.7,24.6,5.2,34c3.5,9.7,8.4,17.8,14.5,24c6.2,6.3,13.4,11,21.5,13.8c7.6,2.6,15.5,4,23.7,4c8.5,0,16.4-1.3,23.6-3.9
			c6.9-2.5,13.2-5.8,18.9-9.9c4.4-3.2,8.6-6.7,12.3-10.6c2.5,4.6,5.5,8.6,9.2,12c8.9,8.2,20.6,12.3,34.9,12.3
			c4.1,0,8.6-0.4,13.4-1.1c5.1-0.8,10.5-2.3,15.9-4.4c5.5-2.1,11.1-5.2,16.8-9c5.7-3.9,11.4-9,16.7-15.2c5.3-6,10.3-13.5,15.1-22.1
			c4.7-8.5,9.1-18.6,13.1-29.9l5.4-15.3h-16.2h-16.8H437l-2.4,8.4c-1.3,4.5-2.9,8.9-4.7,13c-1.7,3.7-3.6,6.9-5.7,9.5
			c-1.9,2.3-3.9,4.2-6.1,5.5c-1.5,0.9-3.1,1.4-4.9,1.4c-2.7,0-3.8-0.5-4-0.7c-0.3-0.3-0.9-1.7-0.9-4.9c0-1.6,0.1-3.3,0.3-4.9
			c0.2-1.5,0.5-3.1,1-4.7l0.1-0.4l0.1-0.4l28.7-135.9l2.9-13.9h-14.2h-57.6h-9.4l-0.6,3.1C352.9,102.5,344.1,100.8,333,100.8
			L333,100.8z M305.2,266c-0.1-0.1-0.3-0.2-0.5-0.4c-0.1-0.1-1.2-1.3-2.4-4.9c-0.6-1.7-1.5-5.7-1.5-14c0-5.7,0.5-12.2,1.6-19.5
			c1.1-7.4,2.7-15,4.9-22.6c2.1-7.6,4.8-15.1,7.8-22.3c2.9-6.9,6.3-13.2,10-18.6c3.4-4.9,7.1-8.9,11.1-11.8c3-2.2,6-3.3,9.1-3.3
			c1.9,0,2.6,0.3,2.6,0.3c0.5,0.3,1,0.6,1.2,0.9c0.4,0.5,0.6,1,0.8,1.4c0.1,0.2,0.1,0.4,0.2,0.6l-18.7,88.3c-1,4.7-2.6,8.8-4.5,12.1
			c-2,3.4-4.1,6.3-6.4,8.5c-2.1,2-4.2,3.5-6.3,4.5c-1.8,0.8-3.4,1.2-4.7,1.2C308.2,266.4,306.8,266.3,305.2,266L305.2,266z"/>
	</g>
	<g id="XMLID_92_">
		<path id="XMLID_50_" fill="#FFFFFF" d="M688.9,322.4c-9.6,0-17.8-1.4-24.5-4.3c-6.8-2.9-12.4-6.8-16.6-11.7
			c-4.2-4.8-7.2-10.4-9.1-16.6c-1.8-5.9-2.7-12.1-2.7-18.4c0-7.1,1-15.5,3-24.9c1.9-9,4-18.5,6.2-28c2.2-9.4,4.3-18.7,6.1-27.4
			c1.8-8.4,2.7-15.7,2.7-21.7c0-14.7-5.9-14.7-8.7-14.7c-2.6,0-4.9,0.7-7.1,2.1c-2.5,1.6-4.9,3.8-7.1,6.6c-2.3,3-4.5,6.5-6.3,10.6
			c-1.9,4.2-3.7,8.7-5.1,13.4L591.6,320h-69.4L553,174.9l0-0.1c0.7-2.7,1-5.5,1-8.6c0-2-0.2-3.9-0.5-5.6c-0.3-1.4-0.7-2.6-1.3-3.7
			c-0.5-0.9-1.2-1.5-1.9-2c-0.5-0.3-1.4-0.5-2.6-0.5c-2.9,0-5.5,0.7-7.9,2.1c-2.7,1.6-5.2,3.8-7.4,6.6c-2.4,3-4.5,6.6-6.4,10.7
			c-1.9,4.2-3.7,8.8-5.1,13.5L492.8,320h-69.4l44.8-211.5h69.4l-2.2,10.4c0.1-0.1,0.3-0.2,0.4-0.3c4.6-3.2,9.3-5.7,13.8-7.4
			c4.6-1.8,9-3,13.4-3.7c4.2-0.6,8.2-0.9,12-0.9c5.7,0,11.1,0.7,16.2,2.1c5.3,1.4,10,3.8,14.1,7s7.6,7.3,10.5,12.3
			c1,1.8,1.9,3.6,2.7,5.6c2.8-3.5,5.7-6.5,8.6-9.1c5.4-4.8,10.9-8.6,16.1-11.1c5.3-2.6,10.4-4.3,15.4-5.2c4.7-0.8,9.1-1.3,13.1-1.3
			c6.9,0,13.5,0.9,19.4,2.8c6.2,1.9,11.7,5.1,16.2,9.3c4.6,4.2,8.2,9.7,10.8,16.2c2.5,6.4,3.7,14,3.7,22.6c0,5.6-0.5,11.7-1.5,18.2
			c-1,6.3-2.2,12.7-3.6,19.2c-1.4,6.5-2.9,13-4.7,19.5c-1.7,6.3-3.2,12.4-4.5,18.2c-1.3,5.8-2.5,11.2-3.5,16.1
			c-0.9,4.6-1.4,8.7-1.4,12.1c0,3.7,0.8,6.6,2.3,8.7c1.5,2,5.6,2.3,7.9,2.3c3.3,0,6.3-0.6,8.7-1.9c2.6-1.3,4.9-3.3,7-5.8
			c2.3-2.8,4.5-6.2,6.4-10.1c2.1-4.2,4.1-8.9,6.2-14l1.4-3.6h28.7l-2.6,7.6c-5.7,16.8-12,30.4-18.7,40.6
			c-6.8,10.2-13.8,18.2-20.8,23.7c-7.2,5.6-14.4,9.4-21.5,11.1C701,321.5,694.6,322.4,688.9,322.4z"/>
		<path id="XMLID_30_" fill="#8D563E" d="M575,112.3c5.2,0,10.1,0.6,14.6,1.9c4.6,1.2,8.6,3.2,12.1,6c3.5,2.7,6.5,6.3,9,10.6
			c2.5,4.4,4.2,9.7,5.3,15.9c4.8-7.4,9.8-13.4,14.8-17.9c5.1-4.5,10-7.9,14.8-10.3c4.8-2.3,9.4-3.9,13.9-4.7
			c4.4-0.8,8.5-1.2,12.1-1.2c6.4,0,12.3,0.8,17.7,2.5c5.4,1.7,10.1,4.4,14.1,8c4,3.6,7.1,8.3,9.3,14.1c2.2,5.7,3.3,12.6,3.3,20.5
			c0,5.3-0.5,11.1-1.5,17.3c-1,6.2-2.1,12.5-3.5,18.9c-1.4,6.4-2.9,12.9-4.6,19.2c-1.7,6.4-3.2,12.5-4.6,18.4s-2.5,11.3-3.5,16.3
			c-1,5-1.5,9.4-1.5,13.2c0,5,1.1,9,3.4,12.1c2.3,3.1,6.5,4.7,12.6,4.7c4.3,0,8.1-0.8,11.3-2.5c3.3-1.7,6.2-4.1,8.8-7.2
			c2.6-3.1,5-6.9,7.1-11.2c2.1-4.4,4.3-9.1,6.3-14.4h16.8c-5.6,16.4-11.6,29.5-18.1,39.3c-6.4,9.8-13,17.2-19.5,22.4
			c-6.6,5.1-13,8.5-19.3,10.1c-6.3,1.6-12.1,2.3-17.5,2.3c-8.9,0-16.3-1.3-22.3-3.8c-6-2.5-10.8-5.9-14.5-10.2
			c-3.6-4.2-6.3-9-7.9-14.5c-1.6-5.4-2.4-11-2.4-16.7c0-6.8,0.9-14.7,2.8-23.7c1.9-9,3.9-18.3,6.2-27.8c2.2-9.5,4.3-18.7,6.2-27.5
			c1.9-8.9,2.8-16.5,2.8-22.9c0-13.7-4.8-20.5-14.5-20.5c-3.6,0-7,1-10.2,2.9c-3.1,2-6,4.6-8.6,7.9c-2.6,3.3-5,7.2-7,11.7
			c-2.1,4.5-3.9,9.3-5.5,14.4l-27.1,128.3h-57.6l29.3-138.1c0.8-3.1,1.2-6.4,1.2-10c0-2.3-0.2-4.6-0.6-6.6c-0.4-2.1-1.1-3.9-2.1-5.6
			c-1-1.6-2.2-2.9-3.7-3.9c-1.5-1-3.4-1.5-5.8-1.5c-3.9,0-7.5,1-10.8,2.9c-3.3,2-6.3,4.6-9,8c-2.7,3.4-5,7.4-7.1,11.9
			c-2.1,4.6-3.9,9.4-5.5,14.5l-27.1,128.3h-57.6l42.4-200h57.6l-4.3,20.7c4.3-4.8,8.6-8.7,12.9-11.6c4.3-2.9,8.5-5.2,12.7-6.8
			c4.2-1.6,8.2-2.7,12.1-3.3C567.8,112.6,571.5,112.3,575,112.3 M575,100.8c-4.1,0-8.4,0.3-12.8,1c-4.7,0.7-9.6,2-14.6,4
			c-1.3,0.5-2.6,1.1-3.9,1.7l1-4.7h-14.2h-57.6h-9.3l-1.9,9.1l-42.4,200l-2.9,13.9h14.2h57.6h9.3l1.9-9.1l27-127.8
			c1.4-4.4,3-8.6,4.8-12.6c1.7-3.7,3.6-6.9,5.7-9.6c1.8-2.2,3.7-4,5.8-5.2c1.5-0.9,3-1.3,4.7-1.3c0.2,0.4,0.4,0.9,0.5,1.5
			c0.3,1.4,0.4,2.9,0.4,4.5c0,2.6-0.3,5-0.8,7.2l-0.1,0.2l0,0.2L518,311.9l-3,13.9h14.2h57.6h9.3l1.9-9.1l27-127.8
			c1.4-4.4,3-8.6,4.8-12.4c1.7-3.7,3.6-6.8,5.6-9.5c1.8-2.3,3.7-4,5.6-5.3c1.3-0.8,2.6-1.2,4.1-1.2c0.8,0,1.3,0.1,1.4,0.2
			c0.4,0.5,1.6,3,1.6,8.8c0,5.5-0.9,12.4-2.6,20.5c-1.9,8.7-3.9,17.9-6.1,27.3c-2.2,9.5-4.3,19-6.2,28.1c-2,9.8-3.1,18.6-3.1,26.1
			c0,6.8,1,13.6,2.9,20c2.1,6.9,5.5,13.2,10.2,18.6c4.8,5.6,11.1,10,18.7,13.2c7.4,3.1,16.4,4.7,26.8,4.7c6.2,0,13.1-0.9,20.2-2.7
			c7.9-1.9,15.8-6,23.7-12.2c7.5-5.9,14.9-14.3,22-25.1c7-10.5,13.5-24.6,19.4-41.9l5.2-15.2h-16.1h-16.8h-7.8l-2.9,7.2
			c-2,4.9-4,9.5-6,13.5c-1.7,3.5-3.6,6.5-5.6,8.9c-1.6,2-3.4,3.4-5.3,4.4c-1.6,0.8-3.6,1.2-6,1.2c-2,0-3.1-0.2-3.6-0.4
			c-0.8-1.4-0.9-3.4-0.9-4.9c0-3,0.4-6.7,1.3-11c0.9-4.9,2.1-10.2,3.4-15.9c1.3-5.7,2.9-11.8,4.5-18c1.7-6.6,3.3-13.2,4.7-19.8
			c1.4-6.6,2.6-13.2,3.6-19.5c1.1-6.7,1.6-13.2,1.6-19.1c0-9.3-1.4-17.6-4.1-24.7c-2.9-7.4-7-13.6-12.2-18.4
			c-5.2-4.8-11.4-8.3-18.4-10.5c-6.5-2-13.6-3.1-21.1-3.1c-4.3,0-9,0.5-14.1,1.3c-5.5,1-11.2,2.9-16.9,5.7
			c-5.7,2.8-11.6,6.8-17.4,12c-1.2,1-2.3,2.1-3.4,3.2c-3-4.9-6.7-9.1-11-12.4c-4.7-3.7-10.1-6.3-16.2-8
			C587.1,101.5,581.2,100.8,575,100.8L575,100.8z"/>
	</g>
	<g id="XMLID_97_">
		<path id="XMLID_60_" fill="#FFFFFF" d="M802.9,322.4c-9.9,0-19.1-1.3-27.2-3.9c-8.4-2.7-15.7-6.9-21.7-12.5
			c-6-5.7-10.8-13-14-21.8c-3.2-8.6-4.9-19.1-4.9-31c0-7.9,0.8-17.2,2.4-27.4c1.6-10.3,4.2-21,7.6-31.7c3.5-10.8,8.2-21.6,13.9-32.1
			c5.8-10.6,13-20.2,21.3-28.5c8.4-8.5,18.4-15.4,29.6-20.5c11.4-5.2,24.5-7.8,38.9-7.8c9.8,0,17.6,1.2,24,3.6
			c6.5,2.4,11.7,5.8,15.6,9.9c4,4.2,6.7,9.1,8.2,14.7c1.4,5.1,2.1,10.4,2.1,15.8c0,12.5-2.8,24.2-8.2,34.9
			c-5.4,10.6-12.7,19.9-21.8,27.8c-9,7.8-19.4,14.2-31,19c-10.1,4.2-20.7,6.8-31.6,8c-0.1,0.5-0.1,1-0.2,1.6
			c-0.2,1.8-0.3,3.6-0.3,5.2c0,5.8,0.6,10.6,1.7,14.3c1.1,3.5,2.4,6.2,4.1,8.1c1.6,1.8,3.3,3,5.4,3.7c2.4,0.8,5,1.2,7.9,1.2
			c3.4,0,7-0.5,10.7-1.5c3.9-1.1,7.8-2.5,11.6-4.3c3.9-1.8,7.7-4,11.3-6.4c3.6-2.4,6.9-4.9,9.8-7.5l12.6-11.5l-3,16.8
			c-2.2,12.2-5.7,22.5-10.5,30.6c-4.8,8.2-10.6,14.9-17.3,19.9c-6.7,5-14.2,8.5-22.4,10.5C819.7,321.4,811.4,322.4,802.9,322.4z
			 M852.1,137.6c-3.4,0-7.1,1.9-10.8,5.8c-4.5,4.6-8.8,10.7-12.7,18.1c-4.1,7.7-7.8,16.3-11.2,25.8c-2.4,6.8-4.5,13.6-6.2,20.3
			c4-0.9,8-2.4,11.8-4.5c6.4-3.5,12.2-8.1,17.1-13.6c4.9-5.5,8.9-12,11.9-19.1c2.9-7.1,4.4-14.5,4.4-22c0-4.1-0.5-7.2-1.6-9.4
			C854.5,138.2,854.2,137.6,852.1,137.6z"/>
		<path id="XMLID_55_" fill="#8D563E" d="M848.8,110.7c9,0,16.3,1.1,22,3.2c5.7,2.1,10.2,5,13.5,8.5c3.3,3.5,5.6,7.6,6.8,12.2
			c1.2,4.6,1.9,9.4,1.9,14.4c0,11.6-2.5,22.4-7.6,32.3c-5.1,10-11.9,18.7-20.4,26.1c-8.5,7.4-18.3,13.4-29.4,18
			c-11.1,4.6-22.6,7.2-34.6,8c-0.3,2.2-0.5,4.3-0.7,6.3c-0.2,2-0.3,3.9-0.3,5.8c0,6.4,0.7,11.7,2,16c1.3,4.3,3.1,7.7,5.3,10.3
			c2.2,2.5,4.8,4.3,7.8,5.4c3,1,6.3,1.6,9.8,1.6c3.9,0,8-0.6,12.2-1.8c4.2-1.2,8.4-2.7,12.5-4.7c4.1-2,8.1-4.2,12-6.7
			s7.4-5.2,10.5-8.1c-2.1,11.6-5.3,21.2-9.8,28.7c-4.4,7.6-9.7,13.6-15.8,18.2c-6.1,4.6-12.9,7.7-20.3,9.6
			c-7.4,1.8-15.2,2.7-23.2,2.7c-9.4,0-17.9-1.2-25.5-3.6c-7.6-2.4-14.1-6.2-19.5-11.2c-5.4-5.1-9.6-11.6-12.6-19.6
			c-3-8-4.5-17.7-4.5-29c0-7.7,0.8-16.5,2.3-26.6c1.6-10,4-20.3,7.4-30.9c3.4-10.5,7.9-20.9,13.5-31.1c5.6-10.2,12.4-19.2,20.3-27.2
			c7.9-8,17.3-14.5,27.9-19.3C823,113.2,835.2,110.7,848.8,110.7 M803.7,214.3c7.7-0.3,15-2.3,22.1-6.2c7-3.8,13.2-8.8,18.7-14.8
			c5.4-6.1,9.7-13,12.9-20.8c3.2-7.8,4.8-15.9,4.8-24.2c0-4.9-0.7-8.9-2.1-11.9c-1.4-3-4-4.5-7.8-4.5c-5.1,0-10.1,2.5-14.9,7.5
			c-4.9,5-9.4,11.5-13.7,19.4c-4.2,7.9-8.1,16.8-11.5,26.6C808.6,195.1,805.8,204.8,803.7,214.3 M848.8,99.2
			c-15.3,0-29.2,2.8-41.3,8.4c-11.9,5.4-22.4,12.7-31.3,21.7c-8.7,8.7-16.1,18.8-22.2,29.8c-5.9,10.8-10.8,21.9-14.4,33.1
			c-3.5,11-6.2,22-7.8,32.6c-1.6,10.6-2.5,20.1-2.5,28.3c0,12.7,1.8,23.8,5.2,33c3.6,9.6,8.8,17.7,15.5,24
			c6.6,6.2,14.7,10.9,23.9,13.8c8.7,2.8,18.5,4.1,29,4.1c9,0,17.7-1,26-3.1c8.9-2.2,17.1-6.1,24.4-11.5c7.3-5.5,13.7-12.7,18.9-21.6
			c5.1-8.7,8.9-19.6,11.2-32.5l6-33.6l-25.2,23.1c-2.6,2.4-5.7,4.8-9,6.9c-3.5,2.3-7.1,4.3-10.7,6c-3.5,1.7-7.1,3-10.6,4
			c-3.2,0.9-6.3,1.3-9.1,1.3c-2.2,0-4.2-0.3-6-0.9c-1.1-0.4-2-1-2.9-2.1c-0.8-0.9-1.9-2.7-2.9-6c-1-3.2-1.5-7.5-1.5-12.7
			c0-0.5,0-1.1,0-1.7c9.7-1.4,19.3-4.1,28.4-7.8c12.2-5,23.1-11.7,32.6-19.9c9.6-8.4,17.4-18.3,23.1-29.5
			c5.9-11.6,8.9-24.2,8.9-37.6c0-5.9-0.8-11.8-2.2-17.3c-1.7-6.5-5-12.2-9.6-17.1c-4.5-4.8-10.5-8.6-17.8-11.4
			C867.8,100.5,859.3,99.2,848.8,99.2L848.8,99.2z M819.9,198.2c0.9-3,1.9-6,3-9c3.2-9.2,6.9-17.6,10.8-25
			c3.7-6.9,7.7-12.6,11.8-16.8c1.1-1.1,2.9-2.8,4.8-3.6c0.2,1.1,0.3,2.5,0.3,4.5c0,6.8-1.3,13.5-3.9,19.9
			c-2.7,6.6-6.3,12.4-10.8,17.5c-4.5,5-9.7,9.2-15.6,12.4C820.1,198.1,820,198.1,819.9,198.2L819.9,198.2z"/>
	</g>
	<g id="XMLID_314_">
		<path id="XMLID_46_" fill="#FFFFFF" d="M1094.5,322.4c-11.1,0-21.4-1.5-30.7-4.6c-9.6-3.1-17.9-8.3-24.9-15.3
			c-7-7-12.4-16.1-16.2-27.1c-3.7-10.8-5.6-23.9-5.6-39.1c0-11.1,1-23.6,3.1-37.3c1.8-11.9,4.4-24.1,7.7-36.3h-1.3
			c-13.9,0-25.1-2.9-33.1-8.7c-8.7-6.2-13.1-16.5-13.1-30.7c0-10.2,2.2-20.2,6.6-29.9c4.3-9.5,10.3-18.6,18-27.2
			c7.6-8.4,16.6-16.3,26.9-23.4c10.2-7,21.7-13.2,34-18.3c12.2-5.1,25.4-9.1,39.1-11.9c13.7-2.9,28-4.3,42.4-4.3
			c18.3,0,34,2.7,46.7,8.1c12.9,5.4,23.4,13.1,31.4,22.8c7.9,9.7,13.7,21.3,17.2,34.6c3.4,13,5.2,27.3,5.2,42.6
			c0,13.1-1.2,27.5-3.7,42.6c-2.5,15.2-6.3,30.5-11.6,45.5c-5.2,15.1-12,29.8-20,43.7c-8.1,14.2-18,26.8-29.2,37.6
			c-11.4,10.9-24.5,19.7-39.1,26.3C1129.4,319,1112.7,322.4,1094.5,322.4z M1131.2,42.9c3.6,0,7.2,0.2,10.8,0.6
			c3.8,0.4,7.9,1.5,12.1,3.1l11.2,4.2l-10.3,6.1c-5.4,3.2-10.9,8.5-16.2,15.6c-5.6,7.5-10.9,16.3-16,26.3
			c-5.1,10.1-9.8,21.2-14.1,33.1c-4.3,11.9-8,24.2-11.2,36.6c-3.1,12.3-5.6,24.6-7.3,36.5c-1.7,11.8-2.6,22.9-2.6,32.9
			c0,6.4,0.4,12.4,1.3,17.7c0.8,5.1,2.1,9.6,3.7,13.2c1.4,3.2,3.2,5.7,5.4,7.4c1.9,1.5,4.2,2.2,7.1,2.2c5.5,0,11-2.2,16.7-6.6
			c6.2-4.8,12.3-11.6,18.2-20c6-8.6,11.7-18.9,16.9-30.4c5.2-11.6,9.8-24.2,13.6-37.3c3.8-13.2,6.9-26.9,9.1-40.8
			c2.2-13.8,3.3-27.5,3.3-40.5c0-11.2-0.7-21.2-2-29.7c-1.2-7.9-3.5-14.6-6.9-19.7c-3.2-4.9-7.5-8.5-13.1-11
			c-5.9-2.6-13.8-3.9-23.5-3.9c-14.5,0-28.6,2.3-41.9,6.8c-13.2,4.5-25,11-35,19.5c-9.9,8.4-18,18.6-23.8,30.6
			c-5.8,11.8-8.8,25.4-8.8,40.3c0,3.5,0.2,6.4,0.6,8.4c0.4,2.2,0.8,4,1.2,5.2c0.5,1.5,0.8,2.3,1,2.7c0,0,0,0,0,0
			c3.8-12.2,8.5-24.4,13.8-36.2c6.2-13.6,13.5-25.9,21.8-36.5c8.4-10.8,18-19.6,28.5-26.2C1106.1,46.3,1118.2,42.9,1131.2,42.9z"/>
		<path id="XMLID_41_" fill="#8D563E" d="M1147.3,14.3c17.6,0,32.4,2.5,44.4,7.6c12,5.1,21.8,12.1,29.2,21.2
			c7.4,9.1,12.8,19.9,16.1,32.4c3.3,12.6,5,26.3,5,41.1c0,12.9-1.2,26.8-3.6,41.7c-2.4,14.9-6.2,29.8-11.3,44.5
			c-5.1,14.8-11.7,29-19.5,42.8c-7.9,13.7-17.3,25.8-28.2,36.3c-10.9,10.5-23.4,18.9-37.5,25.2c-14.1,6.3-29.8,9.5-47.3,9.5
			c-10.5,0-20.2-1.4-28.9-4.3c-8.7-2.9-16.3-7.5-22.7-13.9c-6.4-6.4-11.3-14.7-14.8-24.9c-3.5-10.2-5.3-22.6-5.3-37.2
			c0-10.8,1-22.9,3-36.4c2-13.5,5-27.1,9.1-41c4-13.9,9.1-27.4,15.1-40.7c6.1-13.3,13.1-25.1,21.1-35.4c8-10.3,17-18.6,27.1-24.8
			c10-6.3,21-9.4,33-9.4c3.4,0,6.8,0.2,10.2,0.6c3.4,0.4,7,1.3,10.7,2.7c-6.1,3.6-12.1,9.3-17.9,17.1c-5.8,7.7-11.3,16.8-16.5,27.1
			c-5.2,10.4-10,21.6-14.4,33.8c-4.4,12.2-8.1,24.5-11.3,37.1c-3.2,12.6-5.7,24.9-7.4,37.1c-1.8,12.2-2.6,23.4-2.6,33.7
			c0,6.8,0.5,13,1.4,18.7c0.9,5.7,2.3,10.5,4.1,14.6c1.8,4.1,4.2,7.3,7.1,9.6c2.9,2.3,6.5,3.4,10.6,3.4c6.8,0,13.5-2.6,20.2-7.8
			c6.7-5.2,13.2-12.3,19.4-21.3c6.3-9,12-19.4,17.4-31.3c5.3-11.9,10-24.6,13.9-38.1c3.9-13.5,7-27.3,9.3-41.5
			c2.3-14.2,3.4-28,3.4-41.4c0-11.6-0.7-21.8-2.1-30.6s-3.9-16.1-7.7-22c-3.8-5.9-9-10.3-15.6-13.2c-6.6-2.9-15.2-4.4-25.8-4.4
			c-15.2,0-29.8,2.4-43.8,7.1c-13.9,4.8-26.2,11.6-36.8,20.5c-10.6,8.9-19,19.7-25.3,32.4c-6.3,12.7-9.4,27-9.4,42.9
			c0,3.9,0.2,7.1,0.7,9.5c0.5,2.4,0.9,4.4,1.4,5.9c0.5,1.5,0.9,2.7,1.4,3.6c0.5,0.9,0.7,1.8,0.7,2.5c-12.8,0-22.7-2.5-29.8-7.6
			c-7.1-5.1-10.6-13.7-10.6-26c0-9.4,2-18.6,6.1-27.5c4-9,9.7-17.5,17-25.7c7.3-8.1,15.9-15.6,25.9-22.5c10-6.8,20.9-12.7,32.9-17.7
			c12-4.9,24.7-8.8,38.1-11.6C1119.5,15.7,1133.2,14.3,1147.3,14.3 M1147.3,2.7c-14.8,0-29.4,1.5-43.6,4.4
			c-14.1,2.9-27.6,7.1-40.1,12.3c-12.7,5.2-24.5,11.6-35,18.8c-10.7,7.3-20.1,15.5-27.9,24.3c-8.1,9-14.4,18.6-18.9,28.7
			c-4.7,10.4-7.1,21.3-7.1,32.3c0,16.1,5.2,28,15.5,35.3c7.8,5.6,18,8.8,30.4,9.6c-2.5,10-4.5,20-6,29.8c-2.1,14-3.2,26.8-3.2,38.1
			c0,15.8,2,29.6,5.9,41c4.1,11.8,10,21.7,17.6,29.3c7.6,7.6,16.8,13.2,27.2,16.7c9.8,3.2,20.8,4.9,32.5,4.9c19,0,36.5-3.5,52-10.5
			c15.2-6.8,28.9-16,40.8-27.4c11.7-11.2,21.9-24.3,30.2-38.9c8.2-14.3,15.1-29.3,20.4-44.7c5.3-15.3,9.3-31,11.8-46.5
			c2.5-15.4,3.8-30.1,3.8-43.5c0-15.8-1.8-30.6-5.4-44.1c-3.7-14.1-9.9-26.5-18.3-36.8c-8.6-10.5-19.9-18.7-33.6-24.5
			C1182.8,5.6,1166.3,2.7,1147.3,2.7L1147.3,2.7z M1105.3,272.7c-2,0-3-0.5-3.6-1c-1.4-1.1-2.6-2.8-3.7-5.2
			c-1.4-3.2-2.5-7.1-3.3-11.8c-0.8-5-1.2-10.7-1.2-16.8c0-9.7,0.8-20.5,2.5-32c1.7-11.7,4.1-23.8,7.2-35.9
			c3.1-12.2,6.8-24.3,11-36.1c4.2-11.7,8.8-22.6,13.8-32.5c4.9-9.7,10.1-18.2,15.4-25.4c4.9-6.5,9.8-11.2,14.5-14.1l10.7-6.4
			c0.2,0.3,0.4,0.6,0.7,1c2.9,4.5,4.9,10.4,6,17.5c1.3,8.2,1.9,17.9,1.9,28.8c0,12.7-1.1,26-3.3,39.6c-2.2,13.7-5.2,27.2-9,40.1
			c-3.7,12.9-8.2,25.2-13.3,36.6c-5,11.2-10.5,21.1-16.3,29.5c-5.6,8-11.3,14.3-17,18.8C1113.7,270.9,1109.4,272.7,1105.3,272.7
			L1105.3,272.7z M1034.5,125.2c1-10,3.6-19.2,7.7-27.5c5.5-11.2,13-20.8,22.4-28.7c3.4-2.8,6.9-5.4,10.7-7.8
			c-4.7,4.4-9,9.2-13.2,14.5c-8.5,11-16.1,23.6-22.5,37.7C1037.8,117.3,1036.1,121.3,1034.5,125.2L1034.5,125.2z"/>
	</g>
	<g id="XMLID_810_">
		<path id="XMLID_27_" fill="#FFFFFF" d="M1291.2,322.4c-16.5,0-29.8-4.4-39.6-13.1c-10-8.8-15.1-22.2-15.1-39.8
			c0-2.4,0.1-5.3,0.4-8.9c0.3-3.7,0.8-7.6,1.7-11.6l29.7-140.5h69.4l-30.2,142.9c-0.6,2.9-1.1,5.5-1.5,7.8c-0.3,2.1-0.5,3.9-0.5,5.4
			c0,2.6,0.6,4.5,1.8,5.8c1.2,1.4,4,1.7,6.2,1.7c5.3,0,10.3-1.9,15.3-5.7c5.5-4.2,10.6-9.8,15.3-16.7c4.9-7.2,9.3-15.4,13.4-24.6
			c4.1-9.2,7.5-18.8,10.4-28.4c2.8-9.6,5.1-19.2,6.7-28.3c0.9-5.4,1.6-10.4,2-15.1c-1,0.2-1.9,0.3-2.9,0.4c-1.5,0.1-2.7,0.2-3.7,0.2
			c-3.5,0-6.7-1-9.5-2.9c-2.5-1.7-4.6-3.8-6.2-6.5c-1.6-2.5-2.7-5.2-3.5-8.3c-0.7-2.8-1-5.7-1-8.5c0-7.8,2.5-14.3,7.6-19.5
			c5.1-5.2,12.8-7.9,23-7.9c5.9,0,10.9,1.3,15,3.8c4,2.4,7.2,5.7,9.6,9.8c2.3,3.8,3.9,8.2,4.9,12.9c0.9,4.5,1.4,9.3,1.4,14
			c0,10.9-0.9,23-2.8,36.1c-1.9,13.1-4.8,26.4-8.9,39.6c-4.1,13.3-9.2,26.3-15.4,38.7c-6.3,12.6-13.9,23.9-22.6,33.7
			c-8.9,9.9-19.2,18-30.7,24C1318.9,319.2,1305.6,322.4,1291.2,322.4z"/>
		<path id="XMLID_23_" fill="#8D563E" d="M1380.1,106.2c4.8,0,8.8,1,12,2.9c3.2,2,5.8,4.6,7.7,7.8c2,3.3,3.4,7,4.2,11.1
			c0.8,4.2,1.3,8.5,1.3,12.9c0,10.7-0.9,22.4-2.7,35.3c-1.8,12.8-4.7,25.8-8.7,38.8c-4,13-9,25.6-15,37.8
			c-6.1,12.2-13.3,23-21.8,32.4c-8.5,9.4-18.2,17-29.1,22.8c-10.9,5.7-23.2,8.6-36.7,8.6c-15.1,0-27.1-3.9-35.8-11.6
			c-8.8-7.7-13.2-19.6-13.2-35.4c0-2.2,0.1-5,0.4-8.5c0.3-3.4,0.8-7.1,1.6-10.8l28.7-135.9h57.6l-28.7,135.9c-0.7,3-1.2,5.7-1.6,8.1
			c-0.4,2.4-0.6,4.5-0.6,6.3c0,4,1.1,7.3,3.2,9.7c2.1,2.4,5.6,3.6,10.4,3.6c6.5,0,12.8-2.3,18.8-6.8c6-4.6,11.5-10.6,16.6-18.1
			c5.1-7.5,9.7-16,13.9-25.5c4.2-9.5,7.7-19.2,10.6-29.1c2.9-9.9,5.2-19.6,6.8-29c1.6-9.4,2.4-17.8,2.4-25.1
			c-0.3,0.7-0.9,1.2-2.1,1.8c-1.1,0.5-2.3,0.9-3.6,1.3c-1.3,0.3-2.6,0.6-3.9,0.7c-1.3,0.1-2.3,0.2-3.1,0.2c-2.3,0-4.4-0.6-6.3-1.9
			c-1.8-1.2-3.4-2.8-4.6-4.8c-1.2-2-2.1-4.1-2.7-6.5c-0.6-2.4-0.9-4.8-0.9-7.1c0-6.3,2-11.4,6-15.5
			C1365.2,108.3,1371.5,106.2,1380.1,106.2 M1380.1,94.7c-11.8,0-20.9,3.2-27.1,9.7c-6,6.2-9.2,14.4-9.2,23.5c0,3.3,0.4,6.6,1.2,9.9
			c0.9,3.6,2.3,7,4.2,10c2.1,3.3,4.7,6,7.9,8.2c3.7,2.5,8,3.8,12.7,3.8c0,0,0,0,0.1,0c-0.3,2.5-0.7,5.1-1.2,7.7
			c-1.5,9-3.7,18.3-6.5,27.7c-2.8,9.4-6.2,18.7-10.1,27.7c-3.9,8.8-8.2,16.8-12.8,23.6c-4.3,6.4-9.1,11.6-14,15.4
			c-4,3-7.8,4.5-11.8,4.5c-1,0-1.6-0.1-2-0.2c-0.1-0.3-0.2-0.8-0.2-1.6c0-1.2,0.1-2.7,0.4-4.5c0.4-2.2,0.8-4.7,1.4-7.5l0,0l0,0
			l28.7-135.9l2.9-13.9h-14.2h-57.6h-9.3l-1.9,9.1l-28.7,135.9c-0.9,4.3-1.5,8.4-1.8,12.3c-0.3,3.8-0.4,6.9-0.4,9.4
			c0,19.3,5.7,34.1,17.1,44.1c10.9,9.6,25.5,14.5,43.5,14.5c15.4,0,29.5-3.3,42.1-9.9c12.1-6.3,23-14.8,32.3-25.3
			c9.1-10.2,17-21.9,23.5-35c6.3-12.7,11.6-26,15.7-39.6c4.1-13.5,7.2-27.1,9.1-40.5c1.9-13.3,2.8-25.7,2.8-36.9
			c0-5.2-0.5-10.3-1.5-15.2c-1.1-5.4-3-10.4-5.6-14.8c-2.9-4.9-6.8-8.8-11.6-11.7C1393.1,96.3,1387,94.7,1380.1,94.7L1380.1,94.7z"
			/>
	</g>
	<g id="XMLID_859_">
		<path id="XMLID_37_" fill="#FFFFFF" d="M1468.6,322.4c-10,0-19.3-1.3-27.5-3.9c-8.5-2.7-15.8-6.9-21.9-12.5
			c-6.1-5.7-10.9-13-14.1-21.9c-3.1-8.6-4.7-19-4.7-31c0-7.9,0.8-17.2,2.4-27.4c1.6-10.3,4.2-21,7.6-31.7
			c3.5-10.8,8.2-21.6,13.9-32.1c5.8-10.6,13-20.2,21.3-28.5c8.4-8.5,18.4-15.4,29.6-20.5c11.4-5.2,24.5-7.8,38.9-7.8
			c9.8,0,17.6,1.2,24,3.6c6.5,2.4,11.7,5.8,15.6,9.9c4,4.2,6.7,9.1,8.2,14.7c1.4,5.1,2.1,10.4,2.1,15.8c0,12.5-2.8,24.2-8.2,34.9
			c-5.4,10.6-12.7,19.9-21.8,27.8c-9,7.8-19.4,14.2-31,19c-10.1,4.1-20.6,6.8-31.4,8c-0.1,1.2-0.2,2.4-0.3,3.6
			c-0.2,2.5-0.3,4.9-0.3,7.1c0,6.2,0.6,11.3,1.6,15.1c1,3.4,2.3,6,4.1,7.8c1.7,1.7,3.8,2.9,6.4,3.6c3.1,0.8,6.8,1.3,11.1,1.3
			c7.3,0,14-1,19.8-2.8c5.9-1.9,11.5-4.6,16.7-7.9c5.3-3.4,10.3-7.5,15-12.2c4.9-4.9,10-10.1,14.9-15.6l1.7-1.9h26.4l-5.2,8.7
			c-5.7,9.6-12.4,19-19.7,28c-7.5,9.2-16,17.4-25.4,24.6c-9.4,7.2-20,13.1-31.5,17.5C1495.2,320.1,1482.3,322.4,1468.6,322.4z
			 M1517.4,137.6c-3.5,0-7.1,1.9-10.9,5.6c-4.5,4.5-8.8,10.4-12.8,17.7c-4.1,7.5-7.8,16.1-11,25.5c-2.3,6.9-4.3,13.8-6,20.8
			c4-1,7.9-2.5,11.7-4.6c6.4-3.4,12.1-8,17-13.5c4.9-5.5,8.9-12,11.8-19.1c2.9-7,4.4-14.4,4.4-21.9c0-4.1-0.5-7.2-1.6-9.4
			C1519.7,138.2,1519.4,137.6,1517.4,137.6z"/>
		<path id="XMLID_32_" fill="#8D563E" d="M1514.1,110.7c9,0,16.3,1.1,22,3.2c5.7,2.1,10.2,5,13.5,8.5c3.3,3.5,5.6,7.6,6.8,12.2
			c1.2,4.6,1.9,9.4,1.9,14.4c0,11.6-2.5,22.4-7.6,32.3c-5.1,10-11.9,18.7-20.4,26.1c-8.5,7.4-18.3,13.4-29.4,18
			c-11.1,4.6-22.6,7.2-34.6,8c-0.3,3-0.5,5.8-0.7,8.5c-0.2,2.7-0.3,5.2-0.3,7.5c0,6.8,0.6,12.3,1.9,16.7c1.2,4.4,3.1,7.8,5.5,10.3
			c2.4,2.5,5.4,4.2,9,5.2c3.6,1,7.8,1.5,12.6,1.5c7.9,0,15.1-1,21.6-3.1c6.4-2.1,12.5-4.9,18.1-8.6c5.6-3.6,10.9-7.9,15.9-12.9
			c5-4.9,10.1-10.2,15.1-15.8h13.7c-5.6,9.4-12,18.5-19.2,27.3c-7.2,8.9-15.4,16.7-24.4,23.6c-9.1,6.9-19.1,12.5-30.1,16.7
			c-11,4.2-23.1,6.3-36.2,6.3c-9.5,0-18.1-1.2-25.8-3.6c-7.7-2.4-14.3-6.2-19.7-11.2c-5.5-5.1-9.7-11.6-12.6-19.6
			c-2.9-8-4.4-17.7-4.4-29c0-7.7,0.8-16.5,2.3-26.6c1.6-10,4-20.3,7.4-30.9c3.4-10.5,7.9-20.9,13.5-31.1
			c5.6-10.2,12.4-19.2,20.3-27.2c7.9-8,17.3-14.5,27.9-19.3C1488.2,113.2,1500.4,110.7,1514.1,110.7 M1469.3,214.3
			c7.5-0.5,14.8-2.7,21.9-6.4c7-3.8,13.2-8.7,18.6-14.7c5.3-6.1,9.6-13,12.8-20.7c3.2-7.7,4.8-15.8,4.8-24.1c0-4.9-0.7-8.9-2.1-11.9
			c-1.4-3-4-4.5-7.8-4.5c-5.1,0-10.1,2.4-14.9,7.3c-4.9,4.9-9.5,11.2-13.8,19c-4.3,7.8-8.1,16.6-11.4,26.5
			C1473.9,194.5,1471.3,204.4,1469.3,214.3 M1514.1,99.2c-15.3,0-29.2,2.8-41.3,8.4c-11.9,5.4-22.4,12.7-31.3,21.7
			c-8.7,8.7-16.1,18.8-22.2,29.8c-5.9,10.8-10.8,21.9-14.4,33.1c-3.5,11-6.2,22-7.8,32.6c-1.6,10.6-2.5,20.1-2.5,28.3
			c0,12.6,1.7,23.7,5.1,33c3.5,9.7,8.8,17.8,15.6,24.1c6.7,6.2,14.8,10.9,24.1,13.8c8.8,2.7,18.6,4.1,29.2,4.1
			c14.5,0,28.1-2.4,40.4-7.1c12-4.6,23-10.8,32.9-18.3c9.7-7.4,18.6-16,26.4-25.5c7.5-9.2,14.3-18.9,20.2-28.7l10.4-17.4h-20.3
			h-13.7h-5.1l-3.4,3.8c-4.9,5.4-9.8,10.6-14.7,15.4c-4.4,4.4-9.2,8.2-14.1,11.4c-4.7,3.1-9.9,5.5-15.3,7.3
			c-5.3,1.7-11.3,2.6-18,2.6c-3.8,0-7-0.4-9.6-1.1c-1.6-0.4-2.8-1.1-3.8-2.1c-0.7-0.7-1.8-2.3-2.6-5.4c-0.9-3.3-1.4-7.9-1.4-13.6
			c0-1.7,0.1-3.6,0.2-5.6c9.7-1.4,19.1-4,28.2-7.8c12.2-5,23.1-11.7,32.6-19.9c9.6-8.4,17.4-18.3,23.1-29.5
			c5.9-11.6,8.9-24.2,8.9-37.6c0-5.9-0.8-11.8-2.2-17.3c-1.7-6.5-5-12.2-9.6-17.1c-4.5-4.8-10.5-8.6-17.8-11.4
			C1533.1,100.5,1524.5,99.2,1514.1,99.2L1514.1,99.2z M1485.1,198c0.9-3.2,1.9-6.4,3-9.6c3.1-9.1,6.7-17.4,10.6-24.6
			c3.8-6.8,7.7-12.4,11.8-16.4c1.3-1.3,3.1-2.8,4.9-3.6c0.2,1.1,0.3,2.5,0.3,4.5c0,6.8-1.3,13.4-3.9,19.7
			c-2.7,6.5-6.3,12.4-10.8,17.5c-4.4,5-9.6,9.1-15.4,12.2C1485.6,197.8,1485.3,197.9,1485.1,198L1485.1,198z"/>
	</g>
	<g id="XMLID_865_">
		<path id="XMLID_21_" fill="#FFFFFF" d="M1542.5,320l44.8-211.5h69.3l-3.2,15.4c3.3-2.6,6.8-4.9,10.3-6.9c4.3-2.5,8.8-4.5,13.4-6
			c4.9-1.6,10.1-2.4,15.5-2.4c5.4,0,10.3,1.1,14.5,3.1c4.1,2,7.7,4.8,10.5,8.1c2.8,3.3,5,7.2,6.4,11.6c1.4,4.2,2,8.6,2,13.1
			c0,4.1-0.7,8.3-2.1,12.3c-1.4,4.2-3.6,7.9-6.5,11.2c-2.9,3.3-6.6,6-10.9,8.1c-4.4,2.1-9.5,3.2-15.2,3.2c-5,0-8.8-0.9-11.8-2.9
			c-2.8-1.8-5-4.2-6.5-7c-1.3-2.4-2.2-5.1-2.8-7.9c-0.4-2.2-0.9-4.2-1.4-6c-0.3-1-0.6-1.9-0.9-2.6c-4.9,0-8.8,1.1-12,3.2
			c-3.5,2.4-7.4,5.5-11.6,9.3L1611.9,320H1542.5z"/>
		<path id="XMLID_18_" fill="#8D563E" d="M1692.8,114.3c4.6,0,8.6,0.8,12,2.5c3.4,1.7,6.3,3.9,8.7,6.6c2.3,2.7,4.1,5.9,5.3,9.6
			c1.2,3.6,1.8,7.4,1.8,11.3c0,3.5-0.6,7-1.8,10.4c-1.2,3.5-3,6.5-5.4,9.3c-2.4,2.7-5.4,5-9.1,6.7c-3.6,1.8-7.9,2.6-12.7,2.6
			c-3.8,0-6.7-0.6-8.7-2c-2-1.3-3.5-2.9-4.6-4.9c-1-2-1.8-4.1-2.2-6.3c-0.5-2.3-0.9-4.4-1.5-6.3c-0.5-2-1.2-3.6-2.1-4.9
			c-0.8-1.3-2.2-2-4.2-2c-6.1,0-11.3,1.4-15.4,4.2c-4.2,2.8-8.7,6.5-13.7,11l-32,152h-57.6l42.4-200h57.6l-5.1,24.8
			c3.5-3.1,7.1-6.2,10.7-9.2c3.6-3,7.5-5.6,11.4-7.9c4-2.3,8.1-4.1,12.4-5.6C1683.4,115,1688,114.3,1692.8,114.3 M1692.8,102.7
			c-6,0-11.9,0.9-17.3,2.7c-4.7,1.6-9.2,3.6-13.5,6l1.8-8.7h-14.1H1592h-9.3l-1.9,9.1l-42.4,200l-2.9,13.9h14.2h57.6h9.3l1.9-9.1
			l31.3-148.3c3.5-3,6.7-5.6,9.6-7.5c1.3-0.9,2.8-1.5,4.7-1.9c0.3,1.1,0.5,2.3,0.8,3.5c0.7,3.4,1.8,6.6,3.4,9.5
			c2,3.7,4.8,6.8,8.5,9.1c3.9,2.5,8.8,3.8,14.9,3.8c6.5,0,12.5-1.3,17.7-3.8c5-2.4,9.3-5.6,12.7-9.5c3.4-3.9,6-8.3,7.6-13.2
			c1.6-4.6,2.4-9.4,2.4-14.2c0-5.1-0.8-10.1-2.3-14.9c-1.6-5.1-4.2-9.7-7.5-13.5c-3.4-3.9-7.5-7.1-12.4-9.5
			C1704.8,104,1699.1,102.7,1692.8,102.7L1692.8,102.7z"/>
	</g>
</g>
</svg>
