<?xml version="1.0" encoding="utf-8"?>
<!-- Generator: Adobe Illustrator 19.0.0, SVG Export Plug-In . SVG Version: 6.00 Build 0)  -->
<svg version="1.1" id="Camada_1" xmlns="http://www.w3.org/2000/svg" xmlns:xlink="http://www.w3.org/1999/xlink" x="0px" y="0px"
	 viewBox="-819.3 -289.6 880.8 880.8" style="enable-background:new -819.3 -289.6 880.8 880.8;" xml:space="preserve">
<style type="text/css">
	.st0{fill:#FFA0F8;}
	.st1{fill:#FF9596;}
	.st2{display:none;}
	.st3{display:inline;}
</style>
<g>
	<circle id="XMLID_106_" class="st0" cx="-378.9" cy="150.8" r="440.4"/>
	<g id="XMLID_15_">
		<g id="XMLID_49_">
			<path id="XMLID_52_" class="st1" d="M-578.1,218h-64.4c-8.8,0-16-7.2-16-16s7.2-16,16-16h64.4c8.8,0,16,7.2,16,16
				C-562.5,210.8-569.3,218-578.1,218z"/>
			<path id="XMLID_50_" class="st1" d="M-114.9,218h-64.4c-8.8,0-16-7.2-16-16s7.2-16,16-16h64.4c8.8,0,16,7.2,16,16
				S-106.1,218-114.9,218z"/>
		</g>
		<circle id="XMLID_45_" cx="-610.5" cy="114" r="30"/>
		<path id="XMLID_39_" d="M-303.7,128c-8.8,0-16,7.2-16,16c0,12-9.6,21.6-21.6,21.6s-21.6-9.6-21.6-21.6c0-8.8-7.2-16-16-16
			s-16,7.2-16,16c0,12-9.6,21.6-21.6,21.6s-21.6-9.6-21.6-21.6c0-8.8-7.2-16-16-16s-16,7.2-16,16c0,29.6,24,53.6,53.6,53.6
			c14.8,0,28-6,37.6-15.6c9.6,9.6,22.8,15.6,37.6,15.6c29.6,0,53.6-24,53.6-53.6C-287.7,135.2-294.9,128-303.7,128z"/>
		<circle id="XMLID_37_" cx="-146.9" cy="114" r="30"/>
	</g>
</g>
<g id="XMLID_17_" class="st2">
	<g id="XMLID_21_" class="st3">
		<path id="XMLID_23_" class="st1" d="M-457.4,177.3h-25.3c-3.5,0-6.3-2.8-6.3-6.3s2.8-6.3,6.3-6.3h25.3c3.5,0,6.3,2.8,6.3,6.3
			C-451.1,174.5-454,177.3-457.4,177.3z"/>
		<path id="XMLID_22_" class="st1" d="M-275,177.3h-25.3c-3.5,0-6.3-2.8-6.3-6.3s2.8-6.3,6.3-6.3h25.3c3.5,0,6.3,2.8,6.3,6.3
			S-271.5,177.3-275,177.3z"/>
	</g>
	<circle id="XMLID_20_" class="st3" cx="-470.1" cy="136.2" r="11.8"/>
	<path id="XMLID_19_" class="st3" d="M-349.3,141.8c-3.5,0-6.3,2.8-6.3,6.3c0,4.7-3.8,8.5-8.5,8.5c-4.7,0-8.5-3.8-8.5-8.5
		c0-3.5-2.8-6.3-6.3-6.3s-6.3,2.8-6.3,6.3c0,4.7-3.8,8.5-8.5,8.5c-4.7,0-8.5-3.8-8.5-8.5c0-3.5-2.8-6.3-6.3-6.3s-6.3,2.8-6.3,6.3
		c0,11.6,9.5,21.1,21.1,21.1c5.8,0,11-2.3,14.8-6.1c3.8,3.8,9,6.1,14.8,6.1c11.6,0,21.1-9.5,21.1-21.1
		C-343,144.6-345.8,141.8-349.3,141.8z"/>
	<circle id="XMLID_18_" class="st3" cx="-287.6" cy="136.2" r="11.8"/>
</g>
</svg>
