<?xml version="1.0" encoding="utf-8"?>
<!-- Generator: Adobe Illustrator 19.0.0, SVG Export Plug-In . SVG Version: 6.00 Build 0)  -->
<svg version="1.1" id="Camada_1" xmlns="http://www.w3.org/2000/svg" xmlns:xlink="http://www.w3.org/1999/xlink" x="0px" y="0px"
	 viewBox="0 0 581.2 506" enable-background="new 0 0 581.2 506" xml:space="preserve">
<g id="XMLID_141_">
	<path id="XMLID_610_" fill="#FF6464" d="M0,159.4C0,71.4,71.4,0,159.4,0c39,0,74.8,14.1,102.5,37.4c16.6,14,40.9,14,57.6,0
		C347.1,14.1,382.8,0,421.9,0c88,0,159.4,71.4,159.4,159.4v-4.7c0,154.6-188,294-261.6,342.6c-17.6,11.7-40.5,11.7-58.1,0
		C188,448.6,0,309.2,0,154.7"/>
	<path id="XMLID_607_" fill="#D2555A" d="M83.3,144.1c0,0.8,0,1.5,0,2.3C83.3,145.6,83.3,144.8,83.3,144.1c0-1,0-2,0-3.1
		C83.3,142,83.3,143.1,83.3,144.1C84.1,85,113.1,32.6,157.4,0C71,1.1,1.1,70.9,0,157.4c2.2,153.5,188.4,291.6,261.5,339.9
		c17.6,11.7,40.5,11.7,58.1,0c2.2-1.4,4.5-3,6.9-4.6C229.2,419.8,85.4,287.9,83.3,144.1z"/>
	<path id="XMLID_305_" display="none" fill="#8D563E" d="M590.6,154.7c0-0.4,0-0.9-0.1-1.3c0-0.1,0-0.1,0-0.2
		C587.3,63,512.9-9.4,421.9-9.4c-39.7,0-78.2,14.1-108.5,39.6c-13.2,11.1-32.3,11.1-45.5,0C237.6,4.7,199-9.4,159.4-9.4
		C68.4-9.4-6,63-9.3,153.2c0,0.1,0,0.1,0,0.2c-0.1,0.4-0.1,0.8-0.1,1.3v4.7c0,0.4,0,0.8,0.1,1.2c0,0,0,0.1,0,0.1
		C-4.7,315.9,177.5,453,256.4,505.1c10.4,6.9,22.3,10.3,34.2,10.3c11.9,0,23.8-3.4,34.2-10.3c78.9-52.2,261.1-189.2,265.7-344.5
		c0,0,0-0.1,0-0.1c0-0.4,0.1-0.8,0.1-1.2L590.6,154.7L590.6,154.7z M314.5,489.5c-14.5,9.6-33.3,9.6-47.8,0
		c-34.4-22.7-100.5-69.9-156.7-130.2C44.2,288.7,10.3,220.8,9.4,157.4c0-0.1,0-0.1,0-0.2c0-0.1,0-0.2,0-0.3
		C10.7,75.4,77.5,9.4,159.4,9.4c35.2,0,69.5,12.5,96.4,35.2c20.2,17,49.5,17,69.6,0c26.9-22.7,61.2-35.2,96.4-35.2
		c81.9,0,148.7,66,150,147.6c0,0.1,0,0.2,0,0.3c0,0.1,0,0.1,0,0.2c-0.9,63.4-34.8,131.3-100.6,201.9
		C415,419.6,348.9,466.8,314.5,489.5z"/>
	<g id="XMLID_258_">
	</g>
	<g id="XMLID_239_">
	</g>
	<g id="XMLID_236_">
	</g>
	<g id="XMLID_211_">
	</g>
	<g id="XMLID_210_">
	</g>
	<g id="XMLID_208_">
	</g>
	<g id="XMLID_206_">
	</g>
	<g id="XMLID_205_">
	</g>
	<g id="XMLID_203_">
	</g>
	<g id="XMLID_202_">
	</g>
	<g id="XMLID_201_">
	</g>
	<g id="XMLID_200_">
	</g>
	<g id="XMLID_197_">
	</g>
	<g id="XMLID_187_">
	</g>
	<g id="XMLID_186_">
	</g>
	<path id="XMLID_514_" fill="#FFFFFF" d="M507.5,82.1c-2.4,0-4.8-0.9-6.6-2.7c-9.4-9.2-20.1-16.7-31.9-22.2
		c-4.7-2.2-6.7-7.7-4.6-12.4c2.2-4.7,7.7-6.7,12.4-4.6c13.8,6.4,26.3,15.1,37.2,25.8c3.7,3.6,3.7,9.6,0.1,13.3
		C512.4,81.1,509.9,82.1,507.5,82.1z"/>
	<path id="XMLID_311_" fill="#FFFFFF" d="M553.1,157.2c0,0.1,0,0.2,0,0.3c-0.5,30.9-10,63.8-28.1,97.6c-1.7,3.2-4.9,5-8.3,5
		c-1.5,0-3-0.4-4.4-1.1c-4.6-2.4-6.3-8.1-3.8-12.7c16.7-31.1,25.4-61.1,25.9-89c-0.3-18-4.7-35.1-13.1-50.9
		c-2.4-4.6-0.7-10.2,3.9-12.7c4.6-2.4,10.2-0.7,12.7,3.9C547.4,115.8,552.7,136.4,553.1,157.2z"/>
</g>
</svg>
