<?xml version="1.0" encoding="utf-8"?>
<!-- Generator: Adobe Illustrator 19.0.0, SVG Export Plug-In . SVG Version: 6.00 Build 0)  -->
<svg version="1.1" id="Camada_1" xmlns="http://www.w3.org/2000/svg" xmlns:xlink="http://www.w3.org/1999/xlink" x="0px" y="0px"
	 viewBox="0 0 138.4 200" enable-background="new 0 0 138.4 200" xml:space="preserve">
<g id="XMLID_166_">
	<path id="XMLID_4681_" fill="#9B5A50" d="M75.6,0L52.5,48.8h34.1l22.6-48.1c0-0.2,0.2-0.4,0.2-0.7C109.5,0,75.6,0,75.6,0z"/>
	<polygon id="XMLID_4680_" fill="#AA6455" points="84,0 61,48.8 77.8,48.8 100.9,0 	"/>
	<path id="XMLID_4679_" fill="#AA6455" d="M29.3,0c0,0.2,0.2,0.4,0.2,0.7l22.6,48.1h34.1L63.2,0C63.2,0,29.3,0,29.3,0z"/>
	<polygon id="XMLID_4661_" fill="#9B5A50" points="38.1,0 61.2,48.8 78,48.8 55,0 	"/>
	<circle id="XMLID_4660_" fill="#FFC36E" cx="69.2" cy="63.9" r="8.4"/>
	<circle id="XMLID_4659_" fill="#FFD782" cx="69.2" cy="130.8" r="69.2"/>
	<ellipse id="XMLID_4654_" fill="#FFD782" cx="69.2" cy="130.8" rx="53.7" ry="50.1"/>
	<path id="XMLID_4653_" fill="none" stroke="#AA6455" stroke-miterlimit="10" d="M48.1,52.5v-2.4c0-1.6,1.1-2.7,2.7-2.7h36.8
		c1.6,0,2.7,1.1,2.7,2.7v2.4c0,1.6-1.1,2.7-2.7,2.7H50.8C49.4,55.2,48.1,54.1,48.1,52.5z"/>
	<g id="XMLID_4361_">
	</g>
	<g id="XMLID_4344_">
	</g>
	<g id="XMLID_4264_">
	</g>
	<g id="XMLID_192_">
	</g>
	<g id="XMLID_191_">
	</g>
	<g id="XMLID_177_">
	</g>
	<g id="XMLID_176_">
	</g>
	<g id="XMLID_175_">
	</g>
	<g id="XMLID_174_">
	</g>
	<g id="XMLID_173_">
	</g>
	<g id="XMLID_172_">
	</g>
	<g id="XMLID_171_">
	</g>
	<g id="XMLID_169_">
	</g>
	<g id="XMLID_168_">
	</g>
	<g id="XMLID_167_">
	</g>
	<circle id="XMLID_4652_" fill="none" stroke="#FFC36E" stroke-width="4" stroke-miterlimit="10" cx="69.2" cy="130.8" r="53.5"/>
</g>
</svg>
