<?xml version="1.0" encoding="utf-8"?>
<!-- Generator: Adobe Illustrator 19.0.0, SVG Export Plug-In . SVG Version: 6.00 Build 0)  -->
<svg version="1.1" id="Camada_1" xmlns="http://www.w3.org/2000/svg" xmlns:xlink="http://www.w3.org/1999/xlink" x="0px" y="0px"
	 viewBox="0 0 1405.8 800" enable-background="new 0 0 1405.8 800" xml:space="preserve">
<g id="XMLID_3951_">
	<g id="XMLID_4053_">
		<path id="XMLID_4080_" fill="#FFC36E" d="M1022.1,114.3v137.1c0,25.3-20.5,45.7-45.7,45.7H427.5c-25.3,0-45.7-20.5-45.7-45.7
			V114.3c0-25.3,20.5-45.7,45.7-45.7h548.9C1001.6,68.6,1022.1,89.1,1022.1,114.3z M656.2,777.1h91.5V342.9h-91.5V777.1L656.2,777.1
			z"/>
		<path id="XMLID_4079_" fill="#FFC36E" d="M953.5,45.7v205.6c0,118.6-90.3,216.1-205.8,227.6v46.8c0,12.6-10.2,22.9-22.9,22.9l0,0
			c-12.6,0-22.9-10.2-22.9-22.9V480H679c-126.3,0-228.7-102.4-228.7-228.7V45.7c0-25.3,20.5-45.7,45.7-45.7h411.7
			C933,0,953.5,20.5,953.5,45.7z"/>
		<path id="XMLID_4078_" fill="#FFD782" d="M496.1,0h245.4c3.9,6.7,6.2,14.5,6.2,22.9v205.7c0,109.1-76.5,200.4-178.9,223.1
			c-70.6-38.9-118.4-114-118.4-200.3V45.7C450.3,20.5,470.8,0,496.1,0z"/>
		<path id="XMLID_4075_" fill="#FFFFFF" d="M698.5,388.6c0,9.5-7.7,17.1-17.2,17.1H679c-9.5,0-17.2-7.7-17.2-17.1
			s7.7-17.1,17.2-17.1h2.3C690.8,371.4,698.5,379.1,698.5,388.6z M862,74.3c-9.5,0-17.2,7.7-17.2,17.1v160
			c0,58.3-41.6,107.9-98.9,118.1c-9.3,1.7-15.5,10.6-13.9,19.9c1.5,8.3,8.7,14.1,16.9,14.1c1,0,2-0.1,3-0.3
			c73.7-13.1,127.2-77,127.2-151.9v-160C879.1,82,871.5,74.3,862,74.3z"/>
		<path id="XMLID_4074_" fill="#AA6455" d="M907.7,776.9v0.2c0,12.6-10.2,22.8-22.8,22.8H518.9c-12.6,0-22.8-10.2-22.8-22.8v-0.2
			c0-50.4,40.8-91.2,91.2-91.2h23.1v-68.6c0-12.6,10.2-22.9,22.9-22.9h137.2c12.6,0,22.9,10.2,22.9,22.9v68.6h23.1
			C866.9,685.7,907.7,726.6,907.7,776.9z"/>
		<path id="XMLID_4073_" fill="#9B5A50" d="M498.9,754.3c10.1-39.4,45.8-68.5,88.4-68.5h229.2c3.7,0,7.3,0.2,10.8,0.7
			c7.5,13.2,11.8,28.5,11.8,44.8v0.2c0,12.6-10.2,22.8-22.8,22.8H498.9z"/>
		<path id="XMLID_4069_" fill="#FFFFFF" d="M433.9,108.6c-9.5,0-17.2,7.7-17.2,17.1V240c0,9.5,7.7,17.1,17.2,17.1S451,249.5,451,240
			V125.7C451,116.2,443.4,108.6,433.9,108.6z M964,108.6c-9.5,0-17.2,7.7-17.2,17.1V240c0,9.5,7.7,17.1,17.2,17.1
			c9.5,0,17.2-7.7,17.2-17.1V125.7C981.2,116.2,973.5,108.6,964,108.6z"/>
		<g id="XMLID_4068_">
		</g>
		<g id="XMLID_4067_">
		</g>
		<g id="XMLID_4066_">
		</g>
		<g id="XMLID_4065_">
		</g>
		<g id="XMLID_4064_">
		</g>
		<g id="XMLID_4063_">
		</g>
		<g id="XMLID_4062_">
		</g>
		<g id="XMLID_4061_">
		</g>
		<g id="XMLID_4060_">
		</g>
		<g id="XMLID_4059_">
		</g>
		<g id="XMLID_4058_">
		</g>
		<g id="XMLID_4057_">
		</g>
		<g id="XMLID_4056_">
		</g>
		<g id="XMLID_4055_">
		</g>
		<g id="XMLID_4054_">
		</g>
	</g>
	<g id="XMLID_3985_">
		<g id="XMLID_4051_">
			<path id="XMLID_73_" fill="#FFFFFF" d="M127.9,514.3l-31.7-136l-31.3,136H28.8l44.6-203.1c-9.9,4.5-17.6,10.8-22.9,18.7
				c-6.5,9.6-9.8,21.4-9.8,35.3c0,6.1,0.7,11.7,2,16.7c1.3,4.8,3.1,8.7,5.3,11.7l4.6,6H45c-13.7,0-24-2.9-30.8-8.7
				c-6.9-5.9-10.5-15.2-10.5-27.5c0-7.5,1.2-14.8,3.5-21.8c2.3-6.9,5.6-13.6,9.7-19.7c4.1-6.1,9.1-11.7,14.9-16.8
				c5.8-5,12.2-9.4,19.2-13c7-3.6,14.5-6.4,22.5-8.4c8-2,16.4-3,25.1-3c4.9,0,9.2,0.3,12.9,1c3.7,0.7,7.7,1.8,12.1,3.3l2,0.7
				l32.8,145.6L189,282.4h36.9l-50.6,231.9H127.9z"/>
			<path id="XMLID_68_" fill="#8D563E" d="M98.6,284.4c4.7,0,8.8,0.3,12.2,1c3.5,0.6,7.3,1.7,11.5,3.1L158.5,449l33.5-162.9h29.2
				l-48.9,224.4h-41.5L96.1,361.7L61.8,510.5H33.4L78.5,305c-13.9,4.9-24.3,12.5-31.2,22.7c-6.9,10.3-10.4,22.7-10.4,37.4
				c0,6.4,0.7,12.3,2.1,17.7c1.4,5.3,3.4,9.6,5.9,13c-12.8,0-22.2-2.6-28.3-7.8c-6.1-5.2-9.2-13.5-9.2-24.7c0-7.1,1.1-14,3.3-20.7
				c2.2-6.6,5.3-12.9,9.2-18.8c4-5.9,8.7-11.2,14.3-16c5.6-4.8,11.7-9,18.5-12.5c6.7-3.5,14-6.2,21.7-8.1
				C82.1,285.3,90.2,284.4,98.6,284.4 M98.6,276.9c-9,0-17.7,1-26,3.1c-8.2,2-16.1,4.9-23.3,8.7c-7.2,3.7-14,8.3-19.9,13.5
				c-6,5.2-11.3,11.1-15.6,17.5c-4.3,6.4-7.7,13.3-10.1,20.6c-2.4,7.4-3.7,15.1-3.7,23c0,13.5,4,23.7,11.8,30.4
				c7.6,6.5,18.4,9.6,33.2,9.6h4.3L26.1,508.9l-2,9.1h9.3h28.4h6l1.3-5.8l27-117.3l27.4,117.4l1.3,5.8h5.9h41.5h6l1.3-5.9
				l48.9-224.4l2-9.1h-9.3h-29.2H186l-1.2,6l-26.5,128.9l-28.5-126.7l-0.9-4.1l-3.9-1.4c-4.5-1.6-8.8-2.7-12.6-3.4
				C108.3,277.2,103.7,276.9,98.6,276.9L98.6,276.9z M51.7,392.2l-0.8-1c-1.9-2.5-3.5-6-4.6-10.3c-1.2-4.7-1.9-10-1.9-15.7
				c0-13.1,3.1-24.2,9.1-33.2c3.7-5.5,8.5-10,14.4-13.7L51.7,392.2L51.7,392.2z"/>
		</g>
		<g id="XMLID_4048_">
			<path id="XMLID_81_" fill="#FFFFFF" d="M249,516c-7.5,0-14.4-1-20.5-2.9c-6.3-2-11.7-5.1-16.2-9.3c-4.5-4.2-8-9.6-10.4-16.2
				c-2.3-6.4-3.5-14.1-3.5-23c0-5.9,0.6-12.8,1.8-20.5c1.2-7.7,3.1-15.7,5.7-23.7c2.6-8.1,6.1-16.2,10.4-24
				c4.3-7.9,9.7-15,15.9-21.3c6.2-6.3,13.7-11.4,22-15.3c8.5-3.9,18.2-5.8,28.9-5.8c7.2,0,13.2,0.9,17.8,2.7
				c4.8,1.8,8.6,4.3,11.5,7.3c2.9,3.1,4.9,6.7,6,10.8c1,3.8,1.5,7.7,1.5,11.7c0,9.2-2.1,18-6.1,25.9c-4,7.9-9.5,14.8-16.2,20.7
				c-6.7,5.8-14.4,10.6-23.1,14.1c-7.6,3.1-15.7,5.2-23.9,6c-0.1,1.1-0.2,2.2-0.2,3.2c-0.1,1.9-0.2,3.7-0.2,5.4
				c0,4.7,0.4,8.6,1.2,11.5c0.8,2.7,1.8,4.7,3.2,6.1c1.3,1.4,3,2.3,5,2.9c2.4,0.6,5.2,1,8.5,1c5.5,0,10.6-0.7,15-2.2
				c4.5-1.5,8.8-3.5,12.7-6c4-2.6,7.8-5.7,11.4-9.2c3.7-3.7,7.5-7.6,11.2-11.7l1.1-1.2h18.5l-3.4,5.7c-4.3,7.2-9.2,14.2-14.7,21
				c-5.6,6.8-11.9,13-18.9,18.3c-7,5.4-14.9,9.8-23.5,13C268.9,514.3,259.3,516,249,516z M285.7,377.5c-2.8,0-5.6,1.5-8.6,4.4
				c-3.4,3.4-6.7,7.9-9.7,13.4c-3.1,5.6-5.9,12.1-8.3,19.2c-1.8,5.5-3.4,11-4.7,16.5c3.4-0.7,6.7-2,9.9-3.7c4.9-2.6,9.2-6,12.9-10.2
				c3.7-4.2,6.7-9.1,8.9-14.5c2.2-5.3,3.3-10.9,3.3-16.7c0-3.1-0.4-5.6-1.2-7.3C287.8,378,287.4,377.5,285.7,377.5z"/>
			<path id="XMLID_76_" fill="#8D563E" d="M283.2,357.9c6.7,0,12.2,0.8,16.5,2.4c4.2,1.6,7.6,3.7,10.1,6.4c2.5,2.6,4.2,5.7,5.1,9.2
				c0.9,3.5,1.4,7.1,1.4,10.8c0,8.7-1.9,16.8-5.7,24.2c-3.8,7.5-8.9,14-15.3,19.6c-6.4,5.6-13.7,10.1-22,13.5
				c-8.3,3.4-16.9,5.4-25.9,6c-0.2,2.2-0.4,4.4-0.5,6.4c-0.1,2-0.2,3.9-0.2,5.6c0,5.1,0.5,9.3,1.4,12.5c0.9,3.3,2.3,5.8,4.1,7.7
				c1.8,1.9,4.1,3.1,6.7,3.9c2.7,0.7,5.8,1.1,9.4,1.1c6,0,11.4-0.8,16.2-2.3c4.8-1.6,9.3-3.7,13.5-6.4c4.2-2.7,8.2-6,11.9-9.7
				c3.8-3.7,7.5-7.7,11.4-11.9h10.3c-4.2,7-9,13.9-14.4,20.5c-5.4,6.6-11.5,12.5-18.3,17.7c-6.8,5.2-14.3,9.4-22.6,12.5
				c-8.3,3.2-17.3,4.8-27.2,4.8c-7.1,0-13.6-0.9-19.3-2.7c-5.8-1.8-10.7-4.6-14.8-8.4c-4.1-3.8-7.3-8.7-9.4-14.7
				c-2.2-6-3.3-13.3-3.3-21.8c0-5.8,0.6-12.4,1.8-19.9c1.2-7.5,3-15.2,5.6-23.1c2.5-7.9,5.9-15.7,10.1-23.3
				c4.2-7.6,9.3-14.4,15.2-20.4c6-6,12.9-10.8,20.9-14.5C263.8,359.7,272.9,357.9,283.2,357.9 M249.6,435.5c5.7-0.4,11.1-2,16.4-4.8
				c5.3-2.8,9.9-6.5,13.9-11.1c4-4.5,7.2-9.7,9.6-15.5c2.4-5.8,3.6-11.8,3.6-18.1c0-3.7-0.5-6.7-1.6-8.9c-1.1-2.2-3-3.4-5.9-3.4
				c-3.8,0-7.5,1.8-11.2,5.5c-3.7,3.7-7.1,8.4-10.3,14.3s-6.1,12.5-8.6,19.8C253.1,420.7,251.1,428.1,249.6,435.5 M283.2,350.4
				c-11.3,0-21.6,2.1-30.5,6.2c-8.8,4-16.6,9.4-23.1,16c-6.4,6.5-12,13.9-16.5,22.1c-4.4,8-8,16.3-10.7,24.6
				c-2.6,8.2-4.6,16.4-5.8,24.3c-1.2,7.9-1.8,15-1.8,21.1c0,9.3,1.3,17.5,3.8,24.3c2.6,7.1,6.4,13,11.4,17.6
				c4.9,4.6,10.8,7.9,17.7,10.1c6.5,2,13.7,3.1,21.6,3.1c10.7,0,20.8-1.8,29.9-5.3c8.9-3.4,17.1-8,24.4-13.6
				c7.2-5.5,13.8-11.9,19.6-18.9c5.6-6.9,10.7-14.1,15.1-21.4l6.8-11.3h-13.2h-10.3h-3.3l-2.2,2.5c-3.7,4.1-7.4,8-11.1,11.6
				c-3.4,3.3-7,6.3-10.8,8.7c-3.6,2.4-7.6,4.2-11.8,5.6c-4.1,1.3-8.7,2-13.9,2c-2.9,0-5.4-0.3-7.5-0.8c-1.4-0.4-2.5-1-3.3-1.9
				c-0.9-0.9-1.7-2.5-2.3-4.5c-0.7-2.6-1.1-6.1-1.1-10.5c0-1.6,0.1-3.3,0.2-5.1c0,0,0-0.1,0-0.1c7.5-1,14.8-3,21.8-5.9
				c9-3.7,17.1-8.7,24.1-14.8c7.1-6.2,12.8-13.5,17.1-21.8c4.3-8.5,6.5-17.8,6.5-27.6c0-4.3-0.6-8.6-1.6-12.7
				c-1.3-4.7-3.6-8.8-6.9-12.4c-3.3-3.5-7.6-6.2-12.9-8.2C297.2,351.3,290.9,350.4,283.2,350.4L283.2,350.4z M259.7,425.4
				c0.9-3.3,1.9-6.5,3-9.7c2.3-6.9,5-13.2,8-18.6c2.9-5.2,5.9-9.5,9.1-12.6c2-2,3.8-3.1,5.4-3.3c0.3,0.9,0.5,2.4,0.5,4.8
				c0,5.2-1,10.4-3,15.2c-2.1,5-4.9,9.5-8.3,13.4c-3.4,3.9-7.4,7-11.8,9.4C261.6,424.6,260.6,425,259.7,425.4L259.7,425.4z"/>
		</g>
		<g id="XMLID_4046_">
			<path id="XMLID_65_" fill="#FFFFFF" d="M429.5,516c-10.5,0-19.2-2.3-26-6.9c-5-3.4-8.8-8-11.2-13.8c-2.4,3-4.8,5.6-7.3,7.7
				c-4,3.5-8.1,6.2-12,8.1c-4,2-7.9,3.3-11.7,3.9c-3.7,0.6-7.1,0.9-10.2,0.9c-4.9,0-9.5-0.8-13.8-2.3c-4.4-1.6-8.3-4-11.6-7.4
				c-3.2-3.3-5.8-7.5-7.7-12.5c-1.8-4.9-2.7-10.8-2.7-17.6c0-2.9,0.2-6,0.6-9.5c0.4-3.4,1-7,1.8-10.9l21-99.2h50.9L367,463.2
				c-0.5,2.3-0.8,4.6-0.8,6.8c0,1.5,0.1,3,0.4,4.3c0.2,1.2,0.6,2.2,1.1,3c0.4,0.7,0.9,1.2,1.5,1.6c0.5,0.3,1.3,0.5,2.3,0.5
				c2.3,0,4.4-0.5,6.3-1.5c2-1.1,3.9-2.7,5.6-4.6c1.8-2.1,3.4-4.6,4.7-7.6c1.4-3.1,2.7-6.4,3.8-10l21-99h50.9l-22.5,106.5
				c-1.3,5.6-1.5,8.6-1.5,10.1c0,2.1,0.5,3.7,1.5,4.8c1.1,1.2,3.3,1.5,5,1.5c4.1,0,7.9-1.4,11.8-4.4c4.2-3.2,8.1-7.4,11.6-12.7
				c3.7-5.4,7-11.6,10.1-18.5c3-7,5.7-14.2,7.8-21.4c2.1-7.2,3.8-14.4,5-21.3c0.7-4.4,1.3-8.4,1.5-12.1c-0.9,0.2-1.9,0.4-2.8,0.5
				c-1.1,0.1-2,0.2-2.7,0.2c-2.5,0-4.8-0.7-6.8-2c-1.8-1.2-3.3-2.8-4.5-4.7c-1.1-1.8-2-3.8-2.5-6c-0.5-2.1-0.8-4.2-0.8-6.2
				c0-5.7,1.9-10.5,5.5-14.3c3.7-3.8,9.4-5.8,16.8-5.8c4.3,0,8,0.9,11,2.7c2.9,1.8,5.3,4.2,7,7.1c1.7,2.8,2.9,6,3.6,9.5
				c0.7,3.4,1,6.9,1,10.4c0,8.1-0.7,17.2-2.1,27c-1.4,9.8-3.6,19.7-6.6,29.6c-3,9.9-6.9,19.7-11.5,28.9
				c-4.7,9.4-10.4,17.8-16.9,25.1c-6.6,7.4-14.3,13.4-22.9,17.9C450.1,513.7,440.2,516,429.5,516z"/>
			<path id="XMLID_39_" fill="#8D563E" d="M496.2,354.5c3.6,0,6.6,0.7,9,2.2c2.4,1.5,4.3,3.4,5.8,5.9c1.5,2.4,2.5,5.2,3.1,8.3
				c0.6,3.1,1,6.3,1,9.7c0,8-0.7,16.8-2.1,26.4c-1.4,9.6-3.5,19.3-6.5,29.1c-3,9.8-6.7,19.2-11.3,28.3c-4.5,9.1-10,17.2-16.3,24.3
				c-6.3,7.1-13.6,12.8-21.8,17.1c-8.2,4.3-17.4,6.4-27.5,6.4c-9.8,0-17.8-2.1-24-6.2c-6.2-4.1-10.2-10.5-11.9-19
				c-3.6,5.5-7.3,9.8-11.1,13.1c-3.8,3.3-7.5,5.8-11.2,7.6c-3.7,1.8-7.2,3-10.7,3.6c-3.5,0.6-6.7,0.9-9.6,0.9
				c-4.5,0-8.7-0.7-12.6-2.1c-3.9-1.4-7.3-3.5-10.2-6.4c-2.9-2.9-5.2-6.6-6.8-11.1c-1.7-4.5-2.5-9.9-2.5-16.3c0-2.7,0.2-5.7,0.6-9
				c0.4-3.3,1-6.8,1.8-10.6l20.4-96.2h43.2l-21.5,102c-0.6,2.5-0.9,5.1-0.9,7.6c0,1.8,0.1,3.4,0.4,5c0.3,1.6,0.8,3,1.5,4.2
				c0.7,1.2,1.6,2.2,2.7,2.9c1.1,0.7,2.6,1.1,4.3,1.1c2.9,0,5.6-0.7,8.1-2c2.4-1.3,4.7-3.1,6.7-5.5c2-2.3,3.8-5.1,5.3-8.4
				c1.5-3.3,2.9-6.8,4-10.6l20.4-96.2H459l-21.5,102c-1.1,4.8-1.6,8.4-1.6,10.8c0,3,0.8,5.4,2.4,7.3c1.6,1.8,4.2,2.7,7.8,2.7
				c4.9,0,9.6-1.7,14.1-5.1c4.5-3.4,8.6-7.9,12.5-13.5c3.8-5.6,7.3-12,10.4-19.1c3.1-7.1,5.8-14.4,8-21.8c2.2-7.4,3.9-14.7,5.1-21.8
				c1.2-7.1,1.8-13.4,1.8-18.8c-0.2,0.5-0.7,0.9-1.5,1.3c-0.8,0.4-1.7,0.7-2.7,1c-1,0.2-2,0.4-2.9,0.5c-1,0.1-1.8,0.1-2.3,0.1
				c-1.8,0-3.3-0.5-4.7-1.4c-1.4-0.9-2.5-2.1-3.4-3.6c-0.9-1.5-1.6-3.1-2.1-4.9c-0.4-1.8-0.7-3.6-0.7-5.3c0-4.7,1.5-8.6,4.5-11.6
				C485,356.1,489.7,354.5,496.2,354.5 M496.2,347c-8.5,0-15.1,2.3-19.5,6.9c-4.4,4.5-6.6,10.2-6.6,16.9c0,2.3,0.3,4.7,0.9,7.1
				c0.6,2.6,1.6,5,3,7.1c1.5,2.3,3.3,4.3,5.6,5.8c2.6,1.8,5.6,2.7,8.9,2.7c0.4,0,0.9,0,1.4,0c-0.3,2.3-0.6,4.7-1.1,7.2
				c-1.2,6.8-2.8,13.8-4.9,20.9c-2.1,7.1-4.7,14.1-7.7,20.9c-2.9,6.7-6.2,12.7-9.7,17.9c-3.3,4.9-7,8.9-10.8,11.8
				c-3.2,2.4-6.3,3.6-9.5,3.6c-1.5,0-2.1-0.2-2.3-0.3c-0.4-0.5-0.4-1.6-0.4-2.2c0-1.1,0.2-3.7,1.4-9.2l0,0l0,0l21.5-102l1.9-9H459
				h-43.2h-6.1l-1.3,5.9l-20.3,95.9c-1,3.3-2.2,6.5-3.6,9.4c-1.2,2.6-2.6,4.9-4.2,6.7c-1.4,1.6-2.9,2.9-4.5,3.8
				c-1.3,0.7-2.8,1.1-4.5,1.1c-0.2,0-0.3,0-0.4,0c0,0-0.1-0.1-0.1-0.2c-0.3-0.5-0.5-1.2-0.6-1.9c-0.2-1.1-0.3-2.3-0.3-3.6
				c0-2,0.2-4,0.7-5.9l0-0.1l0-0.1l21.5-102l1.9-9h-9.2h-43.2h-6.1l-1.3,5.9l-20.4,96.2c-0.8,4-1.5,7.8-1.9,11.3
				c-0.4,3.6-0.6,6.9-0.6,9.9c0,7.2,1,13.5,3,18.9c2,5.5,4.9,10.1,8.5,13.8c3.7,3.7,8.1,6.5,13,8.3c4.7,1.6,9.8,2.5,15.1,2.5
				c3.3,0,7-0.3,10.8-1c4.2-0.7,8.5-2.1,12.8-4.3c4.2-2.1,8.5-5,12.8-8.7c1.4-1.2,2.7-2.5,4.1-3.9c2.6,4.1,5.9,7.6,10,10.3
				c7.4,5,16.9,7.5,28.1,7.5c11.3,0,21.8-2.5,31-7.3c9-4.7,17-11,23.9-18.7c6.8-7.6,12.6-16.3,17.5-26c4.7-9.4,8.6-19.4,11.7-29.5
				c3.1-10.1,5.4-20.2,6.8-30.2c1.4-9.9,2.1-19.2,2.1-27.5c0-3.8-0.4-7.6-1.1-11.2c-0.8-4-2.2-7.6-4.1-10.7
				c-2.1-3.5-4.9-6.3-8.3-8.4C505.5,348.1,501.2,347,496.2,347L496.2,347z"/>
		</g>
		<g id="XMLID_4044_">
			<path id="XMLID_54_" fill="#FFFFFF" d="M715.4,519.4c-5.4,0-9.8-0.7-13.3-2.1c-3.6-1.4-6.4-3.3-8.5-5.7c-2.1-2.3-3.6-5-4.3-8
				c-0.7-2.7-1.1-5.4-1.1-8.1c0-5.4,0.9-11.6,2.6-18.6c1.7-6.7,3.5-13.7,5.5-20.9c2-7.1,3.8-14.2,5.5-21.2
				c1.6-6.7,2.4-12.9,2.4-18.3c0-2.7-0.3-5.2-0.8-7.4c-0.5-2-1.3-3.7-2.4-5.1c-1-1.3-2.3-2.3-4-3c-1.9-0.8-4.2-1.2-7.1-1.2
				c-1.3,0-2.7,0.1-4.2,0.2c-0.8,0.1-1.7,0.2-2.6,0.4L659,514.3h-50.7l42.2-198l52.3-6.9L688,379.3c4.7-0.3,8.9-1.8,12.9-4.3
				c4.8-3.1,9-7,12.5-11.7c3.5-4.7,6.3-10.1,8.3-15.8c2-5.7,2.9-11.3,2.9-16.7c0-3.8-0.6-7.4-1.7-10.8c-1.1-3.3-2.8-6.2-5.1-8.7
				c-2.2-2.5-5.2-4.5-8.8-6c-3.7-1.5-8.3-2.3-13.6-2.3c-11.7,0-22.5,1.6-32,4.8c-9.4,3.1-17.6,7.8-24.3,13.7
				c-6.7,5.9-11.9,13.2-15.5,21.6c-3.6,8.5-5.5,18.3-5.5,29.1c0,3.6,0.2,6.5,0.6,8.6c0.4,2.2,0.8,3.9,1.2,5.2
				c0.5,1.5,0.9,2.3,1.1,2.7c0.8,1.4,1.1,2.6,1.1,3.9v3.7h-3.7c-5.5,0-10.4-0.6-14.7-1.7c-4.5-1.2-8.4-3.1-11.5-5.7
				c-3.2-2.6-5.6-6.2-7.2-10.5c-1.6-4.1-2.4-9.2-2.4-15.1c0-7.1,1.6-14.3,4.6-21.2c3-6.8,7.2-13.2,12.5-19.2
				c5.2-5.9,11.4-11.5,18.4-16.5c6.9-5,14.5-9.4,22.5-13c8-3.7,16.4-6.5,25-8.6c8.7-2.1,17.5-3.1,26.1-3.1c12.1,0,22.8,1.4,31.7,4.2
				c9,2.8,16.5,6.7,22.4,11.4c6,4.8,10.5,10.5,13.4,16.7c2.9,6.2,4.4,12.8,4.4,19.5c0,4.9-0.8,10-2.3,15.1c-1.5,5-3.8,10-6.7,14.7
				c-2.9,4.7-6.5,9.2-10.7,13.5c-2.5,2.6-5.3,5-8.3,7.2c1.4,0.7,2.8,1.5,4,2.4c3.1,2.2,5.6,4.8,7.4,7.9c1.8,2.9,3.1,6.2,3.8,9.8
				c0.7,3.4,1.1,7.1,1.1,10.8c0,6.5-0.8,13.4-2.4,20.5c-1.5,6.9-3.2,13.9-5.1,20.6c-1.8,6.7-3.5,13.1-5,19.2
				c-1.4,5.8-2.2,11-2.2,15.5c0,4,0.9,7.5,2.6,10.5c1.7,2.8,3.9,4.7,6.7,5.8l10.5,4l-10.8,3.1c-6.6,1.9-12.4,3.3-17.4,4.1
				C723.7,519,719.2,519.4,715.4,519.4z"/>
			<path id="XMLID_40_" fill="#8D563E" d="M691.7,285.5c11.8,0,22,1.3,30.5,4c8.5,2.7,15.6,6.3,21.2,10.8c5.6,4.5,9.7,9.6,12.4,15.4
				c2.7,5.8,4,11.7,4,17.9c0,4.6-0.7,9.3-2.1,14c-1.4,4.7-3.5,9.4-6.3,13.8c-2.8,4.5-6.2,8.8-10.2,12.8c-4,4.1-8.6,7.6-13.8,10.6
				c3.9,1.2,7.2,2.7,9.9,4.6c2.7,1.9,4.8,4.2,6.4,6.7c1.6,2.6,2.7,5.5,3.4,8.6c0.7,3.2,1,6.5,1,10c0,6.3-0.8,12.8-2.3,19.7
				c-1.5,6.9-3.2,13.7-5.1,20.4c-1.9,6.7-3.5,13.2-5.1,19.3c-1.5,6.2-2.3,11.6-2.3,16.4c0,4.7,1,8.8,3.1,12.4c2.1,3.6,5,6,8.6,7.4
				c-6.4,1.9-12.1,3.2-17,4c-4.9,0.8-9.1,1.2-12.7,1.2c-4.9,0-8.8-0.6-11.9-1.8c-3-1.2-5.4-2.8-7.1-4.7c-1.7-1.9-2.9-4.1-3.5-6.4
				c-0.6-2.4-1-4.8-1-7.1c0-5.1,0.8-11,2.5-17.7c1.7-6.7,3.5-13.6,5.5-20.8c2-7.2,3.8-14.3,5.5-21.3c1.7-7,2.5-13.4,2.5-19.2
				c0-3-0.3-5.8-1-8.3c-0.6-2.5-1.6-4.6-3-6.4c-1.4-1.8-3.2-3.2-5.6-4.2c-2.3-1-5.2-1.5-8.5-1.5c-1.4,0-2.9,0.1-4.5,0.2
				c-1.7,0.1-3.5,0.5-5.4,1l-24,113.1h-43.1l40.7-190.9l44.4-5.9l-14.6,69.3h2.3c6.2,0,12-1.7,17.2-5c5.2-3.3,9.7-7.5,13.5-12.6
				c3.8-5.1,6.7-10.7,8.8-16.8c2.1-6.2,3.1-12.1,3.1-17.9c0-4.2-0.6-8.2-1.9-12c-1.3-3.8-3.2-7.2-5.9-10c-2.6-2.9-6-5.2-10.2-6.9
				c-4.2-1.7-9.2-2.6-15-2.6c-12.2,0-23.3,1.7-33.2,5c-9.9,3.3-18.4,8.1-25.6,14.4c-7.1,6.3-12.6,13.9-16.5,22.9
				c-3.9,9-5.8,19.2-5.8,30.6c0,3.8,0.2,6.9,0.7,9.3c0.4,2.4,0.9,4.3,1.4,5.7c0.5,1.4,1,2.5,1.4,3.3c0.4,0.8,0.7,1.5,0.7,2.1
				c-5.2,0-9.8-0.5-13.8-1.5c-4-1-7.3-2.7-10-4.9c-2.7-2.2-4.7-5.2-6.2-8.9c-1.4-3.7-2.1-8.3-2.1-13.8c0-6.6,1.4-13.2,4.3-19.6
				c2.9-6.4,6.8-12.5,11.9-18.3c5-5.8,10.9-11.1,17.7-16c6.8-4.9,14.1-9.1,21.8-12.7c7.8-3.6,15.9-6.3,24.3-8.3
				C674.9,286.5,683.3,285.5,691.7,285.5 M691.7,278c-8.9,0-18,1.1-27,3.2c-8.9,2.1-17.5,5.1-25.7,8.8c-8.2,3.8-15.9,8.3-23.1,13.4
				c-7.2,5.2-13.6,11-19,17.1c-5.5,6.3-9.9,13.1-13.1,20.2c-3.3,7.4-5,15-5,22.7c0,6.4,0.9,11.9,2.6,16.4c1.9,4.9,4.7,8.9,8.3,12
				c3.5,3,7.9,5.1,13,6.4c4.6,1.2,9.8,1.8,15.6,1.8h7.5v-7.5c0-1.9-0.5-3.8-1.6-5.7c-0.1-0.1-0.4-0.7-0.8-2.1
				c-0.3-0.7-0.6-2.1-1.1-4.6c-0.4-1.9-0.5-4.6-0.5-7.9c0-10.4,1.7-19.7,5.2-27.7c3.4-7.9,8.3-14.7,14.6-20.3
				c1.3-1.2,2.7-2.3,4.1-3.3L605.6,509l-1.9,9.1h9.3H656h6.1l1.3-5.9l23-108.2c1.4-0.1,2.6-0.2,3.7-0.2c2.3,0,4.2,0.3,5.6,0.9
				c1.1,0.5,1.9,1,2.5,1.8c0.8,1,1.3,2.2,1.7,3.8c0.5,1.9,0.7,4,0.7,6.4c0,5.2-0.8,11-2.3,17.5c-1.6,6.9-3.5,14-5.4,21
				c-2,7.2-3.9,14.3-5.5,21c-1.8,7.2-2.7,13.8-2.7,19.5c0,3,0.4,6,1.2,9c0.9,3.5,2.7,6.7,5.2,9.5c2.5,2.7,5.8,5,9.9,6.6
				c4,1.6,8.8,2.4,14.7,2.4c4,0,8.7-0.4,13.9-1.3c5.2-0.8,11.2-2.2,17.9-4.2l21.7-6.2l-21.1-8c-2-0.8-3.5-2.1-4.8-4.2
				c-1.4-2.4-2.1-5.2-2.1-8.6c0-4.2,0.7-9.1,2.1-14.6c1.5-6.1,3.2-12.5,5-19.1c1.9-6.8,3.6-13.8,5.1-20.8c1.6-7.4,2.4-14.6,2.4-21.3
				c0-4-0.4-7.9-1.2-11.6c-0.9-4-2.3-7.6-4.3-10.9c-2-3.3-4.7-6.3-8.1-8.7c1.6-1.3,3.1-2.7,4.5-4.2c4.4-4.4,8.2-9.2,11.2-14.1
				c3.1-5,5.5-10.3,7.1-15.6c1.6-5.4,2.4-10.8,2.4-16.1c0-7.2-1.6-14.3-4.7-21c-3.2-6.8-8-12.9-14.5-18c-6.3-5.1-14.2-9.1-23.6-12.1
				C715.3,279.5,704.2,278,691.7,278L691.7,278z M668.8,310.1c7.6-2.1,16-3.2,25.1-3.3L668.8,310.1L668.8,310.1z M692.8,374.6
				l12.5-59.2l1.4-6.9c0.3,0.1,0.5,0.2,0.8,0.3c3.1,1.3,5.6,3,7.5,5c1.9,2.1,3.3,4.5,4.3,7.3c1,3,1.5,6.3,1.5,9.6
				c0,4.9-0.9,10.1-2.7,15.5c-1.8,5.4-4.4,10.4-7.7,14.8c-3.2,4.3-7.1,7.9-11.5,10.7C697,373,694.9,374,692.8,374.6L692.8,374.6z"/>
		</g>
		<g id="XMLID_4041_">
			<path id="XMLID_60_" fill="#FFFFFF" d="M807.9,516c-7.5,0-14.4-1-20.5-2.9c-6.3-2-11.7-5.1-16.2-9.3c-4.5-4.2-8-9.6-10.4-16.2
				c-2.3-6.4-3.5-14.1-3.5-23c0-5.9,0.6-12.8,1.8-20.5c1.2-7.7,3.1-15.7,5.7-23.7c2.6-8.1,6.1-16.2,10.4-24
				c4.3-7.9,9.7-15,15.9-21.3c6.2-6.3,13.7-11.4,22-15.3c8.5-3.9,18.2-5.8,28.9-5.8c7.2,0,13.2,0.9,17.8,2.7
				c4.8,1.8,8.6,4.3,11.5,7.3c2.9,3.1,4.9,6.7,6,10.8c1,3.8,1.5,7.7,1.5,11.7c0,9.2-2.1,18-6.1,25.9c-4,7.9-9.5,14.8-16.2,20.7
				c-6.7,5.8-14.4,10.6-23.1,14.1c-7.6,3.1-15.7,5.2-23.9,6c-0.1,1.1-0.2,2.2-0.2,3.2c-0.1,1.9-0.2,3.7-0.2,5.4
				c0,4.7,0.4,8.6,1.2,11.5c0.8,2.7,1.8,4.7,3.2,6.1c1.3,1.4,3,2.3,5,2.9c2.4,0.6,5.2,1,8.5,1c5.5,0,10.6-0.7,15-2.2
				c4.5-1.5,8.8-3.5,12.7-6c4-2.6,7.8-5.7,11.4-9.2c3.7-3.7,7.5-7.6,11.2-11.7l1.1-1.2h18.5l-3.4,5.7c-4.3,7.2-9.2,14.2-14.7,21
				c-5.6,6.8-11.9,13-18.9,18.3c-7,5.4-14.9,9.8-23.5,13C827.7,514.3,818.2,516,807.9,516z M844.5,377.5c-2.8,0-5.6,1.5-8.6,4.4
				c-3.4,3.4-6.7,7.9-9.7,13.4c-3.1,5.6-5.9,12.1-8.3,19.2c-1.8,5.5-3.4,11-4.7,16.5c3.4-0.7,6.7-2,9.9-3.7c4.9-2.6,9.2-6,12.9-10.2
				c3.7-4.2,6.7-9.1,8.9-14.5c2.2-5.3,3.3-10.9,3.3-16.7c0-3.1-0.4-5.6-1.2-7.3C846.7,378,846.2,377.5,844.5,377.5z"/>
			<path id="XMLID_55_" fill="#8D563E" d="M842,357.9c6.7,0,12.2,0.8,16.5,2.4s7.6,3.7,10.1,6.4c2.5,2.6,4.2,5.7,5.1,9.2
				c0.9,3.5,1.4,7.1,1.4,10.8c0,8.7-1.9,16.8-5.7,24.2c-3.8,7.5-8.9,14-15.3,19.6c-6.4,5.6-13.7,10.1-22,13.5
				c-8.3,3.4-16.9,5.4-25.9,6c-0.2,2.2-0.4,4.4-0.5,6.4c-0.1,2-0.2,3.9-0.2,5.6c0,5.1,0.5,9.3,1.4,12.5c0.9,3.3,2.3,5.8,4.1,7.7
				c1.8,1.9,4.1,3.1,6.7,3.9c2.7,0.7,5.8,1.1,9.4,1.1c6,0,11.4-0.8,16.2-2.3c4.8-1.6,9.3-3.7,13.5-6.4c4.2-2.7,8.2-6,11.9-9.7
				c3.8-3.7,7.5-7.7,11.4-11.9h10.3c-4.2,7-9,13.9-14.4,20.5c-5.4,6.6-11.5,12.5-18.3,17.7c-6.8,5.2-14.3,9.4-22.6,12.5
				c-8.3,3.2-17.3,4.8-27.2,4.8c-7.1,0-13.6-0.9-19.3-2.7c-5.8-1.8-10.7-4.6-14.8-8.4s-7.3-8.7-9.4-14.7c-2.2-6-3.3-13.3-3.3-21.8
				c0-5.8,0.6-12.4,1.8-19.9c1.2-7.5,3-15.2,5.6-23.1c2.5-7.9,5.9-15.7,10.1-23.3c4.2-7.6,9.3-14.4,15.2-20.4
				c6-6,12.9-10.8,20.9-14.5C822.6,359.7,831.8,357.9,842,357.9 M808.5,435.5c5.7-0.4,11.1-2,16.4-4.8c5.3-2.8,9.9-6.5,13.9-11.1
				c4-4.5,7.2-9.7,9.6-15.5c2.4-5.8,3.6-11.8,3.6-18.1c0-3.7-0.5-6.7-1.6-8.9c-1.1-2.2-3-3.4-5.9-3.4c-3.8,0-7.5,1.8-11.2,5.5
				c-3.7,3.7-7.1,8.4-10.3,14.3s-6.1,12.5-8.6,19.8C811.9,420.7,809.9,428.1,808.5,435.5 M842,350.4c-11.3,0-21.6,2.1-30.5,6.2
				c-8.8,4-16.6,9.4-23.1,16c-6.4,6.5-12,13.9-16.5,22.1c-4.4,8-8,16.3-10.7,24.6c-2.6,8.2-4.6,16.4-5.8,24.3
				c-1.2,7.9-1.8,15-1.8,21.1c0,9.3,1.3,17.5,3.8,24.3c2.6,7.1,6.4,13,11.4,17.6c4.9,4.6,10.8,7.9,17.7,10.1
				c6.5,2,13.7,3.1,21.6,3.1c10.7,0,20.8-1.8,29.9-5.3c8.9-3.4,17.1-8,24.4-13.6c7.2-5.5,13.8-11.9,19.6-18.9
				c5.6-6.9,10.7-14.1,15.1-21.4l6.8-11.3h-13.2h-10.3h-3.3l-2.2,2.5c-3.7,4.1-7.4,8-11.1,11.6c-3.4,3.3-7,6.3-10.8,8.7
				c-3.6,2.4-7.6,4.2-11.8,5.6c-4.1,1.3-8.7,2-13.9,2c-2.9,0-5.4-0.3-7.5-0.8c-1.4-0.4-2.5-1-3.3-1.9c-0.9-0.9-1.7-2.5-2.3-4.5
				c-0.7-2.6-1.1-6.1-1.1-10.5c0-1.6,0.1-3.3,0.2-5.1c0,0,0-0.1,0-0.1c7.5-1,14.8-3,21.8-5.9c9-3.7,17.1-8.7,24.1-14.8
				c7.1-6.2,12.8-13.5,17.1-21.8c4.3-8.5,6.5-17.8,6.5-27.6c0-4.3-0.6-8.6-1.6-12.7c-1.3-4.7-3.6-8.8-6.9-12.4
				c-3.3-3.5-7.6-6.2-12.9-8.2C856,351.3,849.7,350.4,842,350.4L842,350.4z M818.5,425.4c0.9-3.3,1.9-6.5,3-9.7
				c2.3-6.9,5-13.2,8-18.6c2.9-5.2,5.9-9.5,9.1-12.6c2-2,3.8-3.1,5.4-3.3c0.3,0.9,0.5,2.4,0.5,4.8c0,5.2-1,10.4-3,15.2
				c-2.1,5-4.9,9.5-8.3,13.4c-3.4,3.9-7.4,7-11.8,9.4C820.4,424.6,819.5,425,818.5,425.4L818.5,425.4z"/>
		</g>
		<g id="XMLID_4039_">
			<path id="XMLID_36_" fill="#FFFFFF" d="M923,516c-7.5,0-14.4-1-20.5-2.9c-6.3-2-11.7-5.1-16.2-9.3c-4.5-4.2-8-9.6-10.4-16.2
				c-2.3-6.4-3.5-14.1-3.5-23c0-5.9,0.6-12.8,1.8-20.6c1.2-7.7,3.1-15.8,5.8-23.8c2.6-8.1,6.1-16.1,10.4-23.9
				c4.3-7.9,9.6-15,15.9-21.2c6.3-6.2,13.7-11.3,21.9-15.2c8.4-3.9,18-5.8,28.7-5.8c7.1,0,13,0.9,17.7,2.7c4.8,1.8,8.7,4.2,11.6,7.2
				c3,3,5,6.5,6.2,10.4c1.1,3.7,1.6,7.4,1.6,11c0,4.1-0.5,7.7-1.4,10.7c-1,3.1-2.3,5.8-4.1,8c-1.8,2.3-4,4.1-6.5,5.2
				c-2.4,1.1-5,1.6-7.7,1.6c-4.1,0-8.4-1.4-12.6-4.1l-2.5-1.6l1.1-2.8c2.3-6,3.4-11.5,3.4-16.4c0-3-0.5-5.3-1.5-7
				c-0.5-0.8-1.2-1.6-3.1-1.6c-2.2,0-4.5,1.1-6.9,3.3c-2.9,2.6-5.7,6.1-8.3,10.5c-2.8,4.5-5.4,9.7-7.7,15.6
				c-2.4,5.9-4.5,12.1-6.2,18.5c-1.8,6.4-3.2,12.8-4.2,19.1c-1,6.3-1.5,12.2-1.5,17.5c0,4.7,0.4,8.6,1.2,11.5
				c0.8,2.7,1.8,4.7,3.2,6.1c1.3,1.4,3,2.3,5,2.9c2.4,0.6,5.2,1,8.5,1c5.5,0,10.6-0.7,15-2.2c4.5-1.5,8.8-3.5,12.7-6
				c4-2.6,7.8-5.7,11.4-9.2c3.7-3.7,7.5-7.6,11.2-11.7l1.1-1.2h18.5l-3.4,5.7c-4.3,7.2-9.2,14.2-14.7,21c-5.6,6.8-11.9,13-18.9,18.3
				c-7,5.4-14.9,9.8-23.5,13C942.9,514.3,933.3,516,923,516z"/>
			<path id="XMLID_24_" fill="#8D563E" d="M956.9,357.9c6.6,0,12.1,0.8,16.4,2.4c4.3,1.6,7.7,3.7,10.3,6.3c2.5,2.6,4.3,5.5,5.3,8.9
				c1,3.3,1.5,6.6,1.5,10c0,3.7-0.4,6.9-1.2,9.6c-0.8,2.7-2,5-3.4,6.8c-1.5,1.9-3.2,3.2-5.1,4.1c-2,0.9-4,1.3-6.2,1.3
				c-3.4,0-6.9-1.2-10.5-3.5c2.4-6.4,3.7-12.4,3.7-17.7c0-3.7-0.7-6.7-2.1-8.9c-1.4-2.2-3.5-3.4-6.3-3.4c-3.1,0-6.3,1.4-9.4,4.2
				c-3.1,2.8-6.1,6.6-9,11.3c-2.9,4.7-5.5,10.1-8,16.1c-2.4,6.1-4.6,12.4-6.4,18.9c-1.8,6.5-3.2,13.1-4.2,19.6
				c-1,6.5-1.5,12.5-1.5,18.1c0,5.1,0.5,9.3,1.4,12.5c0.9,3.3,2.3,5.8,4.1,7.7c1.8,1.9,4.1,3.1,6.7,3.9c2.7,0.7,5.8,1.1,9.4,1.1
				c6,0,11.4-0.8,16.2-2.3c4.8-1.6,9.3-3.7,13.5-6.4c4.2-2.7,8.2-6,11.9-9.7c3.8-3.7,7.5-7.7,11.4-11.9h10.3
				c-4.2,7-9,13.9-14.4,20.5c-5.4,6.6-11.5,12.5-18.3,17.7c-6.8,5.2-14.3,9.4-22.6,12.5c-8.3,3.2-17.3,4.8-27.2,4.8
				c-7.1,0-13.6-0.9-19.3-2.7c-5.8-1.8-10.7-4.6-14.8-8.4s-7.3-8.7-9.4-14.7c-2.2-6-3.3-13.3-3.3-21.8c0-5.8,0.6-12.4,1.8-20
				c1.2-7.6,3.1-15.3,5.6-23.2c2.6-7.9,6-15.7,10.1-23.3c4.1-7.6,9.2-14.4,15.2-20.4c6-6,13-10.8,20.9-14.4
				C937.7,359.7,946.7,357.9,956.9,357.9 M956.9,350.4c-11.2,0-21.4,2.1-30.2,6.2c-8.7,4-16.4,9.4-23,15.9
				c-6.5,6.4-12.1,13.9-16.5,22.1c-4.4,8-7.9,16.2-10.6,24.5c-2.7,8.2-4.7,16.5-5.9,24.4c-1.2,7.9-1.8,15-1.8,21.1
				c0,9.3,1.3,17.5,3.8,24.3c2.6,7.1,6.4,13,11.4,17.6c4.9,4.6,10.8,7.9,17.7,10.1c6.5,2,13.7,3.1,21.6,3.1
				c10.7,0,20.8-1.8,29.9-5.3c8.9-3.4,17.1-8,24.4-13.6c7.2-5.5,13.8-11.9,19.6-18.9c5.6-6.9,10.7-14.1,15.1-21.4l6.8-11.3h-13.2
				h-10.3h-3.3l-2.2,2.5c-3.7,4.1-7.4,8-11.1,11.6c-3.4,3.3-7,6.3-10.8,8.7c-3.6,2.4-7.6,4.2-11.8,5.6c-4.1,1.3-8.7,2-13.9,2
				c-2.9,0-5.4-0.3-7.5-0.8c-1.4-0.4-2.5-1-3.3-1.9c-0.9-0.9-1.7-2.5-2.3-4.5c-0.7-2.6-1.1-6.1-1.1-10.5c0-5.1,0.5-10.8,1.4-16.9
				c1-6.2,2.3-12.5,4.1-18.7c1.7-6.2,3.8-12.3,6.1-18.1c2.3-5.6,4.8-10.7,7.4-15c2.5-4.1,5.1-7.3,7.7-9.7c1.2-1.1,2.9-2.3,4.3-2.3
				c0,0,0,0,0,0c0.4,0.7,0.8,2.1,0.8,4.8c0,4.4-1.1,9.5-3.2,15.1l-2.1,5.6l5.1,3.3c4.8,3.1,9.7,4.7,14.6,4.7c3.2,0,6.3-0.7,9.2-2
				c3.1-1.4,5.7-3.5,7.9-6.3c2-2.6,3.6-5.7,4.7-9.2c1-3.4,1.6-7.4,1.6-11.8c0-4-0.6-8.1-1.8-12.1c-1.3-4.5-3.7-8.5-7.1-12
				c-3.3-3.4-7.7-6.1-13-8.1C970.7,351.3,964.5,350.4,956.9,350.4L956.9,350.4z"/>
		</g>
		<g id="XMLID_4036_">
			<path id="XMLID_46_" fill="#FFFFFF" d="M1039,515.4c-7.3,0-14.1-0.9-20.3-2.7c-6.4-1.9-12-4.9-16.7-9c-4.7-4.1-8.4-9.5-11-16.1
				c-2.6-6.4-3.9-14.3-3.9-23.3c0-6,0.6-13,1.9-20.6c1.3-7.7,3.3-15.6,6-23.7c2.7-8.1,6.3-16.1,10.7-23.8c4.4-7.8,9.8-15,16.2-21.1
				c6.4-6.2,13.9-11.3,22.2-15.2c8.5-3.9,18.2-5.8,28.9-5.8c18.8,0,41.1,8.5,42.2,48.5c3.1,0,6.4-0.5,10-1.4c3.9-1,7.8-2.3,11.7-3.9
				c3.9-1.6,7.8-3.5,11.6-5.6c3.8-2.1,7.3-4.3,10.4-6.5l4.2-2.9l4.9,15.1l-1.5,1.6c-6.2,6.5-14.2,12-23.8,16.5
				c-8.7,4-18.3,7.1-28.6,9c-1.3,13-4,25-7.9,35.6c-4.3,11.5-9.8,21.4-16.3,29.5c-6.7,8.2-14.4,14.6-23,19
				C1058.1,513.2,1048.8,515.4,1039,515.4z M1075.7,379.8c-2.7,0-5.3,1.1-8,3.3c-3,2.5-6,6-8.7,10.2c-2.8,4.4-5.5,9.5-7.9,15.2
				c-2.4,5.7-4.5,11.7-6.2,17.8c-1.7,6.1-3.1,12.2-4,18.1c-0.9,5.9-1.4,11.3-1.4,16c0,4.8,0.3,8.6,0.8,11.5c0.4,2.6,1.1,4.6,2,5.9
				c0.8,1.1,1.7,1.9,2.9,2.3c1.5,0.5,3.5,0.8,5.9,0.8c2.7,0,5.5-1.3,8.4-3.9c3.3-2.9,6.5-7,9.4-12.2c3-5.3,5.7-11.7,8-19.1
				c2-6.5,3.7-13.6,4.8-21c-2.5-1.2-4.4-3.1-5.6-5.5c-1.4-2.8-2.1-6-2.1-9.6c0-4.9,1.1-9.1,3.1-12.3c1.6-2.5,3.6-4.5,6.1-6.1
				c-0.2-2-0.4-3.7-0.8-5.2c-0.4-1.8-0.9-3.2-1.6-4.3c-0.5-0.8-1-1.3-1.6-1.6C1078.6,380.1,1077.5,379.8,1075.7,379.8z"/>
			<path id="XMLID_41_" fill="#8D563E" d="M1073.2,357.9c25.7,0,38.5,16,38.5,47.9v0.3c0.5,0.2,1,0.3,1.4,0.3s1,0,1.8,0
				c3.5,0,7.3-0.5,11.4-1.5c4.1-1,8.1-2.4,12.2-4c4.1-1.7,8.1-3.6,12-5.8c3.9-2.2,7.5-4.4,10.7-6.7l2.6,8.2
				c-5.9,6.2-13.4,11.4-22.7,15.7c-9.3,4.3-19.4,7.4-30.5,9.2c-1.2,13.9-3.8,26.4-8,37.5c-4.2,11.1-9.4,20.6-15.7,28.4
				c-6.3,7.8-13.6,13.8-21.8,18c-8.2,4.2-16.9,6.3-26.1,6.3c-6.9,0-13.4-0.9-19.3-2.6c-5.9-1.7-11-4.4-15.2-8.2
				c-4.2-3.8-7.6-8.6-10-14.6c-2.4-6-3.6-13.3-3.6-21.9c0-5.9,0.6-12.5,1.8-20c1.2-7.5,3.2-15.2,5.9-23.1
				c2.7-7.9,6.2-15.6,10.4-23.2c4.2-7.6,9.4-14.3,15.5-20.3c6.1-6,13.2-10.8,21.2-14.4C1053.8,359.7,1062.9,357.9,1073.2,357.9
				 M1051,484.7c3.6,0,7.3-1.6,10.9-4.8c3.7-3.2,7.1-7.6,10.2-13.2c3.1-5.6,5.9-12.2,8.3-19.8c2.4-7.6,4.2-15.8,5.3-24.6
				c-3.1-0.8-5.3-2.3-6.4-4.6c-1.1-2.3-1.7-5-1.7-8c0-4.2,0.9-7.6,2.6-10.3c1.7-2.7,4-4.7,6.8-5.9c-0.2-3.2-0.5-5.9-1-8.1
				c-0.5-2.2-1.2-4-2.1-5.4c-0.9-1.4-2-2.4-3.3-3c-1.3-0.6-3-0.9-5.1-0.9c-3.6,0-7.1,1.4-10.4,4.2c-3.3,2.8-6.5,6.5-9.4,11.1
				c-3,4.6-5.7,9.8-8.2,15.7c-2.5,5.9-4.6,12-6.4,18.2c-1.8,6.3-3.1,12.4-4.1,18.5c-1,6.1-1.5,11.6-1.5,16.6c0,5,0.3,9,0.8,12.2
				c0.5,3.1,1.4,5.6,2.6,7.4c1.2,1.8,2.8,3.1,4.8,3.7C1045.8,484.4,1048.2,484.7,1051,484.7 M1073.2,350.4
				c-11.3,0-21.6,2.1-30.5,6.2c-8.8,4-16.6,9.3-23.3,15.9c-6.6,6.4-12.2,13.8-16.8,22c-4.5,7.9-8.1,16.2-11,24.5
				c-2.8,8.2-4.9,16.4-6.2,24.3c-1.3,7.8-1.9,15-1.9,21.2c0,9.5,1.4,17.8,4.1,24.7c2.8,7.1,6.8,13,12,17.5
				c5.1,4.5,11.2,7.8,18.1,9.8c6.6,1.9,13.7,2.9,21.3,2.9c10.3,0,20.3-2.4,29.5-7.1c9.1-4.7,17.2-11.4,24.2-20
				c6.8-8.4,12.5-18.7,17-30.5c3.8-10.2,6.4-21.5,7.9-33.8c9.5-2,18.5-4.9,26.7-8.8c10.1-4.7,18.5-10.5,25-17.3l3.1-3.2l-1.4-4.2
				l-2.6-8.2l-3.1-9.6l-8.3,5.8c-3,2.1-6.4,4.2-10.1,6.3c-3.6,2-7.4,3.8-11.1,5.4c-3.8,1.5-7.5,2.8-11.3,3.7c-1.9,0.5-3.7,0.8-5.5,1
				c-0.9-14.2-4.6-25.4-11.1-33.5C1100,355.4,1088.3,350.4,1073.2,350.4L1073.2,350.4z M1051,477.3c-2.5,0-3.9-0.3-4.7-0.6
				c-0.3-0.1-0.6-0.3-1-0.9c-0.4-0.5-1-1.8-1.5-4.5c-0.5-2.7-0.7-6.4-0.7-10.9c0-4.6,0.5-9.8,1.4-15.4c0.9-5.8,2.2-11.7,3.9-17.7
				c1.7-5.9,3.7-11.8,6.1-17.4c2.3-5.5,4.9-10.4,7.6-14.6c2.6-3.9,5.2-7.1,8-9.4c1.9-1.6,3.8-2.4,5.6-2.4c1.1,0,1.6,0.1,1.9,0.2
				c0,0,0.1,0.1,0.1,0.2c0.3,0.5,0.7,1.4,1.1,3.1c0.2,0.8,0.3,1.6,0.4,2.6c-2,1.6-3.8,3.6-5.2,5.8c-2.5,3.9-3.7,8.7-3.7,14.3
				c0,4.2,0.8,8,2.4,11.3c0.9,1.8,2.4,3.9,4.9,5.7c-1.1,6.3-2.5,12.4-4.3,18c-2.2,7.1-4.8,13.3-7.7,18.4c-2.7,4.8-5.6,8.6-8.6,11.2
				C1054.8,476.3,1052.8,477.3,1051,477.3L1051,477.3z"/>
		</g>
		<g id="XMLID_4034_">
			<path id="XMLID_22_" fill="#FFFFFF" d="M1110.9,514.3l33.4-157.5h50.8l-2.5,12.4c2.8-2.3,5.8-4.4,8.9-6.1c3.2-1.8,6.5-3.3,10-4.5
				c3.6-1.2,7.4-1.8,11.4-1.8c4,0,7.6,0.8,10.7,2.3c3,1.5,5.6,3.5,7.7,5.9c2.1,2.4,3.6,5.3,4.7,8.5c1,3.1,1.5,6.3,1.5,9.6
				c0,3-0.5,6.1-1.5,9c-1,3-2.6,5.8-4.8,8.2c-2.1,2.4-4.8,4.4-8,6c-3.2,1.6-7,2.3-11.1,2.3c-3.6,0-6.4-0.7-8.6-2.1
				c-2-1.3-3.6-3-4.7-5c-0.9-1.8-1.6-3.7-2.1-5.8c-0.3-1.6-0.7-3.2-1-4.5c-0.3-0.9-0.6-1.7-0.9-2.3c0,0-0.1,0-0.2,0
				c-3.8,0-7,0.8-9.5,2.5c-2.7,1.8-5.7,4.2-8.9,7.1l-24.4,115.8H1110.9z"/>
			<path id="XMLID_18_" fill="#8D563E" d="M1222.9,360.5c3.4,0,6.4,0.6,9,1.9c2.6,1.3,4.8,2.9,6.5,5c1.8,2.1,3.1,4.4,4,7.2
				c0.9,2.7,1.3,5.6,1.3,8.5c0,2.6-0.4,5.3-1.3,7.8c-0.9,2.6-2.2,4.9-4,7c-1.8,2.1-4.1,3.7-6.8,5.1c-2.7,1.3-5.9,2-9.5,2
				c-2.8,0-5-0.5-6.5-1.5c-1.5-1-2.7-2.2-3.4-3.7c-0.8-1.5-1.3-3.1-1.7-4.8c-0.3-1.7-0.7-3.3-1.1-4.8c-0.4-1.5-0.9-2.7-1.5-3.7
				c-0.6-1-1.7-1.5-3.1-1.5c-4.6,0-8.4,1.1-11.6,3.1c-3.1,2.1-6.5,4.9-10.3,8.3l-24,114h-43.2l31.8-150h43.2l-3.8,18.6
				c2.6-2.3,5.3-4.6,8.1-6.9c2.7-2.2,5.6-4.2,8.6-5.9c3-1.7,6.1-3.1,9.3-4.2C1215.8,361.1,1219.3,360.5,1222.9,360.5 M1222.9,353
				c-4.4,0-8.6,0.7-12.6,2c-3.7,1.2-7.3,2.8-10.7,4.8c-0.5,0.3-1,0.6-1.5,0.9l1.6-7.7h-9.2h-43.2h-6.1l-1.3,5.9l-31.8,150l-1.9,9
				h9.2h43.2h6.1l1.3-5.9l23.5-111.6c2.7-2.4,5.3-4.4,7.6-6c1.4-0.9,3-1.5,5-1.7c0.3,1.1,0.6,2.4,0.8,3.7c0.5,2.4,1.3,4.7,2.4,6.8
				c1.4,2.6,3.4,4.8,6,6.4c2.8,1.8,6.2,2.7,10.6,2.7c4.7,0,9-0.9,12.8-2.7c3.6-1.7,6.7-4.1,9.2-6.8c2.5-2.8,4.3-6,5.5-9.5
				c1.1-3.3,1.7-6.8,1.7-10.2c0-3.7-0.6-7.3-1.7-10.8c-1.2-3.7-3-7-5.4-9.8c-2.4-2.8-5.4-5.1-8.9-6.8
				C1231.6,353.9,1227.4,353,1222.9,353L1222.9,353z"/>
		</g>
		<g id="XMLID_3986_">
			<path id="XMLID_32_" fill="#FFFFFF" d="M1349.6,516c-4.1,0-8.1-0.5-11.8-1.5c-3.8-1-7.4-2.7-10.5-5c-3.1-2.3-5.8-5.3-8-8.9
				c-1-1.6-1.8-3.4-2.5-5.2c-1.1,1.3-2.3,2.6-3.5,3.8c-3,3.2-6.4,6-10.2,8.5c-3.8,2.5-8,4.5-12.5,6c-4.6,1.5-9.6,2.2-14.9,2.2
				c-5.6,0-11-0.9-16.2-2.7c-5.3-1.8-10.1-4.9-14.2-9.1c-4.1-4.2-7.4-9.6-9.8-16.3c-2.4-6.5-3.6-14.6-3.6-23.8
				c0-7,0.7-14.6,2.1-22.6c1.4-8,3.6-16.1,6.5-24.1c2.9-8,6.6-15.8,10.9-23.1c4.4-7.4,9.6-14.1,15.6-19.8c6-5.8,12.9-10.5,20.5-13.9
				c7.7-3.5,16.2-5.2,25.4-5.2c9.4,0,16.2,1.7,20.8,5.2c0.9,0.7,1.7,1.4,2.4,2.1l12.6-59.5l52.3-7.1l-35.6,167.4l0,0.1
				c-0.4,1.5-0.7,2.8-0.9,4.1c-0.2,1.2-0.3,2.5-0.3,3.7c0,2.6,0.6,4.7,1.9,6.3c1.3,1.6,4.3,2,6.7,2c3.3,0,4.6-0.3,5-0.4
				c1.1-0.3,2.1-0.7,3.1-1.1l5.7-2.6l-0.5,6.3c-0.4,5.9-1.8,11-4,15.3c-2.2,4.3-5.1,7.9-8.5,10.7c-3.4,2.8-7.3,5-11.5,6.3
				C1358.1,515.3,1353.9,516,1349.6,516z M1322.2,381.4c-3.4,0-6.6,1.1-9.7,3.4c-3.4,2.5-6.6,5.8-9.4,10c-3,4.3-5.7,9.3-8,14.8
				c-2.4,5.6-4.4,11.4-6.1,17.3c-1.7,5.9-2.9,11.8-3.8,17.6c-0.8,5.7-1.3,10.9-1.3,15.3c0,5.3,0.5,9.4,1.4,12.1
				c1.1,3.2,2.2,4.8,3,5.5c1,1,1.9,1.5,2.9,1.7c1.5,0.3,2.9,0.4,4.1,0.4c1.6,0,3.2-0.4,5-1.1c1.9-0.8,3.8-2,5.6-3.5
				c1.9-1.6,3.6-3.6,5.2-6c1.6-2.4,2.9-5.2,4-8.4l1.1-4.6l14.5-67.8c-0.2-0.6-0.4-1.2-0.6-1.8c-0.3-0.8-0.8-1.6-1.4-2.5
				c-0.5-0.7-1.3-1.2-2.3-1.7C1325.3,381.6,1323.9,381.4,1322.2,381.4z"/>
			<path id="XMLID_27_" fill="#8D563E" d="M1396.3,300.5l-34.4,162c-0.5,1.7-0.8,3.2-1,4.6c-0.2,1.4-0.3,2.8-0.3,4.2
				c0,3.4,0.9,6.3,2.6,8.6c1.8,2.3,5,3.4,9.7,3.4c2.8,0,4.9-0.2,6.2-0.6c1.3-0.4,2.4-0.8,3.5-1.3c-0.4,5.4-1.6,10-3.6,13.8
				c-2,3.9-4.5,7.1-7.5,9.6c-3,2.5-6.4,4.4-10.3,5.6s-7.7,1.8-11.6,1.8c-3.8,0-7.4-0.5-10.8-1.4c-3.4-0.9-6.5-2.4-9.2-4.4
				c-2.7-2-5.1-4.6-7-7.8c-1.9-3.2-3.3-7-4.2-11.4c-2.3,3.2-4.9,6.3-7.8,9.3c-2.8,3-6,5.6-9.5,8c-3.5,2.3-7.4,4.2-11.6,5.6
				c-4.2,1.4-8.8,2.1-13.8,2.1c-5.2,0-10.2-0.8-14.9-2.5c-4.8-1.7-9-4.4-12.7-8.2c-3.7-3.8-6.7-8.8-8.9-14.9
				c-2.2-6.2-3.4-13.7-3.4-22.6c0-6.8,0.7-14.2,2.1-22c1.4-7.8,3.5-15.6,6.3-23.4c2.8-7.8,6.4-15.3,10.6-22.5
				c4.2-7.2,9.2-13.5,14.9-19c5.7-5.5,12.2-9.9,19.4-13.2c7.2-3.3,15.2-4.9,23.9-4.9c8.5,0,14.7,1.5,18.5,4.4
				c3.9,2.9,5.8,6.5,5.8,10.8v1.2l14.6-69L1396.3,300.5 M1295.2,483.3c2.1,0,4.2-0.5,6.4-1.4c2.2-0.9,4.4-2.3,6.6-4.1
				c2.1-1.8,4.1-4.1,5.9-6.7c1.8-2.7,3.3-5.8,4.5-9.4l1.2-4.8l14.6-68.7c-0.2-0.9-0.5-1.9-1-3.1c-0.4-1.2-1.1-2.3-2-3.4
				c-0.9-1.1-2.1-2.1-3.6-2.8c-1.5-0.7-3.4-1.1-5.8-1.1c-4.2,0-8.2,1.4-11.9,4.1c-3.8,2.7-7.2,6.4-10.3,10.9
				c-3.1,4.5-5.9,9.7-8.3,15.5c-2.4,5.8-4.5,11.7-6.2,17.8c-1.7,6.1-3,12.1-3.9,18c-0.9,5.9-1.3,11.2-1.3,15.9
				c0,5.8,0.5,10.2,1.6,13.3c1.1,3.1,2.4,5.4,3.9,7c1.5,1.5,3.1,2.4,4.9,2.7C1292.3,483.1,1293.9,483.3,1295.2,483.3 M1405.8,291.6
				l-10.5,1.4l-44.4,6l-5.2,0.7l-1.1,5.2l-10.8,51.1c-5.1-3-11.9-4.4-20.8-4.4c-9.7,0-18.8,1.9-27,5.6c-8,3.6-15.2,8.5-21.5,14.6
				c-6.2,6-11.6,12.9-16.2,20.6c-4.5,7.5-8.2,15.5-11.2,23.7c-3,8.2-5.2,16.5-6.6,24.7c-1.4,8.2-2.2,16-2.2,23.3
				c0,9.7,1.3,18.2,3.8,25.1c2.6,7.1,6.2,13,10.6,17.6c4.5,4.6,9.8,8,15.7,10.1c5.6,1.9,11.4,2.9,17.4,2.9c5.7,0,11.2-0.8,16.1-2.4
				c4.8-1.6,9.3-3.7,13.4-6.5c3.9-2.6,7.4-5.6,10.6-8.8c0.1,0.2,0.2,0.3,0.3,0.5c2.4,4,5.4,7.4,9,10c3.5,2.5,7.4,4.4,11.7,5.6
				c4,1.1,8.3,1.7,12.8,1.7c4.7,0,9.3-0.7,13.9-2.2c4.7-1.5,9-3.9,12.8-7c3.8-3.2,6.9-7.2,9.4-11.9c2.5-4.8,3.9-10.4,4.4-16.7
				l0.9-12.6l-11.5,5.2c-0.8,0.4-1.7,0.7-2.6,1c0,0-1,0.3-4,0.3c-2.6,0-3.6-0.5-3.8-0.6c-0.7-1-1-2.2-1-3.9c0-1,0.1-2.1,0.2-3.1
				c0.1-1.1,0.4-2.2,0.8-3.5l0.1-0.3l0.1-0.3l34.4-162L1405.8,291.6L1405.8,291.6z M1295.2,475.8c-0.9,0-2.1-0.1-3.5-0.3
				c-0.1,0-0.4-0.1-0.8-0.6c-0.3-0.3-1.1-1.3-2.1-4.1c-0.6-1.6-1.2-4.8-1.2-10.9c0-4.3,0.4-9.3,1.2-14.8c0.8-5.6,2.1-11.3,3.7-17.1
				c1.6-5.8,3.6-11.4,5.9-16.9c2.2-5.3,4.8-10,7.6-14.1c2.6-3.8,5.5-6.9,8.6-9.1c2.5-1.8,4.9-2.7,7.5-2.7c1.7,0,2.4,0.3,2.5,0.4
				c0.6,0.3,0.9,0.6,1,0.7c0.4,0.5,0.7,1,0.9,1.5c0.1,0.3,0.2,0.5,0.3,0.7l-14.2,66.8l-1.1,4.4c-0.9,2.8-2.1,5.3-3.5,7.3
				c-1.4,2.1-2.9,3.8-4.5,5.2c-1.5,1.3-3.1,2.3-4.6,2.9C1297.5,475.5,1296.3,475.8,1295.2,475.8L1295.2,475.8z"/>
		</g>
	</g>
</g>
</svg>
