<?xml version="1.0" encoding="utf-8"?>
<!-- Generator: Adobe Illustrator 19.0.0, SVG Export Plug-In . SVG Version: 6.00 Build 0)  -->
<svg version="1.1" id="Camada_1" xmlns="http://www.w3.org/2000/svg" xmlns:xlink="http://www.w3.org/1999/xlink" x="0px" y="0px"
	 viewBox="0 0 226.8 92.2" enable-background="new 0 0 226.8 92.2" xml:space="preserve">
<g id="XMLID_264_">
	<g id="XMLID_274_">
		<path id="XMLID_40_" fill="#FFFFFF" d="M45.6,87.9l-8.6-36.8l-8.5,36.8H11.5l8.4-38.3c-5.2,0-9-1.2-11.8-3.5
			C5.2,43.6,3.7,39.9,3.7,35c0-2.8,0.4-5.5,1.3-8.1c0.8-2.5,2-4.9,3.5-7.2c1.5-2.2,3.3-4.3,5.4-6.1c2.1-1.8,4.4-3.4,6.9-4.7
			c2.5-1.3,5.2-2.3,8-3c2.9-0.7,5.9-1.1,9-1.1c1.8,0,3.4,0.1,4.8,0.4C44,5.6,45.4,6,47,6.6l2,0.7l8.7,38.6L66,5.6h17.4L65.4,87.9
			H45.6z M25.7,23.1c-0.7,0.7-1.3,1.4-1.8,2.2C22,28.1,21,31.5,21,35.7c0,1.8,0.2,3.5,0.6,4.9c0,0.2,0.1,0.3,0.1,0.5L25.7,23.1z"/>
		<path id="XMLID_36_" fill="#8D563E" d="M37.9,8.8c1.6,0,2.9,0.1,4.1,0.3c1.2,0.2,2.4,0.6,3.8,1l12.1,53.5L69,9.3h9.7L62.4,84.2
			H48.6L37,34.5L25.6,84.2h-9.5l15-68.5c-4.6,1.6-8.1,4.2-10.4,7.6c-2.3,3.4-3.5,7.6-3.5,12.5c0,2.1,0.2,4.1,0.7,5.9
			c0.5,1.8,1.1,3.2,2,4.3c-4.3,0-7.4-0.9-9.4-2.6c-2-1.7-3.1-4.5-3.1-8.2c0-2.4,0.4-4.7,1.1-6.9c0.7-2.2,1.8-4.3,3.1-6.3
			s2.9-3.7,4.8-5.3c1.9-1.6,3.9-3,6.2-4.2c2.2-1.2,4.7-2.1,7.2-2.7C32.4,9.1,35.1,8.8,37.9,8.8 M37.9,1.3c-3.4,0-6.7,0.4-9.9,1.2
			c-3.1,0.8-6.1,1.9-8.9,3.3c-2.8,1.4-5.3,3.2-7.6,5.2c-2.3,2-4.4,4.3-6.1,6.8c-1.7,2.5-3,5.2-4,8.1c-1,3-1.5,6.1-1.5,9.2
			c0,7.5,3.1,11.7,5.7,13.9c2.5,2.1,5.7,3.5,9.6,4.1L8.8,82.5l-2,9.1h9.3h9.5h6l1.3-5.8l4.2-18.1l4.2,18.1l1.3,5.8h5.9h13.8h6
			l1.3-5.9L86,10.9l2-9.1h-9.3H69h-6.1l-1.2,6l-4.2,20.3L53.1,8.5l-0.9-4.1l-3.9-1.4c-1.8-0.6-3.4-1.1-4.9-1.3
			C41.7,1.4,39.9,1.3,37.9,1.3L37.9,1.3z"/>
	</g>
	<g id="XMLID_310_">
		<path id="XMLID_46_" fill="#FFFFFF" d="M88.3,88.3c-2.7,0-5.2-0.3-7.5-1c-2.5-0.7-4.7-1.9-6.5-3.5C72.5,82.1,71,80,70,77.5
			c-1-2.4-1.5-5.4-1.5-8.7c0-2.1,0.2-4.6,0.7-7.3c0.4-2.7,1.1-5.5,2.1-8.3c1-2.8,2.2-5.7,3.7-8.4c1.6-2.8,3.5-5.4,5.8-7.6
			c2.3-2.3,5.1-4.1,8.1-5.5c3.1-1.4,6.7-2.2,10.7-2.2c5.7,0,14.9,2.2,16.4,15.9c0.1,0,0.3-0.1,0.4-0.1c1.2-0.3,2.4-0.7,3.6-1.2
			c1.2-0.5,2.4-1.1,3.6-1.7c1.2-0.7,2.3-1.4,3.3-2l4.2-2.9l3.1,9.7l-1.5,1.6c-2.3,2.4-5.2,4.4-8.7,6c-2.6,1.2-5.4,2.1-8.3,2.8
			c-0.5,3.9-1.4,7.4-2.6,10.7c-1.5,4.1-3.5,7.6-5.9,10.5c-2.4,3-5.3,5.3-8.5,7C95.4,87.4,91.9,88.3,88.3,88.3z M91.4,71.7
			c0.2,0,0.5,0.1,0.9,0.1c0.2,0,0.6-0.2,1.2-0.7c0.9-0.8,1.8-1.9,2.6-3.4c0.9-1.6,1.7-3.6,2.5-5.9c0.5-1.6,0.9-3.3,1.3-5.1
			c-0.7-0.6-1.1-1.3-1.4-1.9c-0.6-1.3-0.9-2.7-0.9-4.3c0-2.1,0.5-4,1.4-5.5c0.4-0.7,0.9-1.3,1.5-1.8c0,0,0-0.2-0.1-0.2
			c-0.2,0-0.5,0.2-0.8,0.5c-0.8,0.7-1.6,1.6-2.4,2.9c-0.9,1.3-1.7,2.9-2.4,4.7c-0.8,1.8-1.4,3.7-2,5.6c-0.5,1.9-1,3.9-1.3,5.8
			c-0.3,1.8-0.4,3.5-0.4,5c0,1.4,0.1,2.6,0.2,3.4C91.2,71.3,91.3,71.6,91.4,71.7z"/>
		<path id="XMLID_42_" fill="#8D563E" d="M99.7,33.3c8.6,0,12.8,5.3,12.8,16v0.1c0.2,0.1,0.3,0.1,0.5,0.1s0.3,0,0.6,0
			c1.2,0,2.4-0.2,3.8-0.5c1.4-0.3,2.7-0.8,4.1-1.3c1.4-0.6,2.7-1.2,4-1.9c1.3-0.7,2.5-1.5,3.6-2.2l0.9,2.7c-2,2.1-4.5,3.8-7.6,5.2
			c-3.1,1.4-6.5,2.5-10.2,3.1c-0.4,4.6-1.3,8.8-2.7,12.5c-1.4,3.7-3.1,6.9-5.2,9.5c-2.1,2.6-4.5,4.6-7.3,6c-2.7,1.4-5.6,2.1-8.7,2.1
			c-2.3,0-4.5-0.3-6.4-0.9c-2-0.6-3.7-1.5-5.1-2.7c-1.4-1.3-2.5-2.9-3.3-4.9s-1.2-4.4-1.2-7.3c0-2,0.2-4.2,0.6-6.7
			c0.4-2.5,1.1-5.1,2-7.7c0.9-2.6,2.1-5.2,3.5-7.7c1.4-2.5,3.1-4.8,5.2-6.8c2-2,4.4-3.6,7.1-4.8C93.2,33.9,96.3,33.3,99.7,33.3
			 M92.3,75.6c1.2,0,2.4-0.5,3.6-1.6s2.4-2.5,3.4-4.4c1-1.9,2-4.1,2.8-6.6c0.8-2.5,1.4-5.3,1.8-8.2c-1-0.3-1.8-0.8-2.1-1.5
			c-0.4-0.8-0.6-1.7-0.6-2.7c0-1.4,0.3-2.5,0.9-3.4c0.6-0.9,1.3-1.6,2.3-2c-0.1-1.1-0.2-2-0.3-2.7c-0.2-0.7-0.4-1.3-0.7-1.8
			c-0.3-0.5-0.7-0.8-1.1-1s-1-0.3-1.7-0.3c-1.2,0-2.4,0.5-3.5,1.4c-1.1,0.9-2.2,2.2-3.1,3.7c-1,1.5-1.9,3.3-2.7,5.2
			c-0.8,2-1.5,4-2.1,6.1c-0.6,2.1-1,4.1-1.4,6.2c-0.3,2-0.5,3.9-0.5,5.5s0.1,3,0.3,4.1c0.2,1,0.5,1.9,0.9,2.5c0.4,0.6,0.9,1,1.6,1.2
			C90.6,75.4,91.4,75.6,92.3,75.6 M99.7,25.8c-4.5,0-8.6,0.8-12.2,2.5c-3.4,1.6-6.5,3.7-9.2,6.3c-2.5,2.5-4.7,5.3-6.5,8.5
			c-1.6,2.9-3,5.9-4,9c-1,3-1.8,6-2.3,8.9c-0.5,2.9-0.7,5.5-0.7,7.9c0,3.8,0.6,7.2,1.7,10.1c1.2,3.1,3,5.7,5.3,7.7
			c2.2,2,4.9,3.4,8,4.3c2.6,0.8,5.5,1.1,8.5,1.1c4.2,0,8.3-1,12.1-2.9c3.7-1.9,6.9-4.5,9.7-7.9c2.6-3.2,4.8-7.1,6.5-11.6
			c1-2.8,1.8-5.8,2.4-9c2.3-0.7,4.5-1.5,6.6-2.4c3.9-1.8,7.2-4.1,9.8-6.9l3.1-3.2l-1.4-4.2l-0.9-2.7l-3.1-9.6l-8.3,5.8
			c-0.9,0.6-1.9,1.2-3,1.8c-0.9,0.5-1.9,1-2.8,1.4c-0.8-3.1-2.1-5.7-3.8-7.9C112.7,29.5,107.9,25.8,99.7,25.8L99.7,25.8z"/>
	</g>
	<g id="XMLID_551_">
		<path id="XMLID_33_" fill="#FFFFFF" d="M153.7,88.5c-4,0-7.4-0.9-10.1-2.7c-1.1-0.7-2-1.6-2.8-2.6c-0.1,0.1-0.2,0.2-0.4,0.3
			c-1.5,1.3-3,2.3-4.5,3.1c-1.5,0.8-3.1,1.3-4.6,1.5c-1.4,0.2-2.6,0.3-3.8,0.3c-1.9,0-3.7-0.3-5.4-0.9c-1.8-0.6-3.5-1.7-4.8-3.1
			c-1.3-1.4-2.4-3-3.1-5c-0.7-1.9-1.1-4.2-1.1-6.7c0-1.1,0.1-2.2,0.2-3.4c0.1-1.2,0.4-2.5,0.6-3.8l7.4-35.1h22.1l-8.1,38.5
			c-0.1,0.6-0.2,1.2-0.2,1.8c0,0.2,0,0.3,0,0.5c0,0,0.1,0,0.1-0.1c0.4-0.2,0.8-0.5,1.2-1c0.4-0.5,0.8-1.2,1.2-1.9
			c0.4-0.9,0.8-1.9,1.1-2.9l7.4-34.9h22.1l-0.3,1.5c0.2-0.3,0.4-0.6,0.7-0.8c1.7-1.8,4.2-2.7,7.4-2.7c1.9,0,3.6,0.4,5,1.3
			c1.3,0.8,2.4,1.9,3.2,3.2c0.7,1.2,1.2,2.5,1.5,4c0.3,1.3,0.4,2.6,0.4,4c0,2.8-0.2,6-0.7,9.3c-0.5,3.4-1.3,6.8-2.3,10.3
			c-1,3.4-2.4,6.8-4,10c-1.7,3.3-3.7,6.3-6,8.9c-2.4,2.7-5.2,4.9-8.3,6.5C161.3,87.6,157.7,88.5,153.7,88.5z M160,68.9
			c-0.3,1.2-0.4,2-0.4,2.4c0.7-0.1,1.4-0.4,2.1-0.9c1.2-0.9,2.3-2.1,3.3-3.6c1.1-1.7,2.2-3.6,3.1-5.8c1-2.2,1.8-4.5,2.5-6.8
			c0.7-2.3,1.2-4.6,1.6-6.8c0.1-0.3,0.1-0.7,0.2-1c-1-0.1-1.9-0.5-2.7-1c-0.9-0.6-1.6-1.4-2.2-2.3c-0.5-0.8-0.9-1.8-1.2-2.8
			c0-0.2-0.1-0.4-0.1-0.6L160,68.9z"/>
		<path id="XMLID_22_" fill="#8D563E" d="M175.9,32.2c1.2,0,2.2,0.2,3,0.7c0.8,0.5,1.4,1.1,1.9,2c0.5,0.8,0.8,1.7,1,2.8
			c0.2,1,0.3,2.1,0.3,3.2c0,2.7-0.2,5.6-0.7,8.8c-0.5,3.2-1.2,6.4-2.2,9.7c-1,3.3-2.2,6.4-3.8,9.4c-1.5,3-3.3,5.7-5.4,8.1
			c-2.1,2.4-4.5,4.3-7.3,5.7c-2.7,1.4-5.8,2.1-9.2,2.1c-3.3,0-5.9-0.7-8-2.1c-2.1-1.4-3.4-3.5-4-6.3c-1.2,1.8-2.4,3.3-3.7,4.4
			c-1.3,1.1-2.5,1.9-3.7,2.5c-1.2,0.6-2.4,1-3.6,1.2c-1.2,0.2-2.2,0.3-3.2,0.3c-1.5,0-2.9-0.2-4.2-0.7c-1.3-0.5-2.4-1.2-3.4-2.1
			c-1-1-1.7-2.2-2.3-3.7c-0.6-1.5-0.8-3.3-0.8-5.4c0-0.9,0.1-1.9,0.2-3c0.1-1.1,0.3-2.3,0.6-3.5l6.8-32.1h14.4l-7.2,34
			c-0.2,0.8-0.3,1.7-0.3,2.5c0,0.6,0,1.1,0.1,1.7c0.1,0.5,0.3,1,0.5,1.4c0.2,0.4,0.5,0.7,0.9,1c0.4,0.2,0.9,0.4,1.4,0.4
			c1,0,1.9-0.2,2.7-0.7c0.8-0.4,1.6-1,2.2-1.8c0.7-0.8,1.3-1.7,1.8-2.8c0.5-1.1,1-2.3,1.3-3.5l6.8-32.1h14.4l-7.2,34
			c-0.4,1.6-0.5,2.8-0.5,3.6c0,1,0.3,1.8,0.8,2.4c0.5,0.6,1.4,0.9,2.6,0.9c1.6,0,3.2-0.6,4.7-1.7c1.5-1.1,2.9-2.6,4.2-4.5
			c1.3-1.9,2.4-4,3.5-6.4c1-2.4,1.9-4.8,2.7-7.3c0.7-2.5,1.3-4.9,1.7-7.3c0.4-2.4,0.6-4.5,0.6-6.3c-0.1,0.2-0.2,0.3-0.5,0.4
			c-0.3,0.1-0.6,0.2-0.9,0.3c-0.3,0.1-0.7,0.1-1,0.2c-0.3,0-0.6,0-0.8,0c-0.6,0-1.1-0.2-1.6-0.5c-0.5-0.3-0.8-0.7-1.1-1.2
			c-0.3-0.5-0.5-1-0.7-1.6c-0.1-0.6-0.2-1.2-0.2-1.8c0-1.6,0.5-2.9,1.5-3.9C172.2,32.7,173.7,32.2,175.9,32.2 M175.9,24.7
			c-3.5,0-6,0.9-7.8,2h-4.6h-14.4H148h-9.2h-14.4h-6.1l-1.3,5.9l-6.8,32.1c-0.3,1.5-0.5,2.9-0.7,4.2c-0.2,1.4-0.2,2.7-0.2,3.9
			c0,3,0.4,5.7,1.3,8c0.9,2.5,2.3,4.6,4,6.4c1.8,1.8,3.9,3.1,6.3,4c2.1,0.7,4.3,1.1,6.7,1.1c1.4,0,2.9-0.1,4.4-0.4
			c1.9-0.3,3.8-0.9,5.6-1.9c1-0.5,2-1.1,3-1.8c0.3,0.2,0.6,0.5,1,0.7c3.3,2.2,7.4,3.3,12.1,3.3c4.6,0,8.9-1,12.7-3
			c3.5-1.8,6.7-4.3,9.4-7.3c2.6-2.9,4.8-6.1,6.6-9.8c1.7-3.4,3.1-7,4.2-10.6c1.1-3.6,1.9-7.2,2.4-10.8c0.5-3.5,0.8-6.9,0.8-9.9
			c0-1.6-0.2-3.2-0.5-4.7c-0.4-1.9-1-3.6-2-5.1c-1.1-1.9-2.6-3.4-4.4-4.5C180.8,25.3,178.5,24.7,175.9,24.7L175.9,24.7z M167.8,50.2
			l0.3-1.5c0,0,0,0,0,0C168,49.2,167.9,49.7,167.8,50.2L167.8,50.2z"/>
	</g>
	<g id="XMLID_686_">
		<path id="XMLID_30_" fill="#FFFFFF" d="M194.9,88.5c-1.6,0-3.2-0.3-4.6-1c-1.4-0.6-2.6-1.4-3.6-2.5c-1.1-1.1-1.9-2.3-2.5-3.7
			c-0.6-1.4-0.9-3-0.9-4.6c0-1.6,0.3-3.2,1-4.6c0.6-1.4,1.5-2.6,2.5-3.6c1.1-1,2.3-1.9,3.7-2.5c1.4-0.6,3-0.9,4.6-0.9
			s3.1,0.3,4.6,0.9c1.4,0.6,2.6,1.4,3.7,2.5c1,1.1,1.9,2.3,2.5,3.7c0.6,1.4,0.9,2.9,0.9,4.6c0,1.6-0.3,3.1-0.9,4.6
			c-0.6,1.4-1.4,2.7-2.5,3.7c-1,1-2.3,1.9-3.7,2.5C198.1,88.2,196.6,88.5,194.9,88.5z M189.2,64.8l8.7-57.1l23.8-3.2l-16.8,60.3
			H189.2z"/>
		<path id="XMLID_26_" fill="#8D563E" d="M216.5,9L202,61.1h-8.5l7.6-50L216.5,9 M194.9,68.9c1.1,0,2.1,0.2,3.1,0.6
			c1,0.4,1.8,1,2.5,1.7c0.7,0.7,1.3,1.5,1.7,2.5c0.4,0.9,0.6,2,0.6,3.1c0,1.1-0.2,2.1-0.6,3.1c-0.4,1-1,1.8-1.7,2.5
			c-0.7,0.7-1.6,1.3-2.5,1.7c-1,0.4-2,0.6-3.1,0.6c-1.1,0-2.1-0.2-3.1-0.6c-1-0.4-1.8-1-2.5-1.7c-0.7-0.7-1.3-1.6-1.7-2.5
			c-0.4-1-0.6-2-0.6-3.1c0-1.1,0.2-2.1,0.6-3.1c0.4-0.9,1-1.8,1.7-2.5c0.7-0.7,1.6-1.3,2.5-1.7C192.8,69.1,193.8,68.9,194.9,68.9
			 M226.8,0l-11.3,1.5l-15.4,2.1l-5.5,0.8l-0.8,5.5l-7.6,50l-0.7,4.7c-0.5,0.4-0.9,0.8-1.3,1.2c-1.4,1.4-2.5,3-3.3,4.8
			c-0.9,1.9-1.3,4-1.3,6.1c0,2.1,0.4,4.2,1.3,6.1c0.8,1.9,1.9,3.5,3.4,4.9c1.4,1.3,3,2.4,4.8,3.2c1.9,0.8,4,1.3,6.1,1.3
			c2.1,0,4.2-0.4,6.1-1.3c1.8-0.8,3.4-1.9,4.8-3.3c1.4-1.4,2.5-3.1,3.3-5c0.8-1.9,1.2-3.9,1.2-6c0-2.1-0.4-4.2-1.2-6
			c-0.4-0.9-0.8-1.7-1.3-2.4l1.4-5.2L223.7,11L226.8,0L226.8,0z"/>
	</g>
</g>
</svg>
