<?xml version="1.0" encoding="utf-8"?>
<!-- Generator: Adobe Illustrator 19.0.0, SVG Export Plug-In . SVG Version: 6.00 Build 0)  -->
<svg version="1.1" id="Camada_1" xmlns="http://www.w3.org/2000/svg" xmlns:xlink="http://www.w3.org/1999/xlink" x="0px" y="0px"
	 viewBox="0 0 773.1 965.4" enable-background="new 0 0 773.1 965.4" xml:space="preserve">
<g id="XMLID_124_">
	<g id="XMLID_3638_">
		<g id="XMLID_3665_">
			<polygon id="XMLID_131_" fill="#FFFFFF" points="230.7,345.2 247.4,268.5 171.4,268.5 183.6,214.7 259.3,214.7 275.5,140.3 
				330.1,140.3 313.9,214.7 392,214.7 380.4,268.5 301.8,268.5 285.3,345.2 			"/>
			<path id="XMLID_128_" fill="#8D563E" d="M323,146l-16.2,74.4h78.1l-9.1,42.3h-78.6l-16.4,76.8h-42.8l16.7-76.8h-76l9.7-42.3H264
				l16.2-74.4H323 M337.3,134.5H323h-42.8h-9.3l-2,9.1l-14.2,65.3h-66.4h-9.2l-2,9l-9.7,42.3l-3.2,14.1h14.4h61.7L226.6,337l-3,14
				h14.3h42.8h9.3l2-9.1l14.5-67.7h69.3h9.3l2-9.1l9.1-42.3l3-14h-14.3h-63.8l13.1-60.4L337.3,134.5L337.3,134.5z"/>
		</g>
		<g id="XMLID_3639_">
			<path id="XMLID_125_" fill="#FFFFFF" d="M410.9,429.3l70.5-333.7h-51l9.2-36.1h4.5c7.2,0,15.3-0.3,24.1-1
				c8.7-0.7,18.5-2.4,29.3-5.2c10.8-2.8,23-6.9,36.1-12.3c13.1-5.4,27.8-12.9,43.6-22.4l11.4-6.8l-88.8,417.5H410.9z"/>
			<path id="XMLID_113_" fill="#8D563E" d="M580.1,23.6l-85.1,400h-77l70.5-333.7h-50.7l6.3-24.5c7.3,0,15.5-0.3,24.5-1
				c9-0.7,19.1-2.5,30.3-5.4c11.1-2.9,23.4-7,36.8-12.5C549.2,40.9,564,33.3,580.1,23.6 M596.9,0l-22.7,13.7
				c-15.6,9.4-30,16.8-42.8,22.1c-12.9,5.3-24.7,9.3-35.3,12c-10.5,2.7-20,4.4-28.3,5c-8.7,0.7-16.7,1-23.7,1h-8.9l-2.2,8.7
				L426.7,87l-3.7,14.4h14.8h36.4l-67.6,319.8l-2.9,13.9H418h77h9.3l1.9-9.1l85.1-400L596.9,0L596.9,0z"/>
		</g>
	</g>
	<g id="XMLID_126_">
		<g id="XMLID_3636_">
			<path id="XMLID_111_" fill="#FFFFFF" d="M130,671.7l14.1-65.3l-17.9-69.9c-6.8,3.2-12.3,7.7-16.3,13.5
				c-4.8,6.8-7.2,15.5-7.2,25.8c0,2.3,0.1,4.2,0.4,5.5c0.3,1.4,0.5,2.5,0.8,3.3c0.3,1,0.5,1.4,0.7,1.6c0.6,1.1,0.9,2.2,0.9,3.2v3.7
				h-3.7c-3.7,0-7.1-0.4-10.1-1.1c-3.2-0.8-6-2.2-8.2-4c-2.3-1.9-4-4.4-5.2-7.5c-1.1-2.9-1.7-6.4-1.7-10.5c0-4.9,1.1-9.9,3.2-14.6
				c2.1-4.6,4.9-9,8.5-13.1c3.5-4,7.7-7.8,12.5-11.2c4.7-3.4,9.8-6.3,15.2-8.8c5.4-2.5,11.1-4.4,16.9-5.8c5.9-1.4,11.8-2.1,17.7-2.1
				c1.5,0,3,0,4.3,0.1c1.3,0.1,2.7,0.2,4,0.3l2.6,0.3l15.3,63.1l26.2-62.8h21.5l-41,92.3l-13.7,64.2H130z"/>
			<path id="XMLID_99_" fill="#8D563E" d="M150.5,517.9c1.5,0,2.9,0,4.2,0.1c1.3,0.1,2.6,0.2,3.9,0.3l17.4,71.6l29.6-71h13.3
				l-38.9,87.4l-13.2,61.6h-32l13.3-61.6l-19.2-75c-9.4,3.5-16.7,9-21.9,16.5c-5.2,7.5-7.9,16.8-7.9,27.9c0,2.5,0.1,4.6,0.4,6.2
				c0.3,1.6,0.6,2.9,0.9,3.8c0.3,0.9,0.6,1.7,0.9,2.2c0.3,0.5,0.4,1,0.4,1.4c-3.5,0-6.5-0.3-9.2-1c-2.7-0.7-4.9-1.8-6.7-3.3
				c-1.8-1.5-3.2-3.5-4.1-6c-0.9-2.5-1.4-5.5-1.4-9.2c0-4.4,1-8.8,2.9-13.1c1.9-4.3,4.6-8.4,7.9-12.2c3.4-3.8,7.3-7.4,11.8-10.6
				c4.5-3.3,9.4-6.1,14.6-8.4c5.2-2.4,10.6-4.2,16.2-5.6C139.2,518.6,144.9,517.9,150.5,517.9 M150.5,510.4
				c-6.2,0-12.4,0.7-18.6,2.2c-6.1,1.4-12,3.5-17.6,6c-5.6,2.6-10.9,5.7-15.8,9.2c-5,3.6-9.4,7.5-13.1,11.8
				c-3.8,4.4-6.9,9.1-9.1,14.1c-2.3,5.2-3.5,10.7-3.5,16.1c0,4.6,0.6,8.5,1.9,11.9c1.4,3.7,3.5,6.7,6.3,9c2.6,2.2,5.9,3.8,9.6,4.8
				c3.3,0.8,7,1.3,11,1.3h7.5v-7.5c0-1.7-0.5-3.4-1.4-5c0,0,0,0,0,0c0,0-0.1-0.3-0.4-1c-0.1-0.3-0.3-1.1-0.6-2.7
				c-0.1-0.8-0.3-2.3-0.3-4.8c0-9.5,2.2-17.5,6.5-23.6c2.9-4.1,6.4-7.4,10.8-10.1l16.5,64.5l-12.9,59.9l-2,9.1h9.3h32h6.1l1.3-5.9
				l13-60.9l38.6-86.7l4.7-10.5h-11.5h-13.3h-5l-1.9,4.6l-20.8,49.9l-12-49.4l-1.3-5.2l-5.3-0.5c-1.4-0.1-2.8-0.2-4.2-0.3
				C153.6,510.5,152.1,510.4,150.5,510.4L150.5,510.4z"/>
		</g>
		<g id="XMLID_3572_">
			<path id="XMLID_121_" fill="#FFFFFF" d="M232.3,672.4c-5,0-9.6-0.6-13.9-1.9c-4.5-1.3-8.4-3.4-11.6-6.3
				c-3.3-2.9-5.8-6.6-7.6-11.2c-1.8-4.4-2.7-9.8-2.7-16c0-4.1,0.4-8.8,1.3-13.9c0.8-5.2,2.2-10.5,4.1-16c1.9-5.5,4.3-10.9,7.2-16.1
				c3-5.3,6.7-10.2,11-14.4c4.4-4.3,9.5-7.7,15.2-10.3c5.8-2.7,12.5-4,19.8-4c12.9,0,28.2,5.7,29.4,32.3c1.6-0.1,3.3-0.4,5.1-0.9
				c2.5-0.6,5.1-1.5,7.7-2.5c2.6-1,5.1-2.3,7.6-3.7c2.5-1.4,4.8-2.8,6.8-4.3l4.2-2.9l4,12.4l-1.5,1.6c-4.2,4.4-9.7,8.2-16.3,11.3
				c-5.7,2.6-11.8,4.6-18.4,5.9c-0.9,8.4-2.7,16.2-5.3,23.1c-2.9,7.8-6.6,14.5-11.1,20c-4.5,5.6-9.8,10-15.8,13
				C245.4,670.9,239,672.4,232.3,672.4z M256.7,582c-1.5,0-3,0.6-4.5,1.9c-1.9,1.6-3.8,3.8-5.6,6.5c-1.9,2.9-3.6,6.2-5.2,9.9
				c-1.6,3.8-3,7.7-4.1,11.7c-1.1,4-2,8-2.6,11.9c-0.6,3.9-0.9,7.4-0.9,10.5c0,3.1,0.2,5.6,0.5,7.5c0.3,1.9,0.8,3,1.2,3.5
				c0.4,0.5,0.8,0.9,1.3,1.1c0.9,0.3,2.1,0.5,3.6,0.5c1.5,0,3.1-0.8,4.8-2.3c2.1-1.9,4.1-4.5,6-7.8c1.9-3.5,3.7-7.7,5.2-12.5
				c1.3-4,2.3-8.4,3-13c-1.9-1.1-2.9-2.6-3.5-3.8c-1-2-1.5-4.4-1.5-7c0-3.5,0.8-6.5,2.3-8.9c1-1.6,2.3-2.9,3.8-4
				c-0.1-1-0.2-1.8-0.4-2.6c-0.3-1.3-0.6-2.1-0.9-2.5c-0.2-0.3-0.4-0.5-0.5-0.6C258.4,582.2,257.8,582,256.7,582z"/>
			<path id="XMLID_116_" fill="#8D563E" d="M255,566.2c17.1,0,25.7,10.6,25.7,31.9v0.2c0.3,0.1,0.6,0.2,0.9,0.2s0.7,0,1.2,0
				c2.3,0,4.9-0.3,7.6-1c2.7-0.7,5.4-1.6,8.2-2.7c2.7-1.1,5.4-2.4,8-3.9c2.6-1.5,5-2.9,7.1-4.4l1.8,5.5c-3.9,4.1-9,7.6-15.1,10.4
				c-6.2,2.9-13,4.9-20.3,6.2c-0.8,9.2-2.6,17.6-5.3,25c-2.8,7.4-6.3,13.7-10.5,18.9c-4.2,5.2-9.1,9.2-14.6,12
				c-5.5,2.8-11.3,4.2-17.4,4.2c-4.6,0-8.9-0.6-12.8-1.7c-3.9-1.1-7.3-3-10.2-5.5c-2.8-2.5-5-5.8-6.6-9.8c-1.6-4-2.4-8.9-2.4-14.6
				c0-3.9,0.4-8.3,1.2-13.3c0.8-5,2.1-10.1,3.9-15.4c1.8-5.3,4.1-10.4,6.9-15.5c2.8-5,6.3-9.6,10.4-13.5c4.1-4,8.8-7.2,14.1-9.6
				C242.1,567.4,248.2,566.2,255,566.2 M240.3,650.7c2.4,0,4.8-1.1,7.3-3.2s4.7-5.1,6.8-8.8c2.1-3.7,3.9-8.1,5.5-13.2
				c1.6-5.1,2.8-10.5,3.6-16.4c-2.1-0.5-3.5-1.5-4.2-3.1c-0.7-1.5-1.1-3.3-1.1-5.3c0-2.8,0.6-5.1,1.7-6.9c1.1-1.8,2.7-3.1,4.5-4
				c-0.1-2.1-0.4-4-0.7-5.4c-0.3-1.5-0.8-2.7-1.4-3.6c-0.6-0.9-1.3-1.6-2.2-2s-2-0.6-3.4-0.6c-2.4,0-4.7,0.9-6.9,2.8
				c-2.2,1.9-4.3,4.3-6.3,7.4c-2,3.1-3.8,6.6-5.5,10.5c-1.7,3.9-3.1,8-4.2,12.2c-1.2,4.2-2.1,8.3-2.7,12.4c-0.7,4.1-1,7.8-1,11.1
				s0.2,6,0.5,8.1c0.4,2.1,0.9,3.7,1.8,4.9c0.8,1.2,1.9,2,3.2,2.5C236.8,650.5,238.4,650.7,240.3,650.7 M255,558.7
				c-7.9,0-15.1,1.5-21.4,4.3c-6.1,2.8-11.6,6.5-16.2,11.1c-4.6,4.5-8.5,9.6-11.7,15.2c-3,5.4-5.6,11.1-7.5,16.7
				c-1.9,5.6-3.3,11.2-4.2,16.6c-0.9,5.4-1.3,10.2-1.3,14.5c0,6.7,1,12.5,2.9,17.4c2,5.1,4.9,9.3,8.6,12.6c3.7,3.2,8,5.6,13,7.1
				c4.6,1.3,9.6,2,14.9,2c7.3,0,14.3-1.7,20.8-5c6.4-3.3,12.1-8,16.9-14c4.7-5.8,8.7-12.9,11.7-21.1c2.4-6.5,4.1-13.6,5.2-21.3
				c5.9-1.4,11.5-3.2,16.6-5.6c7-3.2,12.9-7.3,17.4-12.1l3.1-3.2l-1.4-4.2l-1.8-5.5l-3.1-9.6l-8.3,5.8c-1.9,1.3-4.1,2.7-6.5,4.1
				c-2.3,1.3-4.7,2.5-7.1,3.4c-2.4,1-4.8,1.8-7.2,2.4c-0.3,0.1-0.5,0.1-0.8,0.2C284.9,563,266.4,558.7,255,558.7L255,558.7z
				 M238.4,643.1c-0.1-0.3-0.3-0.8-0.5-1.7c-0.3-1.7-0.4-4-0.4-6.8c0-2.9,0.3-6.2,0.9-9.9c0.6-3.8,1.5-7.6,2.5-11.5
				c1.1-3.8,2.4-7.6,3.9-11.3c1.5-3.5,3.1-6.7,4.8-9.3c1.6-2.4,3.2-4.3,4.8-5.7c0.8-0.6,1.3-0.9,1.7-1c0,0.1,0,0.2,0.1,0.3
				c0,0.1,0,0.1,0,0.2c-1.1,1-2.1,2.2-2.9,3.5c-1.9,3-2.9,6.7-2.9,10.9c0,3.2,0.6,6.1,1.9,8.6c0.6,1.2,1.4,2.5,2.8,3.7
				c-0.7,3.6-1.5,7-2.5,10.2c-1.4,4.6-3.1,8.5-4.9,11.8c-1.7,3-3.4,5.3-5.2,6.8c-1.1,1-2,1.4-2.3,1.4
				C239.4,643.2,238.8,643.2,238.4,643.1L238.4,643.1z"/>
		</g>
		<g id="XMLID_3570_">
			<path id="XMLID_97_" fill="#FFFFFF" d="M360.1,672.8c-6.7,0-12.1-2-16.1-6c-2.2-2.1-3.9-4.7-5.1-7.8c-1.1,1.4-2.3,2.6-3.5,3.7
				c-2.9,2.7-5.8,4.8-8.6,6.3c-2.9,1.5-5.8,2.6-8.6,3.1c-2.6,0.5-5.1,0.7-7.4,0.7c-3.4,0-6.6-0.5-9.6-1.6c-3.1-1.1-5.9-2.8-8.2-5.2
				c-2.3-2.3-4.1-5.3-5.4-8.7c-1.3-3.4-1.9-7.5-1.9-12.1c0-2,0.1-4.1,0.4-6.4c0.3-2.3,0.7-4.8,1.2-7.4l14.2-67.2h36.5l-15.3,72.5
				c-0.3,1.5-0.5,2.9-0.5,4.3c0,0.9,0.1,1.8,0.2,2.6c0.1,0.6,0.3,1.2,0.6,1.6c0.2,0.3,0.3,0.5,0.6,0.6c0,0,0.2,0.1,0.8,0.1
				c1.3,0,2.5-0.3,3.6-0.9c1.2-0.7,2.3-1.6,3.4-2.8c1.1-1.3,2.1-2.9,3-4.8c0.9-2,1.7-4.1,2.5-6.5l14.2-67h36.5L372,636.8l0,0.1
				c-0.3,0.9-0.5,1.8-0.6,2.7c-0.1,0.9-0.2,1.8-0.2,2.7c0,1.9,0.4,2.7,0.6,2.9c0.3,0.2,1.3,0.8,3.9,0.8c0.8,0,1.5,0,2-0.1
				c0.4,0,0.8-0.1,1.1-0.2c0.3-0.1,0.6-0.2,0.8-0.3c0.5-0.2,1.1-0.4,1.7-0.6l5.1-1.5l-0.4,5.3c-0.3,4.1-1.2,7.7-2.7,10.8
				c-1.5,3-3.5,5.6-5.9,7.6c-2.4,2-5.2,3.5-8.2,4.4C366.3,672.4,363.2,672.8,360.1,672.8z"/>
			<path id="XMLID_65_" fill="#8D563E" d="M382.7,567.9l-14.4,68c-0.3,1.1-0.6,2.2-0.7,3.3c-0.1,1.1-0.2,2.1-0.2,3.2
				c0,2.8,0.7,4.7,2,5.8c1.3,1.1,3.4,1.6,6.2,1.6c1,0,1.8,0,2.4-0.1c0.6-0.1,1.2-0.2,1.7-0.3c0.5-0.1,0.9-0.3,1.3-0.4
				c0.4-0.2,0.8-0.3,1.3-0.4c-0.3,3.6-1,6.8-2.3,9.3c-1.3,2.6-3,4.7-5,6.4c-2,1.7-4.3,2.9-6.9,3.7c-2.6,0.8-5.2,1.2-8,1.2
				c-5.7,0-10.2-1.6-13.5-4.9c-3.4-3.3-5.4-8-6.1-14c-2.5,4.1-5,7.4-7.7,9.9c-2.6,2.5-5.2,4.4-7.8,5.8c-2.6,1.4-5.1,2.3-7.5,2.7
				c-2.4,0.4-4.7,0.6-6.8,0.6c-3,0-5.8-0.5-8.4-1.4c-2.6-0.9-4.9-2.3-6.8-4.3c-1.9-2-3.4-4.4-4.5-7.4c-1.1-3-1.7-6.6-1.7-10.8
				c0-1.8,0.1-3.8,0.4-6c0.3-2.2,0.7-4.5,1.2-7.1l13.6-64.2h28.8l-14.4,68c-0.4,1.7-0.6,3.4-0.6,5.1c0,1.2,0.1,2.3,0.3,3.3
				c0.2,1,0.5,2,1,2.8c0.5,0.8,1.1,1.5,1.8,2c0.7,0.5,1.7,0.7,2.9,0.7c2,0,3.7-0.4,5.4-1.3c1.6-0.9,3.1-2.1,4.4-3.7
				c1.3-1.6,2.5-3.4,3.5-5.6c1-2.2,1.9-4.5,2.7-7.1l13.6-64.2H382.7 M391.9,560.4h-9.2h-28.8h-6.1l-1.3,5.9L333,630.2
				c-0.7,2.1-1.4,4-2.2,5.8c-0.7,1.5-1.5,2.9-2.4,3.9c-0.7,0.9-1.5,1.5-2.3,1.9c-0.1,0-0.2,0.1-0.2,0.1c0-0.3,0-0.7,0-1
				c0-1.1,0.1-2.3,0.4-3.4l0-0.1l0-0.1l14.4-68l1.9-9h-9.2h-28.8h-6.1l-1.3,5.9l-13.6,64.2c-0.6,2.8-1,5.4-1.3,7.7
				c-0.3,2.5-0.4,4.8-0.4,6.9c0,5.1,0.7,9.6,2.1,13.4c1.5,4,3.6,7.4,6.2,10.1c2.7,2.8,6,4.8,9.7,6.1c3.4,1.2,7,1.8,10.9,1.8
				c2.5,0,5.2-0.3,8.1-0.7c3.2-0.6,6.5-1.7,9.8-3.5c3.1-1.7,6.3-4,9.4-6.9c0,0,0,0,0,0c1,1.5,2.1,2.8,3.4,4.1
				c4.8,4.7,11.1,7.1,18.8,7.1c3.5,0,6.9-0.5,10.1-1.5c3.5-1.1,6.7-2.8,9.5-5.1c2.8-2.3,5.1-5.3,6.8-8.8c1.7-3.5,2.8-7.5,3.1-12.2
				l0.8-10.7l-10.3,3c-0.7,0.2-1.4,0.5-2.1,0.7c0,0-0.1,0.1-0.4,0.1c0,0-0.2,0-0.5,0.1c-0.2,0-0.7,0.1-1.6,0.1c-0.3,0-0.5,0-0.7,0
				c0-0.7,0.1-1.4,0.1-2.2c0.1-0.7,0.2-1.4,0.4-2.1l0.1-0.3l0.1-0.3l14.4-68L391.9,560.4L391.9,560.4z"/>
		</g>
		<g id="XMLID_3566_">
			<path id="XMLID_107_" fill="#FFFFFF" d="M499.5,672.8c-6.6,0-12-1.9-16.1-5.6c-2.3-2.1-4.1-4.9-5.4-8.1c-0.2,0.3-0.5,0.6-0.7,0.8
				c-2.1,2.4-4.5,4.5-7.2,6.4c-2.7,1.9-5.7,3.5-9,4.7c-3.4,1.2-7.1,1.8-11.1,1.8c-3.9,0-7.6-0.6-11.2-1.9c-3.7-1.3-7.1-3.4-10-6.4
				c-2.8-2.9-5.1-6.7-6.8-11.3c-1.6-4.5-2.5-10-2.5-16.3c0-4.7,0.5-9.9,1.4-15.3c0.9-5.4,2.4-10.9,4.4-16.3c2-5.4,4.4-10.7,7.4-15.6
				c3-5,6.5-9.6,10.6-13.5c4.1-4,8.8-7.2,14-9.5c5.3-2.4,11.2-3.6,17.5-3.6c6.6,0,11.3,1.2,14.6,3.7c0,0,0.1,0.1,0.1,0.1l0.6-2.8
				h36.5l-15.3,72.6l0,0.1c-0.3,0.9-0.5,1.8-0.6,2.7c-0.1,0.9-0.2,1.8-0.2,2.7c0,4.1,1.5,4.8,4.5,4.8c1.3,0,2.4-0.3,3.5-1
				c1.3-0.8,2.5-1.9,3.6-3.2c1.2-1.4,2.2-3.2,3.1-5.2c1-2.1,1.8-4.4,2.4-6.8l0.8-2.7h16.5l-1.7,5c-2,5.6-4.1,10.5-6.4,14.6
				c-2.3,4.2-4.8,7.8-7.3,10.7c-2.6,3-5.3,5.4-8,7.3c-2.7,1.8-5.4,3.3-8,4.3c-2.6,1-5.1,1.7-7.5,2.1
				C503.6,672.6,501.4,672.8,499.5,672.8z M481,583.1c-2,0-3.9,0.7-5.8,2c-2.2,1.6-4.2,3.7-6,6.4c-1.9,2.8-3.7,6-5.2,9.6
				c-1.6,3.7-2.9,7.5-4,11.4c-1.1,3.9-1.9,7.8-2.5,11.6c-0.6,3.7-0.8,7.1-0.8,10c0,4.2,0.5,6.5,0.9,7.7c0.7,2,1.4,2.9,1.7,3.2
				c0.4,0.4,0.9,0.7,1.2,0.8c1,0.2,1.8,0.2,2.5,0.2c1,0,2-0.3,3.2-0.8c1.3-0.6,2.5-1.4,3.7-2.6c1.3-1.2,2.5-2.8,3.5-4.7
				c1.1-1.9,1.9-4.1,2.5-6.7l9.5-44.6c0-0.2-0.1-0.5-0.2-0.9c-0.1-0.4-0.4-0.9-0.7-1.3c-0.3-0.4-0.7-0.7-1.3-1
				C483,583.3,482.3,583.1,481,583.1z"/>
			<path id="XMLID_102_" fill="#8D563E" d="M474.9,566.9c5.7,0,9.8,1,12.4,2.9c2.6,2,3.9,4.4,3.9,7.2v1.5l2.1-10.6H522l-14.4,68
				c-0.3,1.1-0.6,2.2-0.7,3.3c-0.1,1.1-0.2,2.1-0.2,3.2c0,5.7,2.7,8.6,8.2,8.6c2,0,3.8-0.5,5.4-1.5c1.7-1,3.2-2.4,4.5-4.1
				c1.4-1.7,2.6-3.7,3.6-6c1-2.3,1.9-4.7,2.6-7.3h8.4c-1.9,5.4-3.9,10.1-6.2,14.1c-2.2,4-4.5,7.3-6.9,10.1c-2.4,2.7-4.8,4.9-7.3,6.6
				c-2.5,1.7-4.9,3-7.2,3.9c-2.3,0.9-4.6,1.5-6.7,1.9c-2.1,0.3-4.1,0.5-5.9,0.5c-5.7,0-10.2-1.5-13.5-4.6c-3.4-3.1-5.4-7.7-6.1-13.7
				c-1.6,2.3-3.4,4.5-5.4,6.7c-2,2.2-4.1,4.1-6.5,5.9c-2.4,1.7-5.1,3.1-8.1,4.2c-3,1.1-6.2,1.6-9.8,1.6c-3.5,0-6.8-0.6-10-1.7
				c-3.2-1.1-6-2.9-8.5-5.5c-2.5-2.5-4.5-5.9-6-10s-2.2-9.1-2.2-15c0-4.6,0.5-9.4,1.4-14.6c0.9-5.2,2.3-10.4,4.2-15.6
				c1.9-5.2,4.2-10.2,7.1-15s6.2-9,10-12.7c3.8-3.7,8.1-6.6,12.9-8.8C463.8,568,469.1,566.9,474.9,566.9 M463.1,649.7
				c1.5,0,3.1-0.4,4.7-1.1c1.7-0.7,3.3-1.9,4.8-3.3c1.5-1.5,2.9-3.3,4.2-5.5c1.3-2.2,2.2-4.8,2.9-7.7l9.6-45.1
				c0-0.6-0.1-1.3-0.4-2.2c-0.3-0.9-0.7-1.7-1.3-2.5c-0.6-0.8-1.4-1.5-2.5-2.1c-1-0.6-2.4-0.8-4-0.8c-2.8,0-5.5,0.9-8,2.7
				c-2.5,1.8-4.8,4.2-6.9,7.3c-2.1,3-3.9,6.5-5.6,10.3c-1.6,3.8-3,7.8-4.2,11.9c-1.1,4.1-2,8.1-2.6,12c-0.6,3.9-0.9,7.5-0.9,10.6
				c0,3.8,0.4,6.8,1.1,8.9c0.7,2.1,1.6,3.6,2.6,4.6c1,1,2.1,1.6,3.3,1.8S462.1,649.7,463.1,649.7 M474.9,559.4
				c-6.8,0-13.2,1.3-19,3.9c-5.6,2.5-10.6,6-15.1,10.2c-4.3,4.1-8,8.9-11.2,14.3c-3.1,5.2-5.6,10.6-7.7,16.3
				c-2,5.6-3.6,11.3-4.5,16.9c-1,5.6-1.5,11-1.5,15.9c0,6.8,0.9,12.7,2.7,17.6c1.9,5.1,4.4,9.3,7.6,12.6c3.3,3.4,7.1,5.8,11.4,7.3
				c4,1.4,8.1,2.1,12.4,2.1c4.4,0,8.6-0.7,12.4-2.1c3.6-1.3,6.9-3,9.9-5.2c1.7-1.2,3.3-2.5,4.8-3.9c1.1,1.7,2.4,3.2,3.8,4.5
				c4.8,4.4,11,6.6,18.6,6.6c2.1,0,4.5-0.2,7-0.6c2.7-0.4,5.5-1.2,8.3-2.3c2.9-1.1,5.8-2.7,8.7-4.7c3-2,5.9-4.7,8.7-7.9
				c2.7-3.1,5.3-6.9,7.8-11.3c2.4-4.3,4.7-9.5,6.7-15.2l3.5-10h-10.5h-8.4h-5.7L524,630c-0.6,2.2-1.4,4.3-2.3,6.2
				c-0.8,1.7-1.7,3.2-2.6,4.4c-0.8,1-1.7,1.8-2.6,2.4c-0.5,0.3-0.9,0.4-1.5,0.4c-0.3,0-0.5,0-0.6,0c0-0.2-0.1-0.6-0.1-1.1
				c0-0.7,0-1.5,0.1-2.3c0.1-0.7,0.2-1.4,0.4-2.1l0.1-0.3l0.1-0.3l14.4-68l1.9-9H522h-28.8h-6.1l-0.2,0.9
				C483.6,560.1,479.6,559.4,474.9,559.4L474.9,559.4z M461.8,642.2c-0.1-0.3-0.4-0.7-0.7-1.6c-0.2-0.6-0.7-2.4-0.7-6.5
				c0-2.7,0.3-5.9,0.8-9.5c0.5-3.6,1.3-7.3,2.4-11.1c1-3.7,2.3-7.4,3.8-11c1.4-3.4,3.1-6.4,4.8-9c1.6-2.3,3.3-4.2,5.1-5.5
				c1.6-1.2,2.8-1.3,3.6-1.3c0.3,0,0.5,0,0.6,0l-9.3,43.6c-0.5,2.2-1.2,4-2.1,5.6c-0.9,1.6-1.9,2.9-2.9,3.8
				c-0.9,0.9-1.8,1.5-2.7,1.9c-0.9,0.4-1.4,0.5-1.7,0.5C462.8,642.3,462.4,642.2,461.8,642.2L461.8,642.2z"/>
		</g>
		<g id="XMLID_3444_">
			<path id="XMLID_63_" fill="#FFFFFF" d="M519,671.7l22.8-107.5h36.4l-1.3,6.5c1.1-0.8,2.3-1.5,3.4-2.2c2.2-1.3,4.5-2.3,6.9-3.1
				c2.5-0.8,5.2-1.3,8-1.3c2.8,0,5.4,0.6,7.7,1.7c2.2,1.1,4,2.5,5.5,4.2c1.5,1.7,2.6,3.8,3.4,6.1c0.7,2.2,1.1,4.5,1.1,6.8
				c0,2.2-0.4,4.3-1.1,6.4c-0.7,2.2-1.9,4.2-3.4,5.9c-1.5,1.7-3.5,3.2-5.7,4.3c-2.3,1.1-5,1.7-8,1.7c-2.6,0-4.7-0.5-6.4-1.6
				c-1.5-1-2.7-2.3-3.6-3.8c-0.7-1.3-1.2-2.7-1.5-4.2c-0.2-1.1-0.4-2-0.7-2.9c-0.1-0.2-0.1-0.4-0.2-0.6c-2,0.1-3.6,0.6-4.9,1.4
				c-1.7,1.1-3.5,2.6-5.5,4.4l-16.4,77.8H519z"/>
			<path id="XMLID_39_" fill="#8D563E" d="M595.2,567.9c2.3,0,4.3,0.4,6,1.3c1.7,0.8,3.2,2,4.3,3.3s2.1,3,2.6,4.8
				c0.6,1.8,0.9,3.7,0.9,5.7c0,1.8-0.3,3.5-0.9,5.2c-0.6,1.7-1.5,3.3-2.7,4.6c-1.2,1.4-2.7,2.5-4.5,3.4c-1.8,0.9-3.9,1.3-6.3,1.3
				c-1.9,0-3.3-0.3-4.3-1c-1-0.7-1.8-1.5-2.3-2.4c-0.5-1-0.9-2-1.1-3.2c-0.2-1.1-0.5-2.2-0.7-3.2c-0.3-1-0.6-1.8-1-2.4
				c-0.4-0.7-1.1-1-2.1-1c-3.1,0-5.6,0.7-7.7,2.1c-2.1,1.4-4.4,3.2-6.8,5.5l-16,76h-28.8l21.2-100h28.8l-2.5,12.4
				c1.8-1.6,3.5-3.1,5.4-4.6c1.8-1.5,3.7-2.8,5.7-4c2-1.1,4.1-2.1,6.2-2.8C590.5,568.3,592.8,567.9,595.2,567.9 M595.2,560.4
				c-3.2,0-6.3,0.5-9.2,1.5c-1.3,0.4-2.6,0.9-3.8,1.5l0.6-2.9h-9.2h-28.8h-6.1l-1.3,5.9l-21.2,100l-1.9,9h9.2h28.8h6.1l1.3-5.9
				l15.5-73.6c1.5-1.3,2.9-2.4,4.2-3.3c0,0,0.1,0,0.1-0.1c0.4,1.8,1,3.5,1.8,5c1.1,2.1,2.8,3.9,4.8,5.2c2.3,1.5,5,2.2,8.4,2.2
				c3.5,0,6.8-0.7,9.6-2.1c2.7-1.3,5-3,6.9-5.2c1.9-2.1,3.3-4.5,4.2-7.2c0.8-2.5,1.3-5.1,1.3-7.6c0-2.7-0.4-5.4-1.2-8
				c-0.9-2.8-2.3-5.2-4.1-7.4c-1.8-2.1-4.1-3.9-6.7-5.2C601.7,561.1,598.6,560.4,595.2,560.4L595.2,560.4z"/>
		</g>
		<g id="XMLID_3423_">
			<path id="XMLID_93_" fill="#FFFFFF" d="M634.6,672.8c-5,0-9.7-0.7-13.9-2c-4.3-1.4-8.1-3.5-11.2-6.5c-3.1-2.9-5.5-6.7-7.2-11.2
				c-1.6-4.4-2.5-9.7-2.5-15.8c0-4,0.4-8.7,1.2-13.9c0.8-5.2,2.1-10.6,3.8-16c1.8-5.5,4.1-10.9,7-16.2c3-5.4,6.6-10.2,10.8-14.5
				c4.3-4.3,9.3-7.8,15.1-10.4c5.8-2.7,12.5-4,19.8-4c5,0,9,0.6,12.3,1.9c3.4,1.3,6.1,3,8.1,5.2c2.1,2.2,3.5,4.8,4.3,7.7
				c0.7,2.6,1.1,5.4,1.1,8.1c0,6.4-1.4,12.4-4.2,17.9c-2.7,5.4-6.5,10.2-11.1,14.2c-4.6,4-9.8,7.2-15.7,9.6c-4.9,2-10,3.4-15.3,4
				c0,0,0,0.1,0,0.1c-0.1,0.9-0.1,1.7-0.1,2.5c0,2.8,0.3,5.1,0.8,6.9c0.5,1.6,1.1,2.9,1.9,3.8c0.7,0.8,1.4,1.3,2.3,1.6
				c1.1,0.4,2.3,0.6,3.7,0.6c1.6,0,3.3-0.3,5.1-0.7c1.9-0.5,3.8-1.2,5.6-2.1c1.9-0.9,3.8-2,5.6-3.1c1.8-1.2,3.4-2.4,4.8-3.7l8.2-7.5
				l-2,10.9c-1.1,6.2-2.9,11.4-5.3,15.6c-2.5,4.2-5.5,7.6-8.9,10.2s-7.3,4.4-11.5,5.4C643.2,672.3,639,672.8,634.6,672.8z
				 M659.2,580.4c-1.5,0-3.1,0.9-4.8,2.6c-2.2,2.2-4.3,5.2-6.2,8.9c-2,3.8-3.9,8.1-5.5,12.8c-1,2.9-1.9,5.8-2.7,8.6
				c1.5-0.4,2.9-1,4.3-1.8c3.1-1.7,5.9-3.9,8.3-6.6c2.4-2.7,4.3-5.8,5.8-9.3c1.4-3.4,2.1-7,2.1-10.7c0-2.4-0.4-3.7-0.7-4.3
				c0,0,0-0.1,0-0.1c0,0,0,0,0,0C659.7,580.5,659.5,580.4,659.2,580.4z"/>
			<path id="XMLID_88_" fill="#8D563E" d="M657.6,566.2c4.5,0,8.2,0.5,11,1.6s5.1,2.5,6.7,4.2s2.8,3.8,3.4,6.1
				c0.6,2.3,0.9,4.7,0.9,7.2c0,5.8-1.3,11.2-3.8,16.2s-5.9,9.3-10.2,13c-4.3,3.7-9.2,6.7-14.7,9c-5.5,2.3-11.3,3.6-17.3,4
				c-0.1,1.1-0.2,2.2-0.3,3.2c-0.1,1-0.1,2-0.1,2.9c0,3.2,0.3,5.9,1,8c0.7,2.1,1.5,3.9,2.6,5.1c1.1,1.3,2.4,2.2,3.9,2.7
				c1.5,0.5,3.1,0.8,4.9,0.8c2,0,4-0.3,6.1-0.9c2.1-0.6,4.2-1.4,6.3-2.3s4.1-2.1,6-3.4s3.7-2.6,5.3-4.1c-1,5.8-2.7,10.6-4.9,14.4
				c-2.2,3.8-4.9,6.8-7.9,9.1c-3.1,2.3-6.4,3.9-10.2,4.8s-7.6,1.4-11.6,1.4c-4.7,0-8.9-0.6-12.7-1.8c-3.8-1.2-7.1-3.1-9.8-5.6
				c-2.7-2.5-4.8-5.8-6.3-9.8s-2.2-8.8-2.2-14.5c0-3.8,0.4-8.3,1.2-13.3c0.8-5,2-10.2,3.7-15.4c1.7-5.3,3.9-10.4,6.7-15.5
				c2.8-5.1,6.2-9.6,10.2-13.6c4-4,8.6-7.2,14-9.7C644.7,567.4,650.7,566.2,657.6,566.2 M635,617.9c3.8-0.1,7.5-1.2,11-3.1
				c3.5-1.9,6.6-4.4,9.3-7.4c2.7-3,4.8-6.5,6.4-10.4c1.6-3.9,2.4-7.9,2.4-12.1c0-2.5-0.4-4.5-1.1-6c-0.7-1.5-2-2.2-3.9-2.2
				c-2.5,0-5,1.3-7.5,3.8c-2.4,2.5-4.7,5.7-6.8,9.7c-2.1,4-4,8.4-5.8,13.3C637.5,608.3,636.1,613.2,635,617.9 M657.6,558.7
				c-7.9,0-15.1,1.5-21.4,4.3c-6.1,2.8-11.6,6.6-16.2,11.2c-4.4,4.5-8.3,9.6-11.4,15.3c-3,5.5-5.5,11.1-7.3,16.9
				c-1.8,5.6-3.1,11.2-4,16.6c-0.8,5.4-1.3,10.2-1.3,14.4c0,6.5,0.9,12.3,2.7,17.1c1.9,5.1,4.7,9.3,8.2,12.6
				c3.5,3.3,7.8,5.8,12.6,7.3c4.5,1.4,9.6,2.2,15,2.2c4.6,0,9.1-0.5,13.4-1.6c4.7-1.1,9-3.2,12.8-6.1c3.9-2.9,7.2-6.7,9.9-11.3
				c2.7-4.5,4.6-10.2,5.8-16.8l3.9-21.8l-16.4,15c-1.2,1.1-2.7,2.3-4.3,3.3c-1.7,1.1-3.4,2.1-5.1,2.9c-1.6,0.8-3.3,1.4-5,1.9
				c-1.5,0.4-2.8,0.6-4.1,0.6c-0.9,0-1.7-0.1-2.4-0.4c-0.2-0.1-0.4-0.2-0.7-0.5c-0.2-0.2-0.7-0.9-1.1-2.4c-0.3-0.9-0.6-2.5-0.6-5.2
				c4.5-0.8,8.9-2,13.1-3.8c6.3-2.6,11.9-6,16.8-10.3c5-4.3,9-9.5,12-15.3c3.1-6,4.6-12.6,4.6-19.6c0-3.1-0.4-6.2-1.2-9.1
				c-0.9-3.5-2.7-6.6-5.2-9.3c-2.4-2.6-5.6-4.6-9.5-6.1C667.5,559.4,663,558.7,657.6,558.7L657.6,558.7z M646.3,605.7
				c1.6-4.4,3.3-8.5,5.2-12c1.6-3.1,3.4-5.6,5.2-7.6c-0.1,2.8-0.7,5.4-1.8,8c-1.3,3.1-3,5.9-5.1,8.2
				C648.7,603.6,647.6,604.7,646.3,605.7L646.3,605.7z"/>
		</g>
		<g id="XMLID_3406_">
			<path id="XMLID_84_" fill="#FFFFFF" d="M83.6,912.8c-6.6,0-12-1.9-16.1-5.6c-2.3-2.1-4.1-4.9-5.4-8.1c-0.2,0.3-0.5,0.6-0.7,0.8
				c-2.1,2.4-4.5,4.5-7.2,6.4c-2.7,1.9-5.7,3.5-9,4.7c-3.4,1.2-7.1,1.8-11.1,1.8c-3.9,0-7.6-0.6-11.2-1.9c-3.7-1.3-7.1-3.4-10-6.4
				c-2.8-2.9-5.1-6.7-6.8-11.3c-1.6-4.5-2.5-10-2.5-16.3c0-4.7,0.5-9.9,1.4-15.3c0.9-5.4,2.4-10.9,4.4-16.3c2-5.4,4.4-10.7,7.4-15.6
				c3-5,6.5-9.6,10.6-13.5c4.1-4,8.8-7.2,14-9.5c5.3-2.4,11.2-3.6,17.5-3.6c6.6,0,11.3,1.2,14.6,3.7c0,0,0.1,0.1,0.1,0.1l0.6-2.8
				h36.5l-15.3,72.6l0,0.1c-0.3,0.9-0.5,1.8-0.6,2.7c-0.1,0.9-0.2,1.8-0.2,2.7c0,4.1,1.5,4.8,4.5,4.8c1.3,0,2.4-0.3,3.5-1
				c1.3-0.8,2.5-1.9,3.6-3.2c1.2-1.4,2.2-3.2,3.1-5.2c1-2.1,1.8-4.4,2.4-6.8l0.8-2.7H129l-1.7,5c-2,5.6-4.1,10.5-6.4,14.6
				c-2.3,4.2-4.8,7.8-7.3,10.7c-2.6,3-5.3,5.4-8,7.3c-2.7,1.8-5.4,3.3-8,4.3c-2.6,1-5.1,1.7-7.5,2.1
				C87.7,912.6,85.5,912.8,83.6,912.8z M65.1,823.1c-2,0-3.9,0.7-5.8,2c-2.2,1.6-4.2,3.7-6,6.4c-1.9,2.8-3.7,6-5.2,9.6
				c-1.6,3.7-2.9,7.5-4,11.4c-1.1,3.9-1.9,7.8-2.5,11.6c-0.6,3.7-0.8,7.1-0.8,10c0,4.2,0.5,6.5,0.9,7.7c0.7,2,1.4,2.9,1.7,3.2
				c0.4,0.4,0.9,0.7,1.2,0.8c1,0.2,1.8,0.2,2.5,0.2c1,0,2-0.3,3.2-0.8c1.3-0.6,2.5-1.4,3.7-2.6c1.3-1.2,2.5-2.8,3.5-4.7
				c1.1-1.9,1.9-4.1,2.5-6.7l9.5-44.6c0-0.2-0.1-0.5-0.2-0.9c-0.1-0.4-0.4-0.9-0.7-1.3c-0.3-0.4-0.7-0.7-1.3-1
				C67.1,823.3,66.4,823.1,65.1,823.1z"/>
			<path id="XMLID_67_" fill="#8D563E" d="M59,806.9c5.7,0,9.8,1,12.4,2.9c2.6,2,3.9,4.4,3.9,7.2v1.5l2.1-10.6h28.8l-14.4,68
				c-0.3,1.1-0.6,2.2-0.7,3.3c-0.1,1.1-0.2,2.1-0.2,3.2c0,5.7,2.7,8.6,8.2,8.6c2,0,3.8-0.5,5.4-1.5c1.7-1,3.2-2.4,4.5-4.1
				c1.4-1.7,2.6-3.7,3.6-6c1-2.3,1.9-4.7,2.6-7.3h8.4c-1.9,5.4-3.9,10.1-6.2,14.1c-2.2,4-4.5,7.3-6.9,10.1c-2.4,2.7-4.8,4.9-7.3,6.6
				c-2.5,1.7-4.9,3-7.2,3.9c-2.3,0.9-4.6,1.5-6.7,1.9c-2.1,0.3-4.1,0.5-5.9,0.5c-5.7,0-10.2-1.5-13.5-4.6c-3.4-3.1-5.4-7.7-6.1-13.7
				c-1.6,2.3-3.4,4.5-5.4,6.7c-2,2.2-4.1,4.1-6.5,5.9c-2.4,1.7-5.1,3.1-8.1,4.2c-3,1.1-6.2,1.6-9.8,1.6c-3.5,0-6.8-0.6-10-1.7
				c-3.2-1.1-6-2.9-8.5-5.5c-2.5-2.5-4.5-5.9-6-10c-1.5-4.1-2.2-9.1-2.2-15c0-4.6,0.5-9.4,1.4-14.6c0.9-5.2,2.3-10.4,4.2-15.6
				c1.9-5.2,4.2-10.2,7.1-15c2.8-4.8,6.2-9,10-12.7c3.8-3.7,8.1-6.6,12.9-8.8C47.9,808,53.2,806.9,59,806.9 M47.1,889.7
				c1.5,0,3.1-0.4,4.7-1.1c1.7-0.7,3.3-1.9,4.8-3.3c1.5-1.5,2.9-3.3,4.2-5.5c1.3-2.2,2.2-4.8,2.9-7.7l9.6-45.1
				c0-0.6-0.1-1.3-0.4-2.2c-0.3-0.9-0.7-1.7-1.3-2.5c-0.6-0.8-1.4-1.5-2.5-2.1c-1-0.6-2.4-0.8-4-0.8c-2.8,0-5.5,0.9-8,2.7
				c-2.5,1.8-4.8,4.2-6.9,7.3c-2.1,3-3.9,6.5-5.6,10.3c-1.6,3.8-3,7.8-4.2,11.9c-1.1,4.1-2,8.1-2.6,12c-0.6,3.9-0.9,7.5-0.9,10.6
				c0,3.8,0.4,6.8,1.1,8.9c0.7,2.1,1.6,3.6,2.6,4.6c1,1,2.1,1.6,3.3,1.8C45.2,889.6,46.2,889.7,47.1,889.7 M59,799.4
				c-6.8,0-13.2,1.3-19,3.9c-5.6,2.5-10.6,6-15.1,10.2c-4.3,4.1-8,8.9-11.2,14.3c-3.1,5.2-5.6,10.6-7.7,16.3
				c-2,5.6-3.6,11.3-4.5,16.9C0.5,866.6,0,872,0,877c0,6.8,0.9,12.7,2.7,17.6c1.9,5.1,4.4,9.3,7.6,12.6c3.3,3.4,7.1,5.8,11.4,7.3
				c4,1.4,8.1,2.1,12.4,2.1c4.4,0,8.6-0.7,12.4-2.1c3.6-1.3,6.9-3,9.9-5.2c1.7-1.2,3.3-2.5,4.8-3.9c1.1,1.7,2.4,3.2,3.8,4.5
				c4.8,4.4,11,6.6,18.6,6.6c2.1,0,4.5-0.2,7-0.6c2.7-0.4,5.5-1.2,8.3-2.3c2.9-1.1,5.8-2.7,8.7-4.7c3-2,5.9-4.7,8.7-7.9
				c2.7-3.1,5.3-6.9,7.8-11.3c2.4-4.3,4.7-9.5,6.7-15.2l3.5-10h-10.5h-8.4h-5.7l-1.5,5.5c-0.6,2.2-1.4,4.3-2.3,6.2
				c-0.8,1.7-1.7,3.2-2.6,4.4c-0.8,1-1.7,1.8-2.6,2.4c-0.5,0.3-0.9,0.4-1.5,0.4c-0.3,0-0.5,0-0.6,0c0-0.2-0.1-0.6-0.1-1.1
				c0-0.7,0-1.5,0.1-2.3c0.1-0.7,0.2-1.4,0.4-2.1l0.1-0.3l0.1-0.3l14.4-68l1.9-9h-9.2H77.3h-6.1l-0.2,0.9
				C67.7,800.1,63.7,799.4,59,799.4L59,799.4z M45.9,882.2c-0.1-0.3-0.4-0.7-0.7-1.6c-0.2-0.6-0.7-2.4-0.7-6.5
				c0-2.7,0.3-5.9,0.8-9.5c0.5-3.6,1.3-7.3,2.4-11.1c1-3.7,2.3-7.4,3.8-11c1.4-3.4,3.1-6.4,4.8-9c1.6-2.3,3.3-4.2,5.1-5.5
				c1.6-1.2,2.8-1.3,3.6-1.3c0.3,0,0.5,0,0.6,0l-9.3,43.6c-0.5,2.2-1.2,4-2.1,5.6c-0.9,1.6-1.9,2.9-2.9,3.8
				c-0.9,0.9-1.8,1.5-2.7,1.9c-0.9,0.4-1.4,0.5-1.7,0.5C46.9,882.3,46.5,882.2,45.9,882.2L45.9,882.2z"/>
		</g>
		<g id="XMLID_3403_">
			<path id="XMLID_37_" fill="#FFFFFF" d="M236.9,912.8c-4.9,0-9.1-0.7-12.6-2.2c-3.5-1.5-6.4-3.5-8.6-6.1c-2.2-2.5-3.7-5.4-4.7-8.6
				c-0.9-3-1.4-6.2-1.4-9.4c0-3.6,0.5-7.9,1.5-12.6c0.9-4.5,2-9.2,3.1-14c1.1-4.7,2.1-9.3,3.1-13.7c0.9-4.2,1.3-7.7,1.3-10.6
				c0-6.5-2.3-6.5-3.5-6.5c-1.1,0-2.1,0.3-3.1,0.9c-1.2,0.7-2.3,1.8-3.3,3.1c-1.1,1.4-2.2,3.1-3.1,5.1c-0.9,2-1.8,4.2-2.5,6.5
				l-14.2,67h-36.5l15.6-73.7c0.3-1.3,0.5-2.6,0.5-4.1c0-0.9-0.1-1.8-0.2-2.6c-0.1-0.6-0.3-1.1-0.6-1.5c-0.2-0.3-0.4-0.6-0.7-0.7
				c0,0-0.2-0.1-0.8-0.1c-1.3,0-2.4,0.3-3.5,0.9c-1.3,0.7-2.4,1.8-3.5,3.1c-1.1,1.5-2.2,3.2-3.1,5.2c-0.9,2.1-1.8,4.3-2.5,6.6
				l-14.2,67h-36.5l22.8-107.5h36.4l-0.9,4.2c1.9-1.2,3.7-2.1,5.5-2.8c2.3-0.9,4.6-1.5,6.9-1.9c2.1-0.3,4.2-0.5,6.1-0.5
				c2.9,0,5.7,0.4,8.3,1.1c2.8,0.7,5.2,2,7.4,3.6c2.1,1.7,4,3.8,5.5,6.4c0.3,0.5,0.6,1.1,0.8,1.6c1.1-1.3,2.3-2.5,3.5-3.6
				c2.8-2.5,5.6-4.4,8.3-5.7c2.7-1.3,5.4-2.2,7.9-2.7c2.4-0.4,4.7-0.6,6.7-0.6c3.6,0,6.9,0.5,10,1.4c3.2,1,6.1,2.6,8.4,4.8
				c2.4,2.2,4.3,5,5.6,8.4c1.3,3.3,1.9,7.2,1.9,11.6c0,2.9-0.3,6-0.8,9.2c-0.5,3.1-1.1,6.4-1.8,9.7c-0.7,3.3-1.5,6.6-2.3,9.8
				c-0.8,3.1-1.6,6.2-2.3,9.1c-0.7,2.9-1.3,5.6-1.7,8c-0.4,2.3-0.7,4.2-0.7,5.9c0,1.7,0.3,2.9,1,3.8c0.3,0.4,1.3,0.8,3.3,0.8
				c1.6,0,2.8-0.3,3.9-0.8c1.2-0.6,2.3-1.5,3.2-2.7c1.1-1.3,2.1-3,3.1-4.9c1-2.1,2.1-4.4,3.1-6.9l0.9-2.4h16.2l-1.7,5
				c-2.9,8.5-6.1,15.4-9.5,20.5c-3.4,5.2-7,9.3-10.6,12.1c-3.7,2.9-7.4,4.8-11.1,5.7C243.1,912.4,239.8,912.8,236.9,912.8z"/>
			<path id="XMLID_24_" fill="#8D563E" d="M179.9,806.9c2.6,0,5,0.3,7.3,0.9c2.3,0.6,4.3,1.6,6.1,3c1.8,1.4,3.3,3.1,4.5,5.3
				c1.2,2.2,2.1,4.8,2.6,8c2.4-3.7,4.9-6.7,7.4-8.9c2.5-2.2,5-4,7.4-5.1c2.4-1.2,4.7-2,6.9-2.3c2.2-0.4,4.2-0.6,6.1-0.6
				c3.2,0,6.1,0.4,8.8,1.3c2.7,0.8,5,2.2,7,4c2,1.8,3.5,4.2,4.6,7c1.1,2.9,1.7,6.3,1.7,10.3c0,2.7-0.2,5.6-0.7,8.6
				c-0.5,3.1-1.1,6.3-1.8,9.5s-1.4,6.4-2.3,9.6c-0.8,3.2-1.6,6.3-2.3,9.2c-0.7,2.9-1.3,5.6-1.8,8.2c-0.5,2.5-0.7,4.7-0.7,6.6
				c0,2.5,0.6,4.5,1.7,6.1c1.1,1.6,3.2,2.3,6.3,2.3c2.1,0,4-0.4,5.7-1.3c1.6-0.8,3.1-2.1,4.4-3.6c1.3-1.6,2.5-3.4,3.6-5.6
				c1.1-2.2,2.1-4.6,3.2-7.2h8.4c-2.8,8.2-5.8,14.7-9,19.6s-6.5,8.6-9.8,11.2c-3.3,2.6-6.5,4.2-9.7,5c-3.2,0.8-6.1,1.2-8.7,1.2
				c-4.4,0-8.1-0.6-11.1-1.9c-3-1.3-5.4-3-7.2-5.1c-1.8-2.1-3.1-4.5-4-7.2c-0.8-2.7-1.2-5.5-1.2-8.3c0-3.4,0.5-7.3,1.4-11.9
				c0.9-4.5,2-9.2,3.1-13.9c1.1-4.8,2.1-9.3,3.1-13.8c0.9-4.4,1.4-8.2,1.4-11.4c0-6.8-2.4-10.3-7.2-10.3c-1.8,0-3.5,0.5-5.1,1.5
				s-3,2.3-4.3,4c-1.3,1.7-2.5,3.6-3.5,5.9c-1,2.2-2,4.6-2.7,7.2l-13.6,64.2h-28.8l14.6-69c0.4-1.6,0.6-3.2,0.6-5
				c0-1.2-0.1-2.3-0.3-3.3c-0.2-1-0.5-2-1-2.8c-0.5-0.8-1.1-1.5-1.9-2c-0.7-0.5-1.7-0.7-2.9-0.7c-2,0-3.8,0.5-5.4,1.5
				s-3.2,2.3-4.5,4c-1.3,1.7-2.5,3.7-3.6,6c-1,2.3-2,4.7-2.7,7.2l-13.6,64.2h-28.8l21.2-100h28.8l-2.1,10.4c2.1-2.4,4.3-4.3,6.4-5.8
				s4.3-2.6,6.3-3.4c2.1-0.8,4.1-1.4,6.1-1.7C176.3,807.1,178.2,806.9,179.9,806.9 M179.9,799.4c-2.1,0-4.4,0.2-6.7,0.5
				c-2.2,0.3-4.4,0.9-6.6,1.7l0.3-1.3h-9.2h-28.8h-6.1l-1.3,5.9l-21.2,100l-1.9,9h9.2h28.8h6.1l1.3-5.9l13.5-63.8
				c0.7-2.1,1.4-4.1,2.3-6c0.8-1.7,1.7-3.2,2.6-4.4c0.7-1,1.6-1.7,2.4-2.2c0.1,0,0.1-0.1,0.2-0.1c0,0.3,0,0.6,0,1
				c0,1.1-0.1,2.2-0.4,3.2l0,0.1l0,0.1l-14.6,69l-1.9,9h9.2h28.8h6.1l1.3-5.9l13.5-63.8c0.7-2.1,1.4-4.1,2.3-5.9
				c0.8-1.7,1.7-3.2,2.6-4.4c0.8-1,1.6-1.7,2.4-2.2c0.2-0.1,0.4-0.2,0.6-0.3c0.1,0.5,0.2,1.4,0.2,2.7c0,2.6-0.4,6-1.3,9.9
				c-0.9,4.4-2,8.9-3,13.6c-1.1,4.8-2.2,9.5-3.1,14.1c-1,5-1.6,9.5-1.6,13.4c0,3.6,0.5,7.1,1.5,10.5c1.1,3.7,2.9,7,5.5,10
				c2.6,3,5.9,5.4,10,7.1c3.9,1.7,8.6,2.5,14.1,2.5c3.3,0,6.8-0.5,10.5-1.4c4.2-1,8.4-3.2,12.5-6.4c4-3.1,7.7-7.3,11.4-13
				c3.6-5.5,6.8-12.4,9.9-21.3l3.4-9.9h-10.5h-8.4h-5.1l-1.9,4.7c-1,2.4-2,4.7-2.9,6.7c-0.8,1.6-1.7,3-2.6,4.1
				c-0.7,0.8-1.4,1.4-2.1,1.8c-0.5,0.3-1.3,0.4-2.2,0.4c-0.2,0-0.3,0-0.5,0c0-0.2-0.1-0.5-0.1-0.9c0-1.4,0.2-3.1,0.6-5.2
				c0.5-2.4,1-5.1,1.7-7.9c0.7-2.9,1.4-5.9,2.2-9c0.9-3.3,1.7-6.7,2.4-10c0.7-3.3,1.3-6.7,1.8-9.9c0.5-3.5,0.8-6.8,0.8-9.8
				c0-4.9-0.7-9.2-2.2-13c-1.5-3.9-3.7-7.2-6.6-9.8c-2.8-2.6-6.1-4.5-9.9-5.6c-3.4-1.1-7.1-1.6-11.1-1.6c-2.3,0-4.7,0.2-7.4,0.7
				c-2.9,0.5-5.9,1.5-8.9,3c-3,1.5-6.1,3.6-9.1,6.3c-0.1,0.1-0.2,0.2-0.3,0.3c-1.4-1.9-3-3.5-4.7-4.9c-2.5-2-5.5-3.4-8.7-4.3
				C186.3,799.8,183.2,799.4,179.9,799.4L179.9,799.4z"/>
		</g>
		<g id="XMLID_3145_">
			<path id="XMLID_78_" fill="#FFFFFF" d="M339.1,912.8c-6.5,0-11.9-2-16-5.9c-2.3-2.2-4.1-4.9-5.4-8c-0.2,0.3-0.5,0.6-0.7,0.8
				c-2.2,2.4-4.6,4.6-7.2,6.5c-2.7,2-5.8,3.5-9.1,4.7c-3.4,1.2-7.1,1.8-11,1.8c-3.9,0-7.6-0.6-11.2-1.9c-3.7-1.3-7.1-3.4-10-6.4
				c-2.8-2.9-5.1-6.7-6.8-11.3c-1.6-4.5-2.5-10-2.5-16.3c0-4.7,0.5-9.9,1.4-15.3c0.9-5.4,2.4-10.9,4.4-16.3c2-5.4,4.4-10.7,7.4-15.6
				c3-5.1,6.5-9.6,10.6-13.5c4.1-4,8.8-7.2,14-9.5c5.3-2.4,11.2-3.6,17.5-3.6c6.6,0,11.3,1.2,14.6,3.7c0,0,0.1,0.1,0.1,0.1l0.6-2.8
				h36.5L351,876.8l0,0.1c-0.3,0.9-0.5,1.8-0.6,2.7c-0.1,0.9-0.2,1.8-0.2,2.7c0,1.9,0.4,2.7,0.6,2.9c0.3,0.2,1.3,0.8,3.9,0.8
				c0.7,0,1.3,0,1.8-0.1c0.3-0.1,0.6-0.1,0.8-0.3l9.2-5.1l-3.9,9.8c-1.4,3.5-2.7,6.6-4,9.2c-1.4,2.8-3,5.3-4.7,7.2
				c-1.9,2.1-4,3.6-6.4,4.7C345,912.3,342.2,912.8,339.1,912.8z M320.7,823.1c-2,0-3.9,0.7-5.8,2c-2.2,1.6-4.2,3.7-6,6.4
				c-1.9,2.8-3.7,6-5.2,9.6c-1.6,3.7-2.9,7.5-4,11.4c-1.1,3.9-1.9,7.8-2.5,11.6c-0.6,3.7-0.8,7.1-0.8,10c0,4.2,0.5,6.5,0.9,7.7
				c0.7,2,1.4,2.9,1.7,3.2c0.4,0.4,0.9,0.7,1.2,0.8c1,0.2,1.8,0.2,2.5,0.2c1,0,2-0.3,3.2-0.8c1.3-0.6,2.5-1.4,3.7-2.6
				c1.3-1.2,2.5-2.8,3.5-4.7c1.1-1.9,1.9-4.1,2.5-6.7l9.5-44.6c0-0.2-0.1-0.5-0.2-0.9c-0.1-0.4-0.4-0.9-0.7-1.3
				c-0.3-0.4-0.7-0.7-1.3-1C322.6,823.3,322,823.1,320.7,823.1z M354.8,911.7l51-89.2H401c-1.5,0-2.9,0-4.2,0.1
				c-0.5,0-1,0.1-1.4,0.1c0.3,0.9,0.5,2.1,0.5,3.6c0,2.4-0.4,4.6-1.3,6.4c-0.9,1.8-2,3.4-3.4,4.6c-1.4,1.1-2.9,2-4.6,2.6
				c-1.6,0.5-3.4,0.8-5.1,0.8c-1.6,0-3.2-0.3-4.6-0.8c-1.5-0.5-2.8-1.3-4-2.3c-1.3-1.1-2.4-2.4-3.1-4c-0.8-1.6-1.1-3.4-1.1-5.4
				c0-2.5,0.7-5.3,1.9-8.1c1.3-2.8,3-5.4,5.3-7.7c2.3-2.3,5.1-4.3,8.4-5.8c3.4-1.6,7.1-2.4,11.2-2.4h57.9L404,889.4
				c0.4,0,0.8,0.1,1.1,0.1c1.3,0.2,2.6,0.3,4,0.4c1.3,0.1,2.6,0.1,3.9,0.1c1.1,0,2.1-0.1,3-0.2c-0.7-1.3-1.1-2.7-1.1-4.3
				c0-1.5,0.4-3.1,1.1-4.6c0.7-1.4,1.7-2.8,3-3.9c1.2-1.1,2.8-2,4.6-2.7c1.8-0.7,3.9-1.1,6.2-1.1c4.3,0,7.6,1.4,9.8,4.2
				c1.9,2.5,2.9,5.6,2.9,9.1c0,2.8-0.7,5.7-2,8.7c-1.3,3-3.2,5.7-5.6,8.1c-2.4,2.4-5.3,4.4-8.8,5.9c-3.5,1.6-7.5,2.4-11.8,2.4H354.8
				z"/>
			<path id="XMLID_70_" fill="#8D563E" d="M314.5,806.9c5.7,0,9.8,1,12.4,2.9c2.6,2,3.9,4.4,3.9,7.2v1.5l2.1-10.6h28.8l-14.4,68
				c-0.3,1.1-0.6,2.2-0.7,3.3c-0.1,1.1-0.2,2.1-0.2,3.2c0,2.8,0.7,4.7,2,5.8c1.3,1.1,3.4,1.6,6.2,1.6c0.9,0,1.7-0.1,2.4-0.2
				c0.7-0.1,1.4-0.4,2-0.7c-1.4,3.5-2.7,6.4-3.9,9c-1.2,2.5-2.6,4.6-4.1,6.3c-1.5,1.7-3.2,2.9-5.1,3.7c-1.9,0.8-4.2,1.2-6.8,1.2
				c-5.5,0-10-1.6-13.4-4.8c-3.4-3.2-5.5-7.8-6.3-13.7c-1.5,2.3-3.2,4.5-5.2,6.7c-2,2.2-4.2,4.2-6.6,6c-2.4,1.8-5.2,3.2-8.2,4.2
				c-3,1.1-6.3,1.6-9.8,1.6c-3.5,0-6.8-0.6-10-1.7c-3.2-1.1-6-2.9-8.5-5.5c-2.5-2.5-4.5-5.9-6-10c-1.5-4.1-2.2-9.1-2.2-15
				c0-4.6,0.5-9.4,1.4-14.6c0.9-5.2,2.3-10.4,4.2-15.6c1.9-5.2,4.2-10.2,7.1-15c2.8-4.8,6.2-9,10-12.7c3.8-3.7,8.1-6.6,12.9-8.8
				C303.4,808,308.7,806.9,314.5,806.9 M302.7,889.7c1.5,0,3.1-0.4,4.7-1.1c1.7-0.7,3.3-1.9,4.8-3.3c1.5-1.5,2.9-3.3,4.2-5.5
				c1.3-2.2,2.2-4.8,2.9-7.7l9.6-45.1c0-0.6-0.1-1.3-0.4-2.2c-0.3-0.9-0.7-1.7-1.3-2.5c-0.6-0.8-1.4-1.5-2.5-2.1
				c-1-0.6-2.4-0.8-4-0.8c-2.8,0-5.5,0.9-8,2.7c-2.5,1.8-4.8,4.2-6.9,7.3c-2.1,3-3.9,6.5-5.6,10.3c-1.6,3.8-3,7.8-4.2,11.9
				c-1.1,4.1-2,8.1-2.6,12c-0.6,3.9-0.9,7.5-0.9,10.6c0,3.8,0.4,6.8,1.1,8.9c0.7,2.1,1.6,3.6,2.6,4.6c1,1,2.1,1.6,3.3,1.8
				S301.8,889.7,302.7,889.7 M446.8,807.9l-48.9,84.6c0.8,0.1,1.9,0.2,3,0.3c1.2,0.1,2.4,0.3,3.8,0.4c1.4,0.2,2.8,0.3,4.2,0.4
				c1.4,0.1,2.8,0.1,4.2,0.1c2.5,0,4.6-0.3,6.3-0.8c1.8-0.6,2.8-1.6,3.1-3.2c-1.3-0.1-2.3-0.6-2.9-1.4c-0.6-0.8-0.9-1.7-0.9-2.8
				c0-1,0.2-2,0.7-3c0.5-1,1.2-1.9,2.1-2.7c0.9-0.8,2.1-1.5,3.5-2.1c1.4-0.6,3-0.8,4.8-0.8c3.1,0,5.4,0.9,6.8,2.7
				c1.4,1.8,2.1,4.1,2.1,6.8c0,2.3-0.6,4.7-1.7,7.2c-1.1,2.5-2.7,4.9-4.8,6.9c-2.1,2.1-4.6,3.8-7.7,5.2s-6.5,2.1-10.3,2.1h-53
				l51-89.2H401c-1.6,0-3,0-4.3,0.1c-1.3,0.1-2.5,0.2-3.5,0.4c-1,0.2-1.7,0.5-2.3,0.9c-0.6,0.4-0.8,1-0.8,1.7c0,0.3,0.1,0.5,0.3,0.6
				c0.2,0.1,0.5,0.2,0.7,0.4c0.3,0.2,0.5,0.5,0.7,1c0.2,0.5,0.3,1.3,0.3,2.4c0,1.9-0.3,3.5-0.9,4.8c-0.6,1.3-1.4,2.4-2.4,3.3
				c-1,0.8-2.1,1.5-3.4,1.9c-1.3,0.4-2.6,0.6-4,0.6c-1.2,0-2.3-0.2-3.4-0.6c-1.1-0.4-2.1-0.9-2.9-1.7c-0.9-0.7-1.6-1.6-2.1-2.7
				c-0.5-1.1-0.8-2.4-0.8-3.8c0-2,0.5-4.2,1.6-6.6c1.1-2.4,2.6-4.6,4.6-6.6c2-2,4.4-3.7,7.3-5c2.9-1.3,6.1-2,9.7-2H446.8
				 M314.5,799.4c-6.8,0-13.2,1.3-19,3.9c-5.6,2.5-10.6,6-15.1,10.2c-4.3,4.1-8,8.9-11.2,14.3c-3.1,5.2-5.6,10.6-7.7,16.3
				c-2,5.6-3.6,11.3-4.5,16.9c-1,5.6-1.5,11-1.5,15.9c0,6.8,0.9,12.7,2.7,17.6c1.9,5.1,4.4,9.3,7.6,12.6c3.3,3.4,7.1,5.8,11.4,7.3
				c4,1.4,8.1,2.1,12.4,2.1c4.4,0,8.5-0.7,12.3-2.1c3.6-1.3,7-3.1,10-5.2c1.7-1.2,3.4-2.6,4.9-4c1.1,1.6,2.3,3.1,3.7,4.4
				c4.8,4.6,11,6.9,18.5,6.9c3.6,0,6.8-0.6,9.6-1.8l-0.3,0.6h12.9h53c4.9,0,9.4-0.9,13.4-2.7c3.8-1.7,7.2-4,9.9-6.7
				c2.7-2.7,4.9-5.8,6.4-9.2c1.5-3.5,2.3-6.9,2.3-10.2c0-4.4-1.2-8.2-3.6-11.4c-2-2.6-5.8-5.7-12.7-5.7c-2.8,0-5.3,0.5-7.6,1.4
				c-1.7,0.7-3.3,1.6-4.7,2.6l35.7-61.7l6.5-11.2h-13h-51.4c-4.7,0-9,0.9-12.8,2.7c-3.7,1.7-6.8,3.9-9.5,6.6
				c-2.6,2.6-4.6,5.6-6.1,8.8c0,0,0,0,0,0l1.9-9l1.9-9h-9.2h-28.8h-6.1l-0.2,0.9C323.3,800.1,319.3,799.4,314.5,799.4L314.5,799.4z
				 M301.5,882.2c-0.1-0.3-0.4-0.7-0.7-1.6c-0.2-0.6-0.7-2.4-0.7-6.5c0-2.7,0.3-5.9,0.8-9.5c0.5-3.6,1.3-7.3,2.4-11.1
				c1-3.7,2.3-7.4,3.8-11c1.4-3.4,3.1-6.4,4.8-9c1.6-2.3,3.3-4.2,5.1-5.5c1.6-1.2,2.8-1.3,3.6-1.3c0.3,0,0.5,0,0.6,0l-9.3,43.6
				c-0.5,2.2-1.2,4-2.1,5.6c-0.9,1.6-1.9,2.9-2.9,3.8c-0.9,0.9-1.8,1.5-2.7,1.9c-0.9,0.4-1.4,0.5-1.7,0.5
				C302.5,882.3,302.1,882.2,301.5,882.2L301.5,882.2z M353.9,882.2c0-0.7,0.1-1.4,0.1-2.2c0.1-0.7,0.2-1.4,0.4-2.1l0.1-0.3l0.1-0.3
				l10.2-48.3c0.1,2.2,0.6,4.2,1.5,6c1,2.1,2.4,3.9,4.1,5.3c1.5,1.2,3.2,2.2,5.1,2.9c1.9,0.7,3.9,1,5.9,1c2.2,0,4.3-0.3,6.3-1
				c0.8-0.3,1.5-0.6,2.3-0.9l-17.2,30.2l-17.2,9.6c-0.2,0-0.5,0.1-1,0.1C354.4,882.3,354.1,882.3,353.9,882.2L353.9,882.2z
				 M410.2,886.2l1.1-1.9c0,0.4-0.1,0.8-0.1,1.2c0,0.2,0,0.5,0,0.7C410.9,886.2,410.6,886.2,410.2,886.2L410.2,886.2z"/>
		</g>
		<g id="XMLID_3142_">
			<path id="XMLID_56_" fill="#FFFFFF" d="M466.7,912.8c-3.4,0-6.6-0.5-9.6-1.6c-3.1-1.1-5.9-2.8-8.2-5.2c-2.3-2.3-4.1-5.3-5.4-8.7
				c-1.3-3.4-1.9-7.5-1.9-12.1c0-2,0.1-4.1,0.4-6.4c0.3-2.3,0.7-4.8,1.2-7.4l14.2-67.2h36.5l-15.3,72.6l0,0.1
				c-0.3,0.9-0.4,1.7-0.5,2.6c-0.1,1-0.1,1.9-0.1,2.8c0,2,0.4,2.8,0.6,2.9c0.2,0.2,1.1,0.8,3.8,0.8c1.4,0,2.7-0.3,4.1-1
				c1.5-0.7,2.8-1.7,4.1-2.9c1.3-1.3,2.5-2.9,3.6-4.8c1.1-1.9,2-4.1,2.7-6.3l0.8-2.6h16.4l-1.7,5c-2,5.6-4.2,10.6-6.6,14.7
				c-2.4,4.2-5,7.8-7.7,10.7c-2.7,3-5.6,5.4-8.5,7.3c-2.9,1.8-5.7,3.3-8.4,4.3c-2.7,1-5.3,1.7-7.8,2
				C470.8,912.6,468.6,912.8,466.7,912.8z M480.2,800.8c-2.7,0-5.3-0.5-7.7-1.5c-2.3-1-4.4-2.4-6.2-4.1c-1.8-1.7-3.2-3.8-4.2-6.2
				c-1-2.4-1.5-5-1.5-7.7c0-2.7,0.5-5.3,1.5-7.7c1-2.3,2.4-4.4,4.1-6.2c1.8-1.8,3.8-3.2,6.2-4.3c2.4-1.1,5-1.6,7.7-1.6
				c2.7,0,5.3,0.5,7.7,1.6c2.3,1,4.4,2.5,6.2,4.2c1.8,1.8,3.2,3.9,4.2,6.2c1.1,2.4,1.6,5,1.6,7.7c0,2.7-0.5,5.3-1.6,7.7
				c-1,2.4-2.5,4.4-4.3,6.2c-1.8,1.7-3.9,3.1-6.2,4.1C485.5,800.3,483,800.8,480.2,800.8z"/>
			<path id="XMLID_41_" fill="#8D563E" d="M480.2,765.3c2.2,0,4.3,0.4,6.2,1.3c1.9,0.8,3.6,2,5.1,3.5s2.6,3.2,3.5,5.1
				c0.8,1.9,1.3,4,1.3,6.2c0,2.2-0.4,4.3-1.3,6.2c-0.8,1.9-2,3.6-3.5,5c-1.5,1.4-3.2,2.5-5.1,3.3c-1.9,0.8-4,1.2-6.2,1.2
				c-2.2,0-4.3-0.4-6.2-1.2c-1.9-0.8-3.6-1.9-5-3.3c-1.4-1.4-2.6-3.1-3.4-5c-0.8-1.9-1.2-4-1.2-6.2c0-2.2,0.4-4.3,1.2-6.2
				c0.8-1.9,1.9-3.6,3.4-5.1c1.4-1.5,3.1-2.6,5-3.5C476,765.8,478,765.3,480.2,765.3 M489.2,807.9l-14.4,68
				c-0.3,1.1-0.5,2.2-0.6,3.3s-0.1,2.1-0.1,3.2c0,2.8,0.7,4.7,2,5.8c1.3,1.1,3.4,1.6,6.2,1.6c2,0,3.9-0.4,5.7-1.3s3.6-2.1,5.1-3.7
				s3-3.4,4.2-5.6c1.2-2.2,2.2-4.5,3-7.1h8.4c-1.9,5.4-4,10.1-6.3,14.1c-2.3,4-4.7,7.3-7.2,10.1c-2.5,2.7-5.1,4.9-7.7,6.6
				c-2.6,1.7-5.2,3-7.7,3.9c-2.5,0.9-4.8,1.5-7.1,1.9c-2.2,0.3-4.2,0.5-6,0.5c-3,0-5.8-0.5-8.4-1.4c-2.6-0.9-4.9-2.3-6.8-4.3
				c-1.9-2-3.4-4.4-4.5-7.4c-1.1-3-1.7-6.6-1.7-10.8c0-1.8,0.1-3.8,0.4-6c0.3-2.2,0.7-4.5,1.2-7.1l13.6-64.2H489.2 M480.2,757.8
				c-3.2,0-6.4,0.6-9.2,1.9c-2.8,1.2-5.3,2.9-7.4,5.1c-2.1,2.1-3.7,4.6-4.9,7.4c-1.2,2.8-1.8,5.9-1.8,9.1c0,3.2,0.6,6.3,1.8,9.1
				c1.2,2.8,2.9,5.3,5,7.4c1,0.9,2,1.8,3.1,2.5h-6.4h-6.1l-1.3,5.9l-13.6,64.2c-0.6,2.8-1,5.4-1.3,7.7c-0.3,2.5-0.4,4.8-0.4,6.9
				c0,5.1,0.7,9.6,2.1,13.4c1.5,4,3.6,7.4,6.2,10.1c2.7,2.8,6,4.8,9.7,6.1c3.4,1.2,7,1.8,10.9,1.8c2.1,0,4.5-0.2,7.1-0.6
				c2.8-0.4,5.7-1.2,8.6-2.2c3-1.1,6-2.7,9.1-4.6c3.2-2,6.3-4.7,9.2-7.9c2.9-3.1,5.6-6.9,8.2-11.4c2.5-4.4,4.9-9.5,6.9-15.4l3.5-10
				h-10.5h-8.4h-5.5l-1.6,5.3c-0.6,2-1.4,3.9-2.4,5.6c-0.9,1.6-1.9,2.9-3,4c-1,1-2,1.7-3,2.2c-0.8,0.4-1.7,0.6-2.5,0.6
				c-0.2,0-0.4,0-0.6,0c0-0.8,0-1.6,0.1-2.4c0.1-0.6,0.2-1.2,0.4-1.8l0.1-0.3l0.1-0.3l14.4-68l1.9-9h-4.8c1.1-0.7,2.1-1.6,3.1-2.5
				c2.2-2.1,3.9-4.6,5.1-7.4c1.3-2.9,1.9-6,1.9-9.2c0-3.2-0.6-6.3-1.9-9.2c-1.2-2.8-2.9-5.2-5-7.4c-2.1-2.1-4.6-3.8-7.4-5
				C486.6,758.5,483.5,757.8,480.2,757.8L480.2,757.8z"/>
		</g>
		<g id="XMLID_3140_">
			<path id="XMLID_22_" fill="#FFFFFF" d="M572.4,912.8c-4.9,0-9.1-0.7-12.6-2.2c-3.5-1.5-6.4-3.5-8.6-6.1c-2.2-2.5-3.7-5.4-4.7-8.6
				c-0.9-3-1.4-6.2-1.4-9.4c0-3.6,0.5-7.9,1.5-12.6c0.9-4.5,2-9.2,3.1-14c1.1-4.7,2.1-9.3,3.1-13.7c0.9-4.2,1.3-7.7,1.3-10.6
				c0-6.5-2.3-6.5-3.5-6.5c-1.1,0-2.1,0.3-3.1,0.9c-1.2,0.7-2.3,1.8-3.3,3.1c-1.1,1.4-2.2,3.1-3.1,5.1c-0.9,2-1.8,4.2-2.5,6.5
				l-14.2,67H488l22.8-107.5h36.4l-0.9,4.1c1.8-1.1,3.6-2,5.4-2.7c2.3-0.9,4.5-1.5,6.5-1.8c2-0.3,3.8-0.4,5.6-0.4
				c3.5,0,6.9,0.5,10,1.4c3.3,1,6.1,2.6,8.5,4.8c2.4,2.2,4.3,5,5.6,8.4c1.3,3.3,1.9,7.2,1.9,11.6c0,2.9-0.3,6-0.8,9.2
				c-0.5,3.1-1.1,6.4-1.8,9.7c-0.7,3.3-1.5,6.5-2.3,9.7c-0.8,3.2-1.6,6.2-2.3,9.1c-0.7,2.8-1.3,5.5-1.8,8c-0.4,2.3-0.7,4.2-0.7,5.9
				c0,1.7,0.3,2.9,1,3.8c0.3,0.4,1.3,0.8,3.3,0.8c1.6,0,2.8-0.3,3.9-0.8c1.2-0.6,2.3-1.5,3.2-2.7c1.1-1.3,2.1-3,3.1-4.9
				c1-2.1,2.1-4.4,3.1-6.9l0.9-2.4h16.2l-1.7,5c-2.9,8.5-6.1,15.4-9.5,20.5c-3.4,5.2-7,9.3-10.6,12.1c-3.7,2.9-7.4,4.8-11.1,5.7
				C578.6,912.4,575.4,912.8,572.4,912.8z"/>
			<path id="XMLID_18_" fill="#8D563E" d="M563.8,807.1c3.2,0,6.2,0.4,8.9,1.3c2.7,0.8,5.1,2.2,7.1,4c2,1.8,3.5,4.2,4.6,7
				c1.1,2.9,1.7,6.3,1.7,10.3c0,2.7-0.2,5.6-0.7,8.6c-0.5,3.1-1.1,6.3-1.8,9.5c-0.7,3.2-1.5,6.4-2.3,9.6c-0.8,3.2-1.6,6.3-2.3,9.2
				c-0.7,2.9-1.3,5.6-1.8,8.2c-0.5,2.5-0.7,4.7-0.7,6.6c0,2.5,0.6,4.5,1.7,6.1c1.1,1.6,3.2,2.3,6.3,2.3c2.1,0,4-0.4,5.7-1.3
				c1.6-0.8,3.1-2.1,4.4-3.6c1.3-1.6,2.5-3.4,3.6-5.6c1.1-2.2,2.1-4.6,3.2-7.2h8.4c-2.8,8.2-5.8,14.7-9,19.6s-6.5,8.6-9.8,11.2
				c-3.3,2.6-6.5,4.2-9.7,5c-3.2,0.8-6.1,1.2-8.7,1.2c-4.4,0-8.1-0.6-11.1-1.9c-3-1.3-5.4-3-7.2-5.1c-1.8-2.1-3.1-4.5-4-7.2
				c-0.8-2.7-1.2-5.5-1.2-8.3c0-3.4,0.5-7.3,1.4-11.9c0.9-4.5,2-9.2,3.1-13.9c1.1-4.8,2.1-9.3,3.1-13.8c0.9-4.4,1.4-8.2,1.4-11.4
				c0-6.8-2.4-10.3-7.2-10.3c-1.8,0-3.5,0.5-5.1,1.5s-3,2.3-4.3,4c-1.3,1.7-2.5,3.6-3.5,5.9c-1,2.2-2,4.6-2.7,7.2l-13.6,64.2h-28.8
				l21.2-100h28.8l-2.1,10.4c2.1-2.4,4.3-4.3,6.4-5.8c2.1-1.5,4.2-2.6,6.2-3.4c2-0.8,3.9-1.3,5.7-1.6
				C560.6,807.3,562.3,807.1,563.8,807.1 M563.8,799.6c-1.9,0-4,0.2-6.1,0.5c-2,0.3-4,0.8-6.1,1.5l0.3-1.2h-9.2h-28.8h-6.1l-1.3,5.9
				l-21.2,100l-1.9,9h9.2h28.8h6.1l1.3-5.9l13.5-63.8c0.7-2.1,1.4-4.1,2.3-5.9c0.8-1.7,1.7-3.2,2.6-4.4c0.8-1,1.6-1.7,2.4-2.2
				c0.2-0.1,0.4-0.2,0.6-0.3c0.1,0.5,0.2,1.4,0.2,2.7c0,2.6-0.4,6-1.3,9.9c-0.9,4.4-2,8.9-3,13.6c-1.1,4.8-2.2,9.5-3.1,14.1
				c-1,5-1.6,9.5-1.6,13.4c0,3.6,0.5,7.1,1.5,10.5c1.1,3.7,2.9,7,5.5,10c2.6,3,5.9,5.4,10,7.1c3.9,1.7,8.6,2.5,14.1,2.5
				c3.3,0,6.8-0.5,10.5-1.4c4.2-1,8.4-3.2,12.5-6.4c4-3.1,7.7-7.3,11.4-13c3.6-5.5,6.8-12.4,9.9-21.3l3.4-9.9h-10.5h-8.4h-5.1
				l-1.9,4.7c-1,2.4-2,4.7-2.9,6.7c-0.8,1.6-1.7,3-2.6,4.1c-0.7,0.8-1.4,1.4-2.1,1.8c-0.5,0.3-1.3,0.4-2.2,0.4c-0.2,0-0.3,0-0.5,0
				c0-0.2-0.1-0.5-0.1-0.9c0-1.4,0.2-3.1,0.6-5.2c0.5-2.4,1-5,1.7-7.8c0.7-2.9,1.5-6,2.3-9.1c0.8-3.2,1.6-6.5,2.3-9.8
				c0.7-3.4,1.4-6.7,1.9-9.9c0.5-3.5,0.8-6.8,0.8-9.8c0-4.9-0.7-9.2-2.2-13c-1.5-3.9-3.7-7.2-6.6-9.8c-2.8-2.6-6.1-4.5-9.9-5.6
				C571.5,800.2,567.8,799.6,563.8,799.6L563.8,799.6z"/>
		</g>
		<g id="XMLID_3133_">
			<path id="XMLID_51_" fill="#FFFFFF" d="M636.4,961.7c-3.4,0-6.8-0.6-10-1.8c-3.2-1.2-6.2-2.9-8.7-5.1c-2.5-2.2-4.6-4.9-6.2-7.9
				c-1.6-3.2-2.4-6.7-2.4-10.5c0-5.3,1.1-9.9,3.2-13.6c2.1-3.7,4.9-6.8,8.5-9.3c0.3-0.2,0.7-0.5,1-0.7c-2.6-0.3-5.2-0.8-7.7-1.7
				c-3.7-1.3-7.1-3.4-10-6.4c-2.8-2.9-5.1-6.7-6.8-11.3c-1.6-4.5-2.5-10-2.5-16.3c0-4.7,0.5-9.9,1.4-15.3c0.9-5.4,2.4-10.9,4.4-16.3
				c2-5.4,4.4-10.7,7.4-15.6c3-5.1,6.5-9.6,10.6-13.5c4.1-4,8.8-7.2,14-9.5c5.3-2.4,11.2-3.6,17.5-3.6c6.5,0,11.3,1.2,14.6,3.6
				l0.5-2.7h36.7l-25.4,120.5c-1.5,7.5-3.8,13.8-6.8,18.6c-3,4.8-6.4,8.6-10.1,11.4c-3.8,2.8-7.8,4.7-11.9,5.6
				C643.7,961.2,639.9,961.7,636.4,961.7z M641,918.6c-0.7,0.3-1.4,0.6-2.1,1c-2.4,1.2-4.6,2.5-6.3,3.9c-1.6,1.3-2.9,2.9-3.8,4.6
				c-0.8,1.6-1.3,3.3-1.3,5.4c0,0.2,0.1,0.4,0.2,0.7c0.2,0.3,0.4,0.6,0.8,0.9c0.4,0.4,1,0.7,1.6,1c0.5,0.2,1.1,0.3,1.7,0.3
				c0.5,0,1.1-0.1,1.8-0.4c0.6-0.3,1.3-0.8,1.9-1.5c0.8-0.9,1.6-2.2,2.3-3.9c0.8-1.8,1.5-4,2.1-6.8L641,918.6z M656.2,823.1
				c-2,0-3.9,0.7-5.8,2c-2.2,1.6-4.2,3.7-6,6.4c-1.9,2.8-3.7,6-5.2,9.6c-1.6,3.7-2.9,7.5-4,11.4c-1.1,3.9-1.9,7.8-2.5,11.6
				c-0.6,3.7-0.8,7.1-0.8,10c0,4.2,0.5,6.5,0.9,7.7c0.7,2,1.4,2.9,1.7,3.2c0.4,0.4,0.9,0.7,1.2,0.8c1,0.2,1.8,0.2,2.5,0.2
				c0.9,0,1.9-0.2,2.9-0.7c1.2-0.5,2.4-1.2,3.6-2.2c1.2-1,2.3-2.3,3.4-3.9c1-1.5,1.9-3.4,2.5-5.5l9.9-47.4c-0.1-0.3-0.2-0.6-0.3-0.9
				c-0.1-0.4-0.4-0.8-0.7-1.2c-0.2-0.3-0.6-0.6-1.1-0.8C658.2,823.3,657.5,823.1,656.2,823.1z"/>
			<path id="XMLID_44_" fill="#8D563E" d="M650.1,806.9c5.7,0,9.8,1,12.4,2.9c2.6,2,3.9,4.4,3.9,7.2v0.4l2-9.6h29l-24.4,116
				c-1.4,7.2-3.5,13-6.3,17.4c-2.8,4.4-5.8,7.9-9.2,10.4c-3.4,2.5-6.9,4.1-10.5,5c-3.7,0.8-7.1,1.3-10.4,1.3c-3,0-5.9-0.5-8.7-1.6
				c-2.8-1-5.3-2.5-7.5-4.4c-2.2-1.9-3.9-4.2-5.3-6.8c-1.3-2.6-2-5.6-2-8.8c0-4.7,0.9-8.6,2.7-11.8c1.8-3.2,4.2-5.9,7.4-8.1
				c3.1-2.2,6.8-4.1,11-5.6c4.2-1.5,8.7-3,13.5-4.4l1.9-8.4c-1.5,1.6-3.1,3-4.8,4.3c-1.7,1.3-3.5,2.5-5.5,3.5c-2,1-4.1,1.8-6.4,2.4
				c-2.3,0.6-4.7,0.9-7.3,0.9c-3.5,0-6.8-0.6-10-1.7c-3.2-1.1-6-2.9-8.5-5.5c-2.5-2.5-4.5-5.9-6-10s-2.2-9.1-2.2-15
				c0-4.6,0.5-9.4,1.4-14.6c0.9-5.2,2.3-10.4,4.2-15.6c1.9-5.2,4.2-10.2,7.1-15s6.2-9,10-12.7c3.8-3.7,8.1-6.6,12.9-8.8
				C639,808,644.3,806.9,650.1,806.9 M638.2,889.7c1.4,0,2.8-0.3,4.3-0.9c1.5-0.6,3-1.5,4.5-2.8c1.5-1.2,2.9-2.8,4.1-4.7
				c1.2-1.9,2.2-4.1,3-6.6l10.2-48.4c-0.1-0.7-0.3-1.4-0.6-2.1s-0.7-1.5-1.3-2.2c-0.6-0.7-1.4-1.3-2.4-1.8c-1-0.5-2.3-0.7-3.9-0.7
				c-2.8,0-5.5,0.9-8,2.7c-2.5,1.8-4.8,4.2-6.9,7.3c-2.1,3-3.9,6.5-5.6,10.3c-1.6,3.8-3,7.8-4.2,11.9c-1.1,4.1-2,8.1-2.6,12
				c-0.6,3.9-0.9,7.5-0.9,10.6c0,3.8,0.4,6.8,1.1,8.9c0.7,2.1,1.6,3.6,2.6,4.6c1,1,2.1,1.6,3.3,1.8S637.3,889.7,638.2,889.7
				 M646.1,912.7c-3.1,1-6.1,2.2-8.8,3.5c-2.7,1.3-5.1,2.8-7.1,4.4c-2,1.7-3.5,3.5-4.7,5.7c-1.1,2.1-1.7,4.5-1.7,7.2
				c0,0.8,0.2,1.6,0.6,2.3s0.9,1.5,1.7,2.1c0.7,0.6,1.6,1.1,2.5,1.6c1,0.4,2.1,0.6,3.2,0.6c1,0,2.1-0.2,3.3-0.7
				c1.1-0.5,2.2-1.3,3.3-2.5c1-1.2,2-2.8,2.9-4.8c0.9-2,1.7-4.5,2.3-7.5L646.1,912.7 M650.1,799.4c-6.8,0-13.2,1.3-19,3.9
				c-5.6,2.5-10.6,6-15.1,10.2c-4.3,4.1-8,8.9-11.2,14.3c-3.1,5.2-5.6,10.6-7.7,16.3c-2,5.6-3.6,11.3-4.5,16.9
				c-1,5.6-1.5,11-1.5,15.9c0,6.8,0.9,12.7,2.7,17.6c1.9,5.1,4.4,9.3,7.6,12.6c3.3,3.4,7.1,5.8,11.4,7.3c0.2,0.1,0.4,0.1,0.7,0.2
				c-1.7,1.9-3.2,3.9-4.5,6.1c-2.4,4.3-3.6,9.5-3.6,15.5c0,4.4,0.9,8.5,2.8,12.2c1.8,3.5,4.1,6.5,7.1,9.1c2.9,2.5,6.2,4.4,9.8,5.8
				c3.7,1.3,7.5,2,11.3,2c3.8,0,7.9-0.5,12.1-1.5c4.7-1.1,9.1-3.2,13.3-6.3c4.1-3,7.8-7.2,11.1-12.4c3.2-5.2,5.7-11.8,7.3-19.8
				l24.4-116l1.9-9h-9.2h-29h-6.1l-0.2,0.8C658.7,800,654.8,799.4,650.1,799.4L650.1,799.4z M637,882.2c-0.1-0.3-0.4-0.7-0.7-1.6
				c-0.2-0.6-0.7-2.4-0.7-6.5c0-2.7,0.3-5.9,0.8-9.5c0.5-3.6,1.3-7.3,2.4-11.1c1-3.7,2.3-7.4,3.8-11c1.4-3.4,3.1-6.4,4.8-9
				c1.6-2.3,3.3-4.2,5.1-5.5c1.6-1.2,2.8-1.3,3.6-1.3c0.2,0,0.3,0,0.4,0l-9.6,46c-0.6,1.7-1.2,3.2-2,4.4c-0.8,1.2-1.7,2.3-2.6,3
				c-0.9,0.7-1.8,1.3-2.6,1.6c-0.8,0.3-1.3,0.4-1.5,0.4C638,882.3,637.6,882.2,637,882.2L637,882.2z M631.3,932.5
				c0.1-1,0.4-1.9,0.8-2.7c0.7-1.3,1.6-2.4,2.9-3.5c0.2-0.1,0.4-0.3,0.5-0.4c-0.3,1.1-0.7,2.1-1.1,3c-0.8,1.7-1.4,2.6-1.8,3
				c-0.3,0.4-0.5,0.5-0.6,0.6c-0.2,0.1-0.3,0.1-0.3,0.1c-0.2,0-0.2,0-0.2,0C631.5,932.6,631.4,932.6,631.3,932.5L631.3,932.5z"/>
		</g>
		<g id="XMLID_142_">
			<path id="XMLID_32_" fill="#FFFFFF" d="M719.7,912.8c-2.7,0-5.3-0.5-7.7-1.6c-2.3-1-4.4-2.4-6.2-4.2c-1.8-1.8-3.2-3.9-4.3-6.3
				c-1-2.4-1.6-5-1.6-7.7c0-2.7,0.5-5.3,1.6-7.7c1-2.3,2.5-4.4,4.3-6.1c1.8-1.8,3.9-3.1,6.2-4.1c2.4-1,5-1.5,7.7-1.5
				c2.7,0,5.3,0.5,7.7,1.5c2.4,1,4.4,2.4,6.2,4.2c1.8,1.8,3.2,3.8,4.2,6.1c1,2.4,1.5,4.9,1.5,7.6c0,2.7-0.5,5.3-1.5,7.7
				c-1,2.4-2.4,4.5-4.2,6.3c-1.8,1.8-3.8,3.2-6.2,4.2C725,912.3,722.4,912.8,719.7,912.8z M712.5,865.5l16.3-107.1L768,753
				l-31.3,112.4H712.5z"/>
			<path id="XMLID_27_" fill="#8D563E" d="M762.9,757.5l-29,104.2h-17l15.2-100L762.9,757.5 M719.7,877.3c2.2,0,4.3,0.4,6.2,1.2
				c1.9,0.8,3.6,1.9,5,3.4c1.4,1.4,2.6,3.1,3.4,5c0.8,1.9,1.2,3.9,1.2,6.2c0,2.2-0.4,4.3-1.2,6.3c-0.8,2-1.9,3.6-3.4,5.1
				c-1.4,1.4-3.1,2.6-5,3.4c-1.9,0.8-4,1.3-6.2,1.3c-2.2,0-4.3-0.4-6.2-1.3c-1.9-0.8-3.6-2-5.1-3.4c-1.5-1.4-2.6-3.1-3.5-5.1
				c-0.8-2-1.3-4-1.3-6.3c0-2.2,0.4-4.3,1.3-6.2c0.8-1.9,2-3.5,3.5-5c1.5-1.4,3.2-2.6,5.1-3.4C715.4,877.8,717.5,877.3,719.7,877.3
				 M773.1,748.6l-11.3,1.5l-30.8,4.2l-5.5,0.8l-0.8,5.5l-15.2,100l-1.3,8.6h8.7h17h5.7l1.5-5.5l29-104.2L773.1,748.6L773.1,748.6z
				 M719.7,869.9c-3.2,0-6.3,0.6-9.1,1.8c-2.8,1.2-5.3,2.8-7.4,4.9c-2.1,2.1-3.8,4.5-5.1,7.3c-1.3,2.8-1.9,5.9-1.9,9.2
				c0,3.2,0.6,6.3,1.9,9.2c1.2,2.8,2.9,5.3,5.1,7.5c2.1,2.1,4.6,3.7,7.3,4.9c2.9,1.3,6,1.9,9.2,1.9c3.2,0,6.3-0.6,9.2-1.9
				c2.8-1.2,5.2-2.9,7.3-5c2.1-2.1,3.8-4.6,5-7.5c1.2-2.9,1.8-5.9,1.8-9.1c0-3.2-0.6-6.3-1.8-9.1c-1.2-2.8-2.9-5.2-4.9-7.3
				c-2.1-2.1-4.6-3.8-7.4-5C726,870.5,722.9,869.9,719.7,869.9L719.7,869.9z"/>
		</g>
	</g>
</g>
</svg>
